<svg width="390" height="80" viewBox="0 0 390 80" xmlns="http://www.w3.org/2000/svg"><title>КАСКО</title><path d="M17.68 78.674V41.878l26.408 36.796H66.52L35.14 37.017 64.2 1.326H42.983L17.68 35.028V1.326H0v77.348h17.68zm70.082 0h-17.79l32.155-77.348h15.801l32.155 77.348h-18.895l-6.409-16.243H94.171l-6.409 16.243zm30.387-32.818l-8.619-21.878-8.729 21.878h17.348zm96.16 11.934c-4.972 3.757-10.607 5.635-16.795 5.635-6.962 0-12.597-2.21-16.906-6.519-4.31-4.42-6.52-10.055-6.52-16.906 0-7.403 1.99-13.15 6.078-17.238 4.088-4.088 9.282-6.187 15.58-6.187 5.304 0 10.608 1.547 15.801 4.751l7.845-13.26C214.53 3.315 205.58 0 195.746 0c-12.818 0-22.763 3.757-29.834 11.27-7.072 7.515-10.608 17.128-10.608 28.73 0 12.044 3.757 21.657 11.27 29.06C174.089 76.355 183.813 80 195.857 80c5.194 0 10.056-.773 14.696-2.43 4.641-1.658 8.177-3.868 10.498-6.52l-6.74-13.26zm40.028 20.884V41.878l26.409 36.796h22.43l-31.38-41.657 29.06-35.691h-21.215l-25.304 33.702V1.326h-17.68v77.348h17.68zM307.072 40c0-11.381 3.757-20.884 11.381-28.508C326.077 3.867 336.023 0 348.177 0c12.044 0 21.878 3.646 29.503 10.94 7.734 7.292 11.602 17.016 11.602 29.06 0 11.602-3.868 21.215-11.713 28.73C369.834 76.242 360 80 348.177 80c-12.044 0-21.879-3.646-29.613-10.94-7.625-7.292-11.492-17.016-11.492-29.06zm18.784 0c0 6.63 2.21 12.155 6.52 16.685 4.31 4.53 9.613 6.74 15.8 6.74 7.073 0 12.597-2.21 16.465-6.519 3.867-4.42 5.856-10.055 5.856-16.906 0-6.961-2.1-12.597-6.409-16.906-4.309-4.31-9.613-6.52-15.911-6.52-6.52 0-11.823 2.21-16.022 6.52-4.2 4.31-6.299 9.945-6.299 16.906z" fill="#CED1D2" fill-rule="evenodd"/></svg>