<svg width="62" height="14" viewBox="0 0 62 14" xmlns="http://www.w3.org/2000/svg"><path d="M7.19 13.994L0 .15h1.9a778.74 778.74 0 0 0 3.992 7.845 71.16 71.16 0 0 1 1.376 2.797s.579-1.26 1.41-2.861A770.828 770.828 0 0 0 12.636.15h1.9L7.343 13.998l-.155-.004zM21.877 1.46c-2.97 0-5.378 2.481-5.378 5.541 0 3.06 2.408 5.54 5.378 5.54s5.378-2.48 5.378-5.54-2.408-5.54-5.378-5.54zm0 12.54c-3.853 0-6.977-3.134-6.977-6.999 0-3.865 3.124-6.999 6.977-6.999 3.854 0 6.978 3.134 6.978 7 0 3.864-3.124 6.998-6.978 6.998zm16.309-.145h-6.824V.148h1.597V12.25h5.227v1.605zm5.227-12.103h-5.227V.148h6.825v13.707h-1.598V1.752zm5.59 0a.8.8 0 0 1-.799-.802.8.8 0 0 1 .799-.802.8.8 0 0 1 .798.802.8.8 0 0 1-.798.802zm11.095 12.1a764.743 764.743 0 0 0-3.99-7.848 69.244 69.244 0 0 1-1.377-2.797s-.579 1.261-1.41 2.862a756.492 756.492 0 0 0-3.958 7.783h-1.9L54.656 0l.155.004L62 13.852h-1.9z" fill="#BEBEBE" fill-rule="evenodd"/></svg>