<?xml version="1.0" encoding="UTF-8"?>
<svg width="524px" height="444px" viewBox="0 0 524 444" version="1.1" xmlns="http://www.w3.org/2000/svg" xmlns:xlink="http://www.w3.org/1999/xlink">
    <!-- Generator: Sketch 46.2 (44496) - http://www.bohemiancoding.com/sketch -->
    <title>Image</title>
    <desc>Created with Sketch.</desc>
    <defs>
        <polygon id="path-1" points="31.5905596 0.152224272 0.0410836 0.152224272 0.0410836 72.7114609 31.5905596 72.7114609 31.5905596 0.152224272"></polygon>
        <polygon id="path-3" points="30.9590698 0.152224272 0.2217908 0.152224272 0.2217908 72.7114988 30.9590698 72.7114988 30.9590698 0.152224272"></polygon>
    </defs>
    <g id="Page-1" stroke="none" stroke-width="1" fill="none" fill-rule="evenodd">
        <g id="KASKO_6" transform="translate(-664.000000, -228.000000)">
            <g id="Image" transform="translate(664.000000, 228.000000)">
                <g id="Page-1" transform="translate(293.500000, 312.000000) scale(-1, 1) translate(-293.500000, -312.000000) translate(63.000000, 180.000000)">
                    <polygon id="Fill-3" fill="#017631" points="0 2.26432329 34.9585207 22 39 19.7347796 4.00108289 0"></polygon>
                    <polygon id="Fill-5" fill="#017E34" points="69 41.2643233 103.958521 61 108 58.7347796 73.0010829 39"></polygon>
                    <polygon id="Fill-6" fill="#117F3E" points="115 68.2643233 149.958521 88 154 85.7347796 119.001083 66"></polygon>
                    <polygon id="Fill-7" fill="#117F3E" points="162 95.2643233 196.958521 115 201 112.73478 166.001083 93"></polygon>
                    <polygon id="Fill-8" fill="#117F3E" points="209 122.264323 243.958521 142 248 139.73478 213.001083 120"></polygon>
                    <polygon id="Fill-9" fill="#117F3E" points="256 149.264323 290.958521 169 295 166.73478 260.001083 147"></polygon>
                    <polygon id="Fill-10" fill="#117F3E" points="303 177.264323 337.958521 197 342 194.73478 307.001083 175"></polygon>
                    <polygon id="Fill-11" fill="#017E34" points="350 204.264323 384.958521 224 389 221.73478 354.001083 202"></polygon>
                    <polygon id="Fill-13" fill="#017631" points="422 244.264323 456.958521 264 461 261.73478 426.001083 242"></polygon>
                </g>
                <g id="Page-1">
                    <polygon id="Fill-1" fill="#231F20" opacity="0.248584692" points="150.641596 151.399994 139.876061 166.01599 128.849224 166.380141 122.52433 176.221674 114.835526 176.314037 99.2000122 189.399994 142.466023 184.239022 143.004866 180.786404 170.339768 179.488053 171.100643 175.177296 199.752598 172.621805 208.200012 166.323739 192.607168 160.486728 203.135944 156.914871 200.090555 155.113044 188.634757 158.999464 172.863683 153.095831"></polygon>
                    <polygon id="Fill-3" fill="#087C39" points="203 157 203 121.123111 206 118 205.677371 155.290815"></polygon>
                    <polygon id="Fill-4" fill="#006027" points="203 121.555491 200.330766 118 200 155.212491 203 157.000383"></polygon>
                    <polygon id="Fill-5" fill="#077735" points="176.557092 139.939006 191.997741 85 210.667536 85 222 142"></polygon>
                    <polygon id="Fill-6" fill="#006027" points="161 114.449151 176.51322 140 192 85.2026408 180.786215 78"></polygon>
                    <polygon id="Fill-7" fill="#009548" points="221.284585 142 248 123.524626 224.334953 78 210 84.8119517"></polygon>
                    <polygon id="Fill-8" fill="#00682A" points="171.686813 84.4178014 191.24481 51 199 56.2163839 192.769112 98.4993392"></polygon>
                    <polygon id="Fill-9" fill="#02893F" points="234 77.2193558 218.041785 51 208.84569 55.8041804 223.023178 94.8595811"></polygon>
                    <polygon id="Fill-10" fill="#077735" points="192.846363 98.4614454 223.052127 94.9247975 208.912292 56 198.878211 56.5100327"></polygon>
                    <polygon id="Fill-11" fill="#006B2B" points="181 47.1690574 187.815722 60.9065281 206 10"></polygon>
                    <polygon id="Fill-12" fill="#009548" points="230.347789 54.8922356 206 10 211.459194 65.5115275"></polygon>
                    <polygon id="Fill-13" fill="#008235" points="187.831251 60.970045 211.451147 65.5099253 205.980844 10.1069339"></polygon>
                    <g id="Group-21" transform="translate(130.000000, 59.000000)" opacity="0.248584692">
                        <polygon id="Fill-14" fill="#000000" points="58.2727042 2.02523575 67.2403699 7.70938983 83.9884479 10.6973991 97.4397236 7.43791255 92.9129664 0.0218248273 81.4589994 6.52222188"></polygon>
                        <polygon id="Fill-16" fill="#000000" points="41.8494351 25.5633421 58.8880758 38.5827689 63.3022039 42.0468582 83.9260925 43.7790924 105.649713 40.7750882 98.5318804 27.060258 93.0101729 35.9355395 62.7888891 39.4625316"></polygon>
                        <g id="Group-20" transform="translate(0.000000, 89.075501)" fill="#231F20">
                            <polygon id="Fill-18" points="92.1187855 156.812908 0.24945961 103.668569 179.727788 0.334923883 271.839187 53.3977683"></polygon>
                        </g>
                    </g>
                    <polygon id="Fill-22" fill="#1A1A1A" points="250.491013 265 363 202.966719 354.782755 191 240 254.408509"></polygon>
                    <polygon id="Fill-23" fill="#878787" points="195.528295 199 197 198.08031 190.471705 194 189 194.920085"></polygon>
                    <polygon id="Fill-24" fill="#3F3F3F" points="196 204 196 198.825537 189 195 189 200.174463"></polygon>
                    <polygon id="Fill-25" fill="#00752F" points="198 198 196 198.85709 196 204 198 203.14291"></polygon>
                    <g id="Group-166">
                        <path d="M306.539596,213.410495 L259.213487,240.789986 L203.904122,274.416745 L203.903364,296.916707 L229.948244,286.899135 C229.911102,286.475488 229.891773,280.583536 229.891773,280.583536 C229.891773,276.019465 231.757969,270.457775 234.661488,265.499667 C237.407722,260.809565 241.081748,256.659651 244.981658,254.404378 C248.790608,252.201871 252.554078,252.20263 255.370048,253.836479 C258.199283,255.478299 260.071922,258.769153 260.071922,263.13089 C260.071922,263.567444 260.054109,268.871378 260.019241,269.32843 L306.558546,242.415483 L328.966542,229.550823 C328.929021,229.127177 328.909692,223.807299 328.909692,223.357459 C328.909692,218.793388 330.776267,213.231698 333.679786,208.27359 C336.425641,203.583488 340.099667,199.433574 343.999956,197.178301 C347.808906,194.975794 351.572376,194.976553 354.387967,196.610402 C357.217202,198.252222 359.09022,201.543076 359.09022,205.904814 C359.09022,205.904814 359.072407,211.746657 359.03716,212.20371 L376.303263,198.874406 L376.303263,173.067267 L306.539596,213.410495 Z" id="Fill-26" fill="#00712E"></path>
                        <path d="M233.455207,281.617712 C233.455207,277.362265 235.195575,272.17715 237.902393,267.554239 C240.462917,263.181872 243.88794,259.312491 247.524445,257.209822 C251.075675,255.156123 254.584457,255.156882 257.209411,256.680263 L250.271437,252.692823 C248.582613,252.809363 246.788427,253.359421 244.983629,254.402973 C241.076139,256.662801 237.395291,260.820308 234.643751,265.519141 C231.734926,270.486739 229.86494,276.059059 229.86494,280.631861 C229.86494,281.080562 229.884269,285.207699 229.921411,285.645771 C233.737183,287.85625 237.953937,290.326383 237.953937,290.326383 C235.281608,288.861462 233.455207,285.850002 233.455207,281.617712" id="Fill-28" fill="#3C3C3C"></path>
                        <path d="M253.166467,276.380096 C248.394857,284.720164 243.145707,287.142087 240.591247,285.718543 L240.576087,285.710951 C240.166767,285.479387 239.821877,285.118756 239.533837,284.667019 C237.923087,282.165378 238.218707,276.49398 241.985967,269.91531 C245.522037,263.735232 250.123097,260.808426 253.041397,260.888145 C253.617477,260.907125 254.132917,261.028601 254.557397,261.275349 C254.561187,261.279145 254.568767,261.282941 254.572557,261.286737 C257.267247,262.900087 257.452957,268.894154 253.166467,276.380096 M257.210397,256.682048 C254.583927,255.156009 251.074387,255.156009 247.523157,257.209708 C243.888547,259.312756 240.462387,263.180999 237.904137,267.554125 C235.194287,272.177795 233.454677,277.36329 233.454677,281.618737 C233.454677,285.851407 235.281457,288.861727 237.953407,290.327028 C240.625357,291.792329 244.142477,291.708815 247.523157,289.753815 C251.351057,287.540679 254.879547,283.418096 257.445377,278.851368 C259.996047,274.311213 261.595427,269.330708 261.595427,265.344786 C261.595427,261.279145 259.848237,258.211883 257.210397,256.682048" id="Fill-30" fill="#1A1A1A"></path>
                        <path d="M253.166467,276.380096 C248.394857,284.720164 243.145707,287.142087 240.591247,285.718543 L240.576087,285.710951 C240.166767,285.479387 239.821877,285.118756 239.533837,284.667019 C240.094757,284.678407 240.712527,284.575912 241.375777,284.344349 C244.040147,283.429485 247.428407,280.510271 250.604427,274.960349 C253.507567,269.884941 254.356527,265.504222 253.765287,262.698892 C253.613687,261.989019 253.371127,261.38164 253.041397,260.888145 C253.617477,260.907125 254.132917,261.028601 254.557397,261.275349 C254.561187,261.279145 254.568767,261.282941 254.572557,261.286737 C257.267247,262.900087 257.452957,268.894154 253.166467,276.380096" id="Fill-32" fill="#808080"></path>
                        <path d="M250.604351,274.960235 C247.428331,280.510157 244.040071,283.429371 241.375701,284.344235 C240.712451,284.575798 240.094681,284.678293 239.533761,284.666905 C237.923011,282.165264 238.218631,276.493866 241.985891,269.915196 C245.521961,263.735118 250.123021,260.808312 253.041321,260.888031 C253.371051,261.381526 253.613611,261.988905 253.765211,262.698778 C254.356451,265.504109 253.507491,269.884827 250.604351,274.960235" id="Fill-34" fill="#FFFFFF"></path>
                        <path d="M332.491205,224.372009 C332.491205,220.116563 334.231194,214.931068 336.938391,210.308537 C339.498536,205.93617 342.923937,202.066788 346.560063,199.964119 C350.111672,197.91042 353.620075,197.911179 356.245408,199.434561 L349.307055,195.44712 C347.61861,195.563661 345.824045,196.113718 344.019247,197.157271 C340.112136,199.417099 336.431288,203.574606 333.67937,208.273439 C330.770924,213.241037 328.900938,218.813356 328.900938,223.386158 C328.900938,223.386158 328.919888,227.957821 328.95703,228.400069 C332.772802,230.610547 336.989555,233.08068 336.989555,233.08068 C334.317606,231.615759 332.491205,228.6043 332.491205,224.372009" id="Fill-36" fill="#3C3C3C"></path>
                        <path d="M360.628165,208.099273 C360.628165,212.085195 359.028785,217.0657 356.478115,221.605855 C353.916075,226.172583 350.387585,230.295166 346.559685,232.508302 C343.179005,234.463302 339.661884,234.546816 336.989935,233.081515 C334.317985,231.616214 332.491204,228.605894 332.491204,224.373224 C332.491204,220.117778 334.230815,214.932282 336.936874,210.308613 C339.498915,205.935486 342.925075,202.067244 346.559685,199.964195 C350.110915,197.910496 353.620455,197.910496 356.246925,199.432739 L353.601505,204.037428 C353.601505,204.037428 353.597715,204.033632 353.593925,204.029836 C353.169445,203.783088 352.654005,203.661613 352.077925,203.642632 C349.159625,203.559117 344.554775,206.489719 341.018705,212.669797 C337.255235,219.248467 336.955825,224.919865 338.570364,227.421506 C338.858405,227.873244 339.203295,228.233875 339.608825,228.461642 L339.627775,228.469234 C342.182235,229.896574 347.431385,227.470855 352.202995,219.134583 C356.489485,211.648642 356.303775,205.650778 353.609085,204.041224 L356.246925,199.432739 C358.884765,200.96637 360.628165,204.033632 360.628165,208.099273" id="Fill-38" fill="#1A1A1A"></path>
                        <path d="M352.202805,219.134545 C347.431195,227.470817 342.182424,229.896536 339.627585,228.469196 L339.609014,228.461604 C339.203105,228.233837 338.858215,227.873206 338.570175,227.421468 C339.127305,227.432856 339.748865,227.326565 340.412115,227.098798 C343.076485,226.183934 346.460955,223.26472 349.640765,217.714798 C352.543905,212.63939 353.389075,208.258672 352.801625,205.453342 C352.650025,204.739672 352.403675,204.136089 352.077735,203.642594 C352.653815,203.661575 353.169255,203.78305 353.593735,204.029798 C353.597525,204.033594 353.608895,204.041186 353.608895,204.041186 C356.303585,205.65074 356.489674,211.648604 352.202805,219.134545" id="Fill-40" fill="#808080"></path>
                        <path d="M349.640841,217.714874 C346.461031,223.264796 343.076561,226.18401 340.412191,227.098874 C339.748941,227.326641 339.127381,227.432932 338.570251,227.421544 C336.955711,224.919903 337.255121,219.248505 341.018591,212.669835 C344.554661,206.489757 349.159511,203.559155 352.077811,203.64267 C352.403751,204.136165 352.650101,204.739748 352.801701,205.453417 C353.389151,208.258748 352.543981,212.639466 349.640841,217.714874" id="Fill-42" fill="#FFFFFF"></path>
                        <polygon id="Fill-44" fill="#009548" points="203.904539 274.416669 188.296561 265.416836 188.296561 263.737434 155.274291 244.64107 155.274291 246.295038 139.495763 237.170692 139.495763 259.671034 203.903402 296.916631"></polygon>
                        <polygon id="Fill-46" fill="#007B3C" points="188.296637 263.737472 155.273988 244.641108 194.863949 196.883305 259.234067 234.151299"></polygon>
                        <polygon id="Fill-48" fill="#009548" points="259.233991 234.151337 275.996403 198.002058 211.61302 160.729509 194.863873 196.883343"></polygon>
                        <polygon id="Fill-50" fill="#3EA94D" points="259.233991 235.632885 203.903781 274.416669 259.213146 240.790289"></polygon>
                        <polygon id="Fill-52" fill="#3EA94D" points="349.180583 188.751871 376.303339 173.067457 373.3316 168.170846 349.180204 182.136759"></polygon>
                        <polygon id="Fill-54" fill="#00712E" points="259.233991 234.151337 259.213146 240.789986 261.921859 239.21194 261.921859 235.475802 278.333317 200.083469 305.214271 184.564945 305.214271 214.176931 307.902139 212.622421 307.902139 183.012333 333.870082 168.023367 333.854164 197.614854 336.542411 196.060345 336.546959 171.346108 346.492677 183.691079 346.492677 190.306571 349.180545 188.752061 349.180166 182.136949 334.634525 164.087933 275.996403 198.002058"></polygon>
                        <polygon id="Fill-56" fill="#009548" points="203.903933 274.416669 188.296713 265.416836 259.234143 235.632885"></polygon>
                        <polygon id="Fill-58" fill="#3EA94D" points="188.296637 265.416684 188.296637 263.737282 259.234067 234.151489 259.234067 235.632733"></polygon>
                        <polygon id="Fill-60" fill="#1A1A1A" points="156.925253 247.249723 156.925253 258.82636 186.645675 276.12792 186.645675 264.436261"></polygon>
                        <polygon id="Fill-62" fill="#009548" points="139.495839 237.170616 155.273988 246.294962 155.273988 244.640994 194.863949 196.883191"></polygon>
                        <polygon id="Fill-64" fill="#FF8900" points="189.122213 267.637412 203.90435 276.182091 203.90435 284.339186 189.122213 275.790711"></polygon>
                        <polygon id="Fill-66" fill="#D67422" points="203.904539 284.339072 208.856174 281.475661 208.856174 273.318566 203.904539 276.182357"></polygon>
                        <polygon id="Fill-68" fill="#FF8900" points="154.448564 255.739548 139.495877 247.092754 139.495877 238.939455 154.448564 247.586249"></polygon>
                        <polygon id="Fill-70" fill="#C0C0C0" points="139.495839 248.907487 139.495839 250.40012 203.879222 287.658244 225.216164 275.322384 226.608989 276.12792 203.904615 289.300444 136.775377 250.480598"></polygon>
                        <polygon id="Fill-72" fill="#60696C" points="136.775226 250.480788 136.775226 255.442312 203.904463 294.261779 203.904463 289.300634"></polygon>
                        <path d="M203.904539,294.261817 C204.257388,293.997607 226.608913,281.132189 226.608913,281.132189 L226.608913,276.127768 L203.904539,289.300293 L203.904539,294.261817 Z" id="Fill-74" fill="#8A8A8A"></path>
                        <polygon id="Fill-76" fill="#009548" points="211.613058 160.729585 270.220102 126.838236 334.634184 164.088009 275.996441 198.001755"></polygon>
                        <polygon id="Fill-78" fill="#4D4D4D" points="296.830299 223.389764 296.115505 222.976367 303.563613 218.669293 304.278407 219.08269"></polygon>
                        <polygon id="Fill-80" fill="#333333" points="296.830299 225.04358 296.830299 223.389612 304.278407 219.082539 304.278407 220.736507"></polygon>
                        <polygon id="Fill-82" fill="#1A1A1A" points="296.115315 222.976329 296.830109 223.389726 296.830109 225.098358 296.115315 224.684582"></polygon>
                        <polygon id="Fill-84" fill="#4D4D4D" points="325.300058 206.926197 324.585264 206.5128 332.033372 202.205726 332.748166 202.619123"></polygon>
                        <polygon id="Fill-86" fill="#333333" points="325.300058 208.579975 325.300058 206.926007 332.748166 202.618933 332.748166 204.272901"></polygon>
                        <polygon id="Fill-88" fill="#1A1A1A" points="324.585113 206.512762 325.299907 206.926159 325.299907 208.634791 324.585113 208.221014"></polygon>
                        <polygon id="Fill-90" fill="#4D4D4D" points="361.968081 198.001944 360.538114 197.17515 376.303377 187.951346 376.303377 186.53046 378.962441 188.067887"></polygon>
                        <polygon id="Fill-92" fill="#8A8A8A" points="361.968081 201.309539 361.968081 198.001982 378.962441 188.067546 378.962441 191.375481"></polygon>
                        <polygon id="Fill-94" fill="#373737" points="360.53819 197.175036 361.968157 198.001831 361.968157 201.309387 360.53819 200.482593"></polygon>
                        <polygon id="Fill-96" fill="#FF8900" points="374.652264 177.44176 376.303567 176.487037 376.303567 184.643752 374.652264 185.598855"></polygon>
                        <polygon id="Fill-98" fill="#232323" points="256.63064 232.644089 273.393052 196.49481 214.216371 162.236757 197.455475 198.383758"></polygon>
                        <polygon id="Fill-100" fill="#232323" points="261.922011 235.475954 261.922011 239.212092 305.214423 214.176703 305.214423 184.565097 278.333469 200.083621"></polygon>
                        <polygon id="Fill-102" fill="#232323" points="307.902139 183.012409 307.902139 212.622497 333.854164 197.61493 333.870082 168.023443"></polygon>
                        <polygon id="Fill-104" fill="#232323" points="336.542222 196.060535 336.547149 171.346298 346.492488 183.691269 346.492488 190.306381"></polygon>
                        <polygon id="Fill-106" fill="#4D4D4D" points="274.440722 194.235058 273.010755 193.408264 329.694374 160.629177 331.124341 161.455972"></polygon>
                        <polygon id="Fill-108" fill="#333333" points="273.392901 196.49481 274.440836 194.234982 331.124076 161.455896 332.033297 162.584102"></polygon>
                        <polygon id="Fill-110" fill="#1A1A1A" points="273.010831 193.408188 274.440798 194.234982 273.392863 196.49481 271.962896 195.668016"></polygon>
                        <polygon id="Fill-112" fill="#4D4D4D" points="216.694197 160.803913 215.26423 159.977119 271.94785 127.198032 273.377817 128.024826"></polygon>
                        <polygon id="Fill-114" fill="#333333" points="215.646376 163.063627 216.694311 160.803799 273.377551 128.024712 274.286772 129.152918"></polygon>
                        <polygon id="Fill-116" fill="#1A1A1A" points="215.264306 159.977043 216.694273 160.803837 215.646338 163.063665 214.216371 162.236871"></polygon>
                        <polygon id="Fill-118" fill="#878787" points="267.171237 240.278269 268.698986 239.394913 261.922087 235.475802 260.394338 236.359538"></polygon>
                        <polygon id="Fill-120" fill="#3F3F3F" points="267.171237 245.578597 267.171237 240.278079 260.394338 236.359348 260.394338 241.659866"></polygon>
                        <polygon id="Fill-122" fill="#616161" points="268.698796 239.394875 267.171047 240.278231 267.171047 245.578749 268.698796 244.695392"></polygon>
                        <polygon id="Fill-124" fill="#007B3C" points="293.546756 140.327736 309.365458 131.180234 373.331562 168.170732 349.180166 182.137025 334.634525 164.088009"></polygon>
                        <polygon id="Fill-126" fill="#D8AE00" opacity="0.402287138" points="189.122213 267.637412 59.3734578 345.193591 151.976044 370.24796 203.90435 284.339186 203.90435 276.182091"></polygon>
                        <polygon id="Fill-128" fill="#D8AE00" opacity="0.402287138" points="139.520588 238.976733 9.7718328 316.532911 102.374419 341.58728 154.447503 255.70394 154.447124 247.547225"></polygon>
                        <path d="M153.997289,361.580097 C153.997289,377.828235 131.344459,391 103.400789,391 C75.4571187,391 52.8042887,377.828235 52.8042887,361.580097 C52.8042887,345.331959 75.4571187,332.160194 103.400789,332.160194 C131.344459,332.160194 153.997289,345.331959 153.997289,361.580097" id="Fill-130" fill="#D8AE00"></path>
                        <path d="M102.832289,333.109223 C102.832289,349.357361 80.1794587,362.529126 52.2357887,362.529126 C24.2921187,362.529126 1.6392887,349.357361 1.6392887,333.109223 C1.6392887,316.861085 24.2921187,303.68932 52.2357887,303.68932 C80.1794587,303.68932 102.832289,316.861085 102.832289,333.109223" id="Fill-132" fill="#D8AE00"></path>
                        <polygon id="Fill-134" fill="#231F20" opacity="0.248584692" points="69.7168226 187.601003 55.3993396 207.023453 40.7339346 207.507079 32.3224086 220.5847 22.0966096 220.707694 0.0001516 238.457576 60.1936896 231.145496 60.9099996 226.557889 95.9144396 224.9248 96.9267486 219.19684 135.032167 215.801213 146.266864 207.431915 125.529121 199.67569 139.531655 194.929406 135.481661 192.534815 120.245861 197.699432 99.2712426 189.854378"></polygon>
                        <polygon id="Fill-136" fill="#087C39" points="139.531844 194.929254 140.045768 147.452364 143.879353 143.372298 143.411667 192.669426"></polygon>
                        <polygon id="Fill-138" fill="#006027" points="140.045768 147.452288 135.984783 142.69006 135.481471 192.534967 139.531844 194.929178"></polygon>
                        <polygon id="Fill-140" fill="#037C34" points="104.588537 171.999078 124.884366 99.5410837 149.080484 99.0430332 164.056669 174.813898"></polygon>
                        <polygon id="Fill-142" fill="#006027" points="84.2574608 138.213603 104.588537 171.99904 124.884366 99.5410457 110.188641 90.0173486"></polygon>
                        <polygon id="Fill-144" fill="#009548" points="164.05682 174.813746 199.511512 150.334869 168.104919 90.0172348 149.080635 99.0428814"></polygon>
                        <polygon id="Fill-146" fill="#00672A" points="97.8352116 97.9800826 123.218358 54.3346127 133.447189 61.225703 125.593551 116.425033"></polygon>
                        <polygon id="Fill-148" fill="#02893F" points="179.89144 89.3000724 158.801606 54.3344229 146.852494 60.5475268 165.673634 111.678179"></polygon>
                        <polygon id="Fill-150" fill="#037C34" points="125.593513 116.425033 165.6739 111.677989 146.852381 60.5477166 133.447151 61.225703"></polygon>
                        <polygon id="Fill-152" fill="#006B2B" points="110.128342 49.6552917 119.606753 66.7438898 143.30297 0.152414078"></polygon>
                        <g id="Group-156" transform="translate(143.262000, 0.000000)">
                            <mask id="mask-2" fill="white">
                                <use xlink:href="#path-1"></use>
                            </mask>
                            <g id="Clip-155"></g>
                            <polygon id="Fill-154" fill="#009548" mask="url(#mask-2)" points="31.5905596 58.7421317 0.0410836 0.152110388 7.0821456 72.7114609"></polygon>
                        </g>
                        <g id="Group-159" transform="translate(119.385000, 0.000000)">
                            <mask id="mask-4" fill="white">
                                <use xlink:href="#path-3"></use>
                            </mask>
                            <g id="Clip-158"></g>
                            <polygon id="Fill-157" fill="#008235" mask="url(#mask-4)" points="0.2217908 66.7440037 30.9590698 72.7114988 23.9180078 0.15214835"></polygon>
                        </g>
                        <polygon id="Fill-160" fill="#000000" opacity="0.248584692" points="119.606791 66.7440037 131.494884 74.2872668 153.696704 78.2519309 170.735407 73.9425794 164.788897 64.4822775 150.34407 72.7114988"></polygon>
                        <polygon id="Fill-162" fill="#000000" opacity="0.248584692" points="97.8352116 97.9800826 120.422475 115.257348 126.274235 119.854445 153.614158 122.152993 182.725527 118.130628 173.087557 99.8576418 165.673938 111.678369 125.593551 116.425033"></polygon>
                        <polygon id="Fill-164" fill="#007B3C" points="276.090244 183.143907 235.026731 159.341497 251.213063 150.094537 292.201913 173.850634"></polygon>
                    </g>
                </g>
            </g>
        </g>
    </g>
</svg>