<?xml version="1.0" encoding="UTF-8"?>
<svg width="214px" height="173px" viewBox="0 0 214 173" version="1.1" xmlns="http://www.w3.org/2000/svg" xmlns:xlink="http://www.w3.org/1999/xlink">
    <!-- Generator: Sketch 46.2 (44496) - http://www.bohemiancoding.com/sketch -->
    <title>Group 2</title>
    <desc>Created with Sketch.</desc>
    <defs></defs>
    <g id="Page-1" stroke="none" stroke-width="1" fill="none" fill-rule="evenodd">
        <g id="Extra-Small-Devices-Copy" transform="translate(-90.000000, -9721.000000)" fill-rule="nonzero">
            <g id="Group-2" transform="translate(90.000000, 9721.000000)">
                <g id="XMLID_86_">
                    <polygon id="XMLID_106_" fill="#231F20" opacity="0.2" points="69.5764864 127.31094 59.8724674 140.505855 49.9291713 140.825732 46.7653953 145.730508 38.2843486 145.090755 30.4413744 155.726656 22.4122958 155.99322 17.8128567 163.16379 12.2297225 163.217103 0.132931766 172.946687 33.0734234 168.948228 33.4722187 166.442527 52.6409794 165.53621 53.1992928 162.390755 74.0429937 160.551464 80.2110277 155.966564 73.1922304 153.300924 87.3361703 152.661171 88.0274155 148.769337 113.842764 146.450231 121.473048 140.772419 107.408867 135.521109 116.900195 132.295686 114.161801 130.669646 103.819709 134.161633 89.5960103 128.857011"></polygon>
                    <g id="XMLID_87_" transform="translate(79.227333, 0.000000)">
                        <g id="XMLID_102_" transform="translate(32.435351, 65.841294)">
                            <polygon id="XMLID_105_" fill="#2D2D2D" points="4.86530264 0.0799691834 10.4484368 3.33204931 5.60972053 6.10431433 0.0265863532 2.85223421"></polygon>
                            <polygon id="XMLID_104_" fill="#087C39" points="5.23751158 66.4543914 5.58313418 34.2268105 8.18859679 31.4545455 7.86956055 64.9083205"></polygon>
                            <polygon id="XMLID_103_" fill="#006027" points="5.58313418 34.2268105 2.84473979 31.0013867 2.4991172 64.8283513 5.23751158 66.4543914"></polygon>
                        </g>
                        <g id="XMLID_98_" transform="translate(0.000000, 61.043143)">
                            <polygon id="XMLID_101_" fill="#008235" points="13.9844218 55.685208 27.7561528 6.50416025 44.1599327 6.15762712 54.2893333 57.6044684"></polygon>
                            <polygon id="XMLID_100_" fill="#006B2B" points="0.186104473 32.7607088 13.9844218 55.685208 27.7561528 6.50416025 17.7862703 0.0533127889"></polygon>
                            <polygon id="XMLID_99_" fill="#009548" points="54.2893333 57.6044684 78.3499829 40.9708783 57.054314 0.0533127889 44.1599327 6.15762712"></polygon>
                        </g>
                        <g id="XMLID_94_" transform="translate(9.305224, 36.785824)">
                            <polygon id="XMLID_97_" fill="#006B2B" points="0.106345413 29.6952234 17.3077159 0.0799691834 24.2467541 4.77149461 18.9294835 42.2237288"></polygon>
                            <polygon id="XMLID_96_" fill="#009548" points="55.7249963 23.8041602 41.4215383 0.0799691834 33.3392869 4.29167951 46.1007365 38.9983051"></polygon>
                            <polygon id="XMLID_95_" fill="#008235" points="18.9294835 42.2237288 46.1007365 38.9983051 33.3392869 4.29167951 24.2467541 4.77149461"></polygon>
                        </g>
                        <g id="XMLID_90_" transform="translate(17.546993, 0.000000)">
                            <polygon id="XMLID_93_" fill="#006B2B" points="0.186104473 33.6936826 6.62000195 45.2892142 22.6781593 0.106625578"></polygon>
                            <polygon id="XMLID_92_" fill="#009548" points="44.0801736 39.8513097 22.6781593 0.106625578 27.4637029 49.3409861"></polygon>
                            <polygon id="XMLID_91_" fill="#008235" points="6.62000195 45.2892142 27.4637029 49.3409861 22.6781593 0.106625578"></polygon>
                        </g>
                        <polygon id="XMLID_89_" fill="#000000" opacity="0.14" points="24.1669951 45.2892142 32.2226601 50.4072419 47.270536 53.0995378 58.8355997 50.1673344 54.794474 43.7431433 45.010696 49.3409861"></polygon>
                        <polygon id="XMLID_88_" fill="#000000" opacity="0.22" points="9.41156904 66.4810478 24.7253085 78.2098613 28.6866751 81.3286595 47.2173633 82.9013867 66.9710238 80.1557781 60.4307809 67.7605547 55.4059601 75.7841294 28.2347071 79.0095532"></polygon>
                    </g>
                </g>
                <g id="XMLID_23_" transform="translate(178.000000, 17.000000)">
                    <g id="XMLID_57_" transform="translate(10.172569, 4.827217)">
                        <g id="XMLID_59_" transform="translate(0.000000, 0.536357)">
                            <g id="XMLID_60_">
                                <g id="XMLID_63_" transform="translate(1.070797, 0.000000)" fill="#009548">
                                    <polygon id="XMLID_64_" points="0.99048698 0.187725116 0.99048698 90.9394096 0 91.5025849 0 0.777718336"></polygon>
                                </g>
                                <g id="XMLID_61_" fill="#006B2B">
                                    <polygon id="XMLID_62_" points="1.07079673 91.5025849 0.0803097551 90.9394096 0.0803097551 0.187725116 1.07079673 0.777718336"></polygon>
                                </g>
                            </g>
                        </g>
                        <polygon id="XMLID_58_" fill="#1CB762" points="0.0803097551 0.724082589 1.07079673 0.160907242 2.06128371 0.724082589 1.07079673 1.31407581"></polygon>
                    </g>
                    <g id="XMLID_28_">
                        <g id="XMLID_37_" transform="translate(0.803098, 0.268179)" fill="#008235">
                            <polygon id="XMLID_56_" points="23.8252274 0.214542989 23.8252274 27.595592 0.133849592 41.2995254 0.133849592 13.9184764"></polygon>
                        </g>
                        <g id="XMLID_35_" transform="translate(1.873894, 2.145430)" fill="#1CB762">
                            <polygon id="XMLID_36_" points="21.7639436 0 21.7639436 25.2088012 0.0535398367 37.7595661 0.0535398367 12.5507649"></polygon>
                        </g>
                        <g id="XMLID_33_" transform="translate(2.676992, 3.754502)" fill="#008235">
                            <polygon id="XMLID_34_" points="19.9703591 0.0536357473 19.9703591 23.0901892 0.240929265 34.4877855 0.240929265 11.451232"></polygon>
                        </g>
                        <g id="XMLID_31_" transform="translate(0.000000, 13.677116)" fill="#006B2B">
                            <polygon id="XMLID_32_" points="0.936947143 27.8905886 0.0803097551 27.381049 0.0803097551 0 0.936947143 0.509539599"></polygon>
                        </g>
                        <g id="XMLID_29_" fill="#1CB762">
                            <polygon id="XMLID_30_" points="0.936947143 14.1866552 0.0803097551 13.6771156 23.7716875 0 24.6283249 0.482721726"></polygon>
                        </g>
                    </g>
                    <g id="XMLID_24_" transform="translate(7.763276, 11.263507)" fill="#1CB762">
                        <path d="M8.94115274,0.214542989 C9.87809988,0.563175347 10.3599584,1.63589029 10.3599584,3.40586995 C10.3599584,5.25630324 9.87809988,6.94582928 8.86084298,8.50126595 C7.870356,10.0567026 6.45155033,11.3707784 4.60442596,12.4166755 L3.26593004,13.1943938 L3.29269996,19.2820512 L0.133849592,21.1056666 L0.0803097551,4.02268105 L4.81858531,1.28725794 C6.61216984,0.214542989 8.00420559,-0.134089368 8.94115274,0.214542989 Z M6.45155033,7.69672974 C6.93340886,6.97264715 7.17433812,6.19492881 7.17433812,5.36357473 C7.17433812,4.50540277 6.96017878,3.99586317 6.55863,3.83495593 C6.15708123,3.67404869 5.51460318,3.83495593 4.6579658,4.31767766 L3.23916012,5.14903174 L3.26593004,10.2176099 L4.30995686,9.62761664 C5.246904,9.06444129 5.9696918,8.42081233 6.45155033,7.69672974 L6.45155033,7.69672974 Z" id="XMLID_25_"></path>
                    </g>
                </g>
                <polygon id="XMLID_149_" fill="#231F20" opacity="0.2" points="142 128.618045 157.783582 122.879699 159.537313 123.854135 188.001722 113 189 113.568421 160.859357 124.476692 162.046498 125.180451 145.93915 131"></polygon>
                <g id="XMLID_128_" transform="translate(161.000000, 117.000000)">
                    <polygon id="XMLID_147_" fill="#231F20" opacity="0.2" points="48.7069307 30.7072222 42.3712871 33.1962889 43.360396 33.7465036 38.4148515 35.6591548 0.187128713 14.0173753 3.98316832 11.8689178 9.62376238 9.66805888 10.3990099 12.288129 44.670297 30.2094089 44.670297 31.0478314 47.3970297 29.9736026"></polygon>
                    <g id="XMLID_129_" transform="translate(6.950495, 0.000000)">
                        <g id="XMLID_145_" transform="translate(2.940594, 5.502147)" fill="#009548">
                            <polygon id="XMLID_146_" points="0.187128713 5.73795364 32.9346535 24.2618497 42.9594059 18.5762974 10.1851485 0.0786021047 0.133663366 5.52834803"></polygon>
                        </g>
                        <g id="XMLID_143_" transform="translate(0.000000, 0.786021)" fill="#006B2B">
                            <polygon id="XMLID_144_" points="0.106930693 0.131003508 3.44851485 11.502108 36.409901 30.1570075 33.0683168 18.785903"></polygon>
                        </g>
                        <g id="XMLID_141_" transform="translate(32.881188, 18.864505)" fill="#008235">
                            <polygon id="XMLID_142_" points="0.187128713 0.707418942 3.52871287 12.0785234 13.0188119 6.7073796 13.0188119 5.21393961 4.41089109 10.0872701 1.47029703 0"></polygon>
                        </g>
                        <g id="XMLID_139_" fill="#1CB762">
                            <polygon id="XMLID_140_" points="33.0683168 19.5719241 34.3514851 18.8645051 1.39009901 0.209605613 0.106930693 0.917024555"></polygon>
                        </g>
                        <g id="XMLID_136_" transform="translate(40.366337, 26.986723)">
                            <polygon id="XMLID_138_" fill="#009548" points="2.7 0.183404911 1.39009901 0.943225257 1.39009901 3.72049962 2.7 2.98687998"></polygon>
                            <polygon id="XMLID_137_" fill="#006B2B" points="1.39009901 3.72049962 0.0801980198 2.98687998 0.0801980198 1.6768449 1.39009901 0.943225257"></polygon>
                        </g>
                        <g id="XMLID_133_" transform="translate(35.019802, 30.130807)">
                            <polygon id="XMLID_135_" fill="#009548" points="2.7 0.0786021047 1.39009901 0.812221749 1.39009901 3.61569682 2.7 2.88207717"></polygon>
                            <polygon id="XMLID_134_" fill="#006B2B" points="1.39009901 3.61569682 0.0801980198 2.88207717 0.0801980198 0.0786021047 1.39009901 0.812221749"></polygon>
                        </g>
                        <g id="XMLID_130_" transform="translate(3.207921, 12.052323)">
                            <polygon id="XMLID_132_" fill="#008235" points="2.83366337 1.7292463 1.55049505 0.969425958 1.55049505 3.77290103 2.83366337 3.03928138"></polygon>
                            <polygon id="XMLID_131_" fill="#006B2B" points="1.55049505 3.77290103 0.240594059 3.03928138 0.240594059 0.235806314 1.55049505 0.969425958"></polygon>
                        </g>
                    </g>
                </g>
                <g id="XMLID_66_" transform="translate(46.000000, 42.000000)">
                    <g id="XMLID_67_">
                        <g id="XMLID_82_" transform="translate(26.127022, 53.044818)">
                            <polygon id="XMLID_85_" fill="#2D2D2D" points="3.91905337 0.0795672272 8.42463173 2.67876331 4.50557836 4.90664568 0 2.30744959"></polygon>
                            <polygon id="XMLID_84_" fill="#087C39" points="4.21231587 53.3896094 4.50557836 27.5037382 6.6117363 25.2758558 6.34513403 52.1695786"></polygon>
                            <polygon id="XMLID_83_" fill="#006027" points="4.50557836 27.5037382 2.26611929 24.9045421 1.99951702 52.0900114 4.21231587 53.3896094"></polygon>
                        </g>
                        <g id="XMLID_78_" transform="translate(0.000000, 49.066457)">
                            <polygon id="XMLID_81_" fill="#008235" points="11.1439749 44.8759161 22.2879498 5.35752663 35.591403 5.09230254 43.802753 46.4142159"></polygon>
                            <polygon id="XMLID_80_" fill="#006B2B" points="0 26.4428418 11.1439749 44.8759161 22.2879498 5.35752663 14.2365612 0.159134454"></polygon>
                            <polygon id="XMLID_79_" fill="#009548" points="43.802753 46.4142159 63.2647187 33.0734441 46.042212 0.159134454 35.591403 5.09230254"></polygon>
                        </g>
                        <g id="XMLID_74_" transform="translate(7.198261, 29.705098)">
                            <polygon id="XMLID_77_" fill="#006B2B" points="0.239942043 23.8701682 14.1832408 0.0795672272 19.8085487 3.8192269 15.4895919 33.9221612"></polygon>
                            <polygon id="XMLID_76_" fill="#009548" points="45.2957257 19.1491793 33.7251872 0.0795672272 27.1667713 3.44791318 37.5109394 31.3494875"></polygon>
                            <polygon id="XMLID_75_" fill="#008235" points="15.4895919 33.9221612 37.5109394 31.3494875 27.1667713 3.44791318 19.8085487 3.8192269"></polygon>
                        </g>
                        <g id="XMLID_70_" transform="translate(14.129920, 0.000000)">
                            <polygon id="XMLID_73_" fill="#006B2B" points="0.079980681 27.2119917 5.27872495 36.5478797 18.2889157 0.238701682"></polygon>
                            <polygon id="XMLID_72_" fill="#009548" points="35.6180633 32.1716822 18.2889157 0.238701682 22.1546486 39.7836136"></polygon>
                            <polygon id="XMLID_71_" fill="#008235" points="5.27872495 36.5478797 22.1546486 39.7836136 18.2889157 0.238701682"></polygon>
                        </g>
                        <polygon id="XMLID_69_" fill="#000000" opacity="0.14" points="19.4086453 36.5478797 25.9404009 40.6588531 38.1241246 42.8071682 47.4818643 40.4731962 44.2026564 35.3013265 36.2845689 39.7836136"></polygon>
                        <polygon id="XMLID_68_" fill="#000000" opacity="0.22" points="7.43820333 53.5752663 19.8618691 62.9907215 23.0610964 65.5103504 38.0708042 66.7569036 54.0669404 64.5555436 48.7615552 54.6096402 44.7092007 61.0545857 22.6878532 63.6272593"></polygon>
                    </g>
                </g>
            </g>
        </g>
    </g>
</svg>