<?xml version="1.0" encoding="UTF-8"?>
<svg width="390px" height="80px" viewBox="0 0 390 80" version="1.1" xmlns="http://www.w3.org/2000/svg" xmlns:xlink="http://www.w3.org/1999/xlink">
    <!-- Generator: Sketch 46.2 (44496) - http://www.bohemiancoding.com/sketch -->
    <title>КАСКО</title>
    <desc>Created with Sketch.</desc>
    <defs></defs>
    <g id="Page-1" stroke="none" stroke-width="1" fill="none" fill-rule="evenodd">
        <g id="KASKO_1-Copy-2" transform="translate(-768.000000, -429.000000)" fill="#CED1D2">
            <path d="M785.679558,507.674033 L785.679558,470.878453 L812.088398,507.674033 L834.519337,507.674033 L803.138122,466.016575 L832.198895,430.325967 L810.983425,430.325967 L785.679558,464.027624 L785.679558,430.325967 L768,430.325967 L768,507.674033 L785.679558,507.674033 Z M855.762431,507.674033 L837.972376,507.674033 L870.127072,430.325967 L885.928177,430.325967 L918.082873,507.674033 L899.187845,507.674033 L892.779006,491.430939 L862.171271,491.430939 L855.762431,507.674033 Z M886.149171,474.856354 L877.530387,452.977901 L868.801105,474.856354 L886.149171,474.856354 Z M982.309392,486.790055 C977.337017,490.546961 971.701657,492.425414 965.513812,492.425414 C958.552486,492.425414 952.917127,490.21547 948.607735,485.906077 C944.298343,481.486188 942.088398,475.850829 942.088398,469 C942.088398,461.596685 944.077348,455.850829 948.165746,451.762431 C952.254144,447.674033 957.447514,445.574586 963.745856,445.574586 C969.049724,445.574586 974.353591,447.121547 979.546961,450.325967 L987.392265,437.066298 C982.530387,432.314917 973.58011,429 963.745856,429 C950.928177,429 940.983425,432.756906 933.911602,440.270718 C926.839779,447.78453 923.303867,457.39779 923.303867,469 C923.303867,481.044199 927.060773,490.657459 934.574586,498.060773 C942.088398,505.353591 951.812155,509 963.856354,509 C969.049724,509 973.911602,508.226519 978.552486,506.569061 C983.19337,504.911602 986.729282,502.701657 989.049724,500.049724 L982.309392,486.790055 Z M1022.33702,507.674033 L1022.33702,470.878453 L1048.74586,507.674033 L1071.1768,507.674033 L1039.79558,466.016575 L1068.85635,430.325967 L1047.64088,430.325967 L1022.33702,464.027624 L1022.33702,430.325967 L1004.65746,430.325967 L1004.65746,507.674033 L1022.33702,507.674033 Z M1075.07182,469 C1075.07182,457.618785 1078.82873,448.116022 1086.45304,440.491713 C1094.07735,432.867403 1104.0221,429 1116.1768,429 C1128.22099,429 1138.05525,432.646409 1145.67956,439.939227 C1153.41436,447.232044 1157.28177,456.955801 1157.28177,469 C1157.28177,480.60221 1153.41436,490.21547 1145.56906,497.729282 C1137.83425,505.243094 1128,509 1116.1768,509 C1104.1326,509 1094.29834,505.353591 1086.56354,498.060773 C1078.93923,490.767956 1075.07182,481.044199 1075.07182,469 Z M1093.85635,469 C1093.85635,475.629834 1096.0663,481.154696 1100.37569,485.685083 C1104.68508,490.21547 1109.98895,492.425414 1116.1768,492.425414 C1123.24862,492.425414 1128.77348,490.21547 1132.64088,485.906077 C1136.50829,481.486188 1138.49724,475.850829 1138.49724,469 C1138.49724,462.038674 1136.39779,456.403315 1132.0884,452.093923 C1127.77901,447.78453 1122.47514,445.574586 1116.1768,445.574586 C1109.65746,445.574586 1104.35359,447.78453 1100.1547,452.093923 C1095.9558,456.403315 1093.85635,462.038674 1093.85635,469 Z" id="КАСКО"></path>
        </g>
    </g>
</svg>