<?xml version="1.0" encoding="UTF-8"?>
<svg width="1006px" height="240px" viewBox="0 0 1006 240" version="1.1" xmlns="http://www.w3.org/2000/svg" xmlns:xlink="http://www.w3.org/1999/xlink" class="illustration illustration9">
    <g id="Page-1" stroke="none" stroke-width="1" fill="none" fill-rule="evenodd">
        <g id="KASKO_9" transform="translate(-116.000000, -174.000000)" fill-rule="nonzero">
            <g id="Elements" transform="translate(116.000000, 174.000000)">
                <g id="Group-2" transform="translate(758.000000, 40.000000)">
                    <g id="XMLID_86_">
                        <polygon id="XMLID_106_" fill="#231F20" opacity="0.2" points="80.5854241 147.180277 69.3459591 162.434515 57.8293567 162.804314 54.1649832 168.474576 44.3419987 167.734977 35.2580476 180.030817 25.9585451 180.338983 20.6313466 188.628659 14.1648052 188.690293 0.153965273 199.938367 38.30656 195.315871 38.7684558 192.419106 60.9702483 191.371341 61.6169024 187.734977 85.7586573 185.608629 92.902646 180.308166 84.7732795 177.226502 101.155185 176.486903 101.955804 171.987673 131.85586 169.306626 140.693467 162.742681 124.403941 156.671803 135.397061 152.942989 132.225377 151.063174 120.246879 155.100154 103.772594 148.967643"></polygon>
                        <g id="XMLID_87_" transform="translate(91.763303, 0.000000)">
                            <g id="XMLID_102_" transform="translate(37.567527, 76.117103)">
                                <polygon id="XMLID_105_" fill="#2D2D2D" points="5.63512901 0.092449923 12.1016705 3.85208012 6.49733454 7.05701079 0.0307930547 3.29738059"></polygon>
                                <polygon id="XMLID_104_" fill="#087C39" points="6.06623177 76.825886 6.46654148 39.568567 9.48426084 36.3636364 9.11474418 75.0385208"></polygon>
                                <polygon id="XMLID_103_" fill="#006027" points="6.46654148 39.568567 3.29485685 35.8397535 2.89454714 74.9460709 6.06623177 76.825886"></polygon>
                            </g>
                            <g id="XMLID_98_" transform="translate(0.000000, 70.570108)">
                                <polygon id="XMLID_101_" fill="#008235" points="16.1971468 64.375963 32.1479491 7.5192604 51.1472638 7.11864407 62.8794176 66.5947612"></polygon>
                                <polygon id="XMLID_100_" fill="#006B2B" points="0.215551383 37.8736518 16.1971468 64.375963 32.1479491 7.5192604 20.6005536 0.061633282"></polygon>
                                <polygon id="XMLID_99_" fill="#009548" points="62.8794176 66.5947612 90.7471321 47.3651772 66.0818953 0.061633282 51.1472638 7.11864407"></polygon>
                            </g>
                            <g id="XMLID_94_" transform="translate(10.777569, 42.526965)">
                                <polygon id="XMLID_97_" fill="#006B2B" points="0.123172219 34.3297381 20.0462786 0.092449923 28.0832659 5.51617874 21.9246549 48.8135593"></polygon>
                                <polygon id="XMLID_96_" fill="#009548" points="64.5422426 27.5192604 47.9755792 0.092449923 38.6144906 4.9614792 53.3951568 45.0847458"></polygon>
                                <polygon id="XMLID_95_" fill="#008235" points="21.9246549 48.8135593 53.3951568 45.0847458 38.6144906 4.9614792 28.0832659 5.51617874"></polygon>
                            </g>
                            <g id="XMLID_90_" transform="translate(20.323416, 0.000000)">
                                <polygon id="XMLID_93_" fill="#006B2B" points="0.215551383 38.9522342 7.66747061 52.357473 26.2664756 0.123266564"></polygon>
                                <polygon id="XMLID_92_" fill="#009548" points="51.0548847 46.0708783 26.2664756 0.123266564 31.8092255 57.0416025"></polygon>
                                <polygon id="XMLID_91_" fill="#008235" points="7.66747061 52.357473 31.8092255 57.0416025 26.2664756 0.123266564"></polygon>
                            </g>
                            <polygon id="XMLID_89_" fill="#000000" opacity="0.14" points="27.9908867 52.357473 37.3211823 58.2742681 54.7500512 61.3867488 68.14503 57.9969183 63.4644857 50.5701079 52.1326416 57.0416025"></polygon>
                            <polygon id="XMLID_88_" fill="#000000" opacity="0.22" points="10.9007414 76.8567026 28.6375408 90.4160247 33.225706 94.0215716 54.6884651 95.8397535 77.5677047 92.6656394 69.9926133 78.3359014 64.1727259 87.6117103 32.7022241 91.3405239"></polygon>
                        </g>
                    </g>
                    <g id="XMLID_23_" transform="translate(206.000000, 20.000000)">
                        <g id="XMLID_57_" transform="translate(11.800180, 5.566077)">
                            <g id="XMLID_59_" transform="translate(0.000000, 0.618453)">
                                <g id="XMLID_60_">
                                    <g id="XMLID_63_" transform="translate(1.242124, 0.000000)" fill="#009548">
                                        <polygon id="XMLID_64_" points="1.1489649 0.216458552 1.1489649 104.858707 0 105.508083 0 0.896756857"></polygon>
                                    </g>
                                    <g id="XMLID_61_" fill="#006B2B">
                                        <polygon id="XMLID_62_" points="1.24212421 105.508083 0.0931593159 104.858707 0.0931593159 0.216458552 1.24212421 0.896756857"></polygon>
                                    </g>
                                </g>
                            </g>
                            <polygon id="XMLID_58_" fill="#1CB762" points="0.0931593159 0.834911556 1.24212421 0.185535901 2.39108911 0.834911556 1.24212421 1.51520986"></polygon>
                        </g>
                        <g id="XMLID_28_">
                            <g id="XMLID_37_" transform="translate(0.931593, 0.309227)" fill="#008235">
                                <polygon id="XMLID_56_" points="27.6372637 0.247381202 27.6372637 31.8194071 0.155265527 47.6208814 0.155265527 16.0488555"></polygon>
                            </g>
                            <g id="XMLID_35_" transform="translate(2.173717, 2.473812)" fill="#1CB762">
                                <polygon id="XMLID_36_" points="25.2461746 0 25.2461746 29.0672912 0.0621062106 43.5390915 0.0621062106 14.4718003"></polygon>
                            </g>
                            <g id="XMLID_33_" transform="translate(3.105311, 4.329171)" fill="#008235">
                                <polygon id="XMLID_34_" points="23.1656166 0.0618453005 23.1656166 26.6244018 0.279477948 39.7665282 0.279477948 13.2039716"></polygon>
                            </g>
                            <g id="XMLID_31_" transform="translate(0.000000, 15.770552)" fill="#006B2B">
                                <polygon id="XMLID_32_" points="1.08685869 32.1595562 0.0931593159 31.5720259 0.0931593159 0 1.08685869 0.587530354"></polygon>
                            </g>
                            <g id="XMLID_29_" fill="#1CB762">
                                <polygon id="XMLID_30_" points="1.08685869 16.358082 0.0931593159 15.7705516 27.5751575 0 28.5688569 0.556607704"></polygon>
                            </g>
                        </g>
                        <g id="XMLID_24_" transform="translate(9.005401, 12.987513)" fill="#1CB762">
                            <path d="M10.3717372,0.247381202 C11.4585959,0.649375655 12.0175518,1.88628166 12.0175518,3.92717658 C12.0175518,6.06083945 11.4585959,8.00896641 10.2785779,9.80248012 C9.12961296,11.5959938 7.48379838,13.1112037 5.34113411,14.3171871 L3.78847885,15.2139439 L3.81953195,22.2333855 L0.155265527,24.3361257 L0.0931593159,4.63839753 L5.58955896,1.48428721 C7.67011701,0.247381202 9.28487849,-0.154613251 10.3717372,0.247381202 Z M7.48379838,8.87480062 C8.04275428,8.03988906 8.32223222,7.1431322 8.32223222,6.18453005 C8.32223222,5.19500524 8.07380738,4.60747488 7.6080108,4.42193898 C7.14221422,4.23640308 6.39693969,4.42193898 5.40324032,4.97854669 L3.75742574,5.93714884 L3.78847885,11.7815297 L4.99954995,11.1012314 C6.08640864,10.4518558 6.92484248,9.70971217 7.48379838,8.87480062 L7.48379838,8.87480062 Z" id="XMLID_25_"></path>
                        </g>
                    </g>
                    <polygon id="XMLID_149_" fill="#231F20" opacity="0.2" points="165 149.221053 183.134328 142.526316 185.149254 143.663158 217.853042 131 219 131.663158 186.668197 144.389474 188.032147 145.210526 169.525832 152"></polygon>
                    <g id="XMLID_128_" transform="translate(187.000000, 135.000000)">
                        <polygon id="XMLID_147_" fill="#231F20" opacity="0.2" points="55.9227723 35.8250926 48.6485149 38.7290037 49.7841584 39.3709209 44.1059406 41.6023473 0.214851485 16.3536046 4.57326733 13.8470708 11.049505 11.279402 11.939604 14.3361505 51.2881188 35.2443104 51.2881188 36.2224699 54.4188119 34.969203"></polygon>
                        <g id="XMLID_129_" transform="translate(7.980198, 0.000000)">
                            <g id="XMLID_145_" transform="translate(3.376238, 6.419172)" fill="#009548">
                                <polygon id="XMLID_146_" points="0.214851485 6.69427925 37.8138614 28.3054913 49.3237624 21.672347 11.6940594 0.0917024555 0.153465347 6.44973937"></polygon>
                            </g>
                            <g id="XMLID_143_" transform="translate(0.000000, 0.917025)" fill="#006B2B">
                                <polygon id="XMLID_144_" points="0.122772277 0.152837426 3.95940594 13.419126 41.8039604 35.1831754 37.9673267 21.9168869"></polygon>
                            </g>
                            <g id="XMLID_141_" transform="translate(37.752475, 22.008589)" fill="#008235">
                                <polygon id="XMLID_142_" points="0.214851485 0.825322099 4.05148515 14.0916107 14.9475248 7.8252762 14.9475248 6.08292955 5.06435644 11.7684818 1.68811881 0"></polygon>
                            </g>
                            <g id="XMLID_139_" fill="#1CB762">
                                <polygon id="XMLID_140_" points="37.9673267 22.8339114 39.4405941 22.0085893 1.5960396 0.244539881 0.122772277 1.06986198"></polygon>
                            </g>
                            <g id="XMLID_136_" transform="translate(46.346535, 31.484510)">
                                <polygon id="XMLID_138_" fill="#009548" points="3.1 0.213972396 1.5960396 1.10042947 1.5960396 4.34058289 3.1 3.48469331"></polygon>
                                <polygon id="XMLID_137_" fill="#006B2B" points="1.5960396 4.34058289 0.0920792079 3.48469331 0.0920792079 1.95631905 1.5960396 1.10042947"></polygon>
                            </g>
                            <g id="XMLID_133_" transform="translate(40.207921, 35.152608)">
                                <polygon id="XMLID_135_" fill="#009548" points="3.1 0.0917024555 1.5960396 0.94759204 1.5960396 4.21831295 3.1 3.36242337"></polygon>
                                <polygon id="XMLID_134_" fill="#006B2B" points="1.5960396 4.21831295 0.0920792079 3.36242337 0.0920792079 0.0917024555 1.5960396 0.94759204"></polygon>
                            </g>
                            <g id="XMLID_130_" transform="translate(3.683168, 14.061043)">
                                <polygon id="XMLID_132_" fill="#008235" points="3.25346535 2.01745402 1.78019802 1.13099695 1.78019802 4.40171786 3.25346535 3.54582828"></polygon>
                                <polygon id="XMLID_131_" fill="#006B2B" points="1.78019802 4.40171786 0.276237624 3.54582828 0.276237624 0.275107366 1.78019802 1.13099695"></polygon>
                            </g>
                        </g>
                    </g>
                    <g id="XMLID_66_" transform="translate(53.000000, 49.000000)">
                        <g id="XMLID_67_">
                            <g id="XMLID_82_" transform="translate(30.209370, 61.472499)">
                                <polygon id="XMLID_85_" fill="#2D2D2D" points="4.53140546 0.0922087492 9.74098044 3.10436122 5.20957498 5.6862062 0 2.67405373"></polygon>
                                <polygon id="XMLID_84_" fill="#087C39" points="4.87049022 61.8720707 5.20957498 31.873491 7.64482009 29.291646 7.33656122 60.4582033"></polygon>
                                <polygon id="XMLID_83_" fill="#006027" points="5.20957498 31.873491 2.62020043 28.8613385 2.31194156 60.3659945 4.87049022 61.8720707"></polygon>
                            </g>
                            <g id="XMLID_78_" transform="translate(0.000000, 56.862062)">
                                <polygon id="XMLID_81_" fill="#008235" points="12.885221 52.0057346 25.7704419 6.20872245 41.1525598 5.90135995 50.6469331 53.7884371"></polygon>
                                <polygon id="XMLID_80_" fill="#006B2B" points="0 30.644041 12.885221 52.0057346 25.7704419 6.20872245 16.4610239 0.184417498"></polygon>
                                <polygon id="XMLID_79_" fill="#009548" points="50.6469331 53.7884371 73.149831 38.3281034 53.2363077 0.184417498 41.1525598 5.90135995"></polygon>
                            </g>
                            <g id="XMLID_74_" transform="translate(8.322990, 34.424600)">
                                <polygon id="XMLID_77_" fill="#006B2B" points="0.277432987 27.6626248 16.3993721 0.0922087492 22.9036344 4.42601996 17.9098406 39.3116634"></polygon>
                                <polygon id="XMLID_76_" fill="#009548" points="52.3731828 22.1915723 38.9947476 0.0922087492 31.4115793 3.99571247 43.3720237 36.3302472"></polygon>
                                <polygon id="XMLID_75_" fill="#008235" points="17.9098406 39.3116634 43.3720237 36.3302472 31.4115793 3.99571247 22.9036344 4.42601996"></polygon>
                            </g>
                            <g id="XMLID_70_" transform="translate(16.337720, 0.000000)">
                                <polygon id="XMLID_73_" fill="#006B2B" points="0.0924776624 31.5353922 6.10352572 42.3545522 21.1465588 0.276626248"></polygon>
                                <polygon id="XMLID_72_" fill="#009548" points="41.1833857 37.2830709 21.1465588 0.276626248 25.6163125 46.1043746"></polygon>
                                <polygon id="XMLID_71_" fill="#008235" points="6.10352572 42.3545522 25.6163125 46.1043746 21.1465588 0.276626248"></polygon>
                            </g>
                            <polygon id="XMLID_69_" fill="#000000" opacity="0.14" points="22.4412461 42.3545522 29.9935885 47.1186709 44.0810191 49.6083071 54.9009056 46.9035171 51.1093214 40.9099484 41.9540328 46.1043746"></polygon>
                            <polygon id="XMLID_68_" fill="#000000" opacity="0.22" points="8.6004226 62.0872245 22.9652862 72.9985932 26.6643927 75.9185369 44.0193673 77.3631406 62.5148998 74.8120319 56.3805482 63.2859382 51.6950133 70.7548469 26.2328302 73.7362631"></polygon>
                        </g>
                    </g>
                </g>
                <g id="XMLID_107_">
                    <g id="Group">
                        <polygon id="XMLID_127_" fill="#231F20" opacity="0.2" points="35.2708209 95 28.0215698 104.924007 20.617136 105.170984 16.360695 111.861831 11.1731576 111.929188 0 121 30.4601558 117.272884 30.8148592 114.915371 48.527861 114.084629 49.0377472 111.165803 68.3247454 109.414508 74 105.126079 63.5140803 101.174439 70.5859796 98.7495682 68.546435 97.5146805 60.8316357 100.164076 50.2127022 96.1450777"></polygon>
                        <g id="XMLID_108_" transform="translate(43.000000, 0.000000)">
                            <g id="XMLID_123_" transform="translate(24.139865, 49.409348)">
                                <polygon id="XMLID_126_" fill="#2D2D2D" points="3.6320531 0.156500196 7.79562616 2.59343183 4.18571973 4.67264872 0.0221466652 2.23571709"></polygon>
                                <polygon id="XMLID_125_" fill="#087C39" points="3.89781308 49.9906342 4.16357306 25.8001752 6.1124796 23.7209583 5.86886628 48.8280613"></polygon>
                                <polygon id="XMLID_124_" fill="#006027" points="4.16357306 25.8001752 2.1039332 23.3632436 1.86031988 48.7609898 3.89781308 49.9906342"></polygon>
                            </g>
                            <g id="XMLID_119_" transform="translate(0.000000, 45.832200)">
                                <polygon id="XMLID_122_" fill="#008235" points="10.386786 41.8749811 20.640692 4.96329194 32.8656512 4.71736306 40.4398107 43.3058401"></polygon>
                                <polygon id="XMLID_121_" fill="#006B2B" points="0.110733326 24.6599595 10.386786 41.8749811 20.640692 4.96329194 13.2215591 0.111785855"></polygon>
                                <polygon id="XMLID_120_" fill="#009548" points="40.4398107 43.3058401 58.3564628 30.8305387 42.4773039 0.111785855 32.8656512 4.71736306"></polygon>
                            </g>
                            <g id="XMLID_115_" transform="translate(6.865466, 27.722892)">
                                <polygon id="XMLID_118_" fill="#006B2B" points="0.110733326 22.2900994 12.9336525 0.0447143418 18.0938255 3.55479017 14.1295724 31.6801112"></polygon>
                                <polygon id="XMLID_117_" fill="#009548" points="41.5692906 17.8633796 30.9167446 0.0447143418 24.870705 3.21943261 34.3937711 29.2655367"></polygon>
                                <polygon id="XMLID_116_" fill="#008235" points="14.1295724 31.6801112 34.3937711 29.2655367 24.870705 3.21943261 18.0938255 3.55479017"></polygon>
                            </g>
                            <g id="XMLID_111_" transform="translate(13.066532, 0.000000)">
                                <polygon id="XMLID_114_" fill="#006B2B" points="0.110733326 25.375389 4.91655968 34.0946856 16.8757589 0.178857367"></polygon>
                                <polygon id="XMLID_113_" fill="#009548" points="32.8213579 30.0256805 16.8757589 0.178857367 20.441372 37.1352609"></polygon>
                                <polygon id="XMLID_112_" fill="#008235" points="4.91655968 34.0946856 20.441372 37.1352609 16.8757589 0.178857367"></polygon>
                            </g>
                            <polygon id="XMLID_110_" fill="#000000" opacity="0.14" points="17.9830922 34.0946856 23.9848384 37.940119 35.2131977 39.9522644 43.8061038 37.7612617 40.816304 32.9321128 33.5079045 37.1352609"></polygon>
                            <polygon id="XMLID_109_" fill="#000000" opacity="0.22" points="6.97619954 50.0129913 18.3817321 58.7993595 21.3493853 61.1468624 35.1689044 62.3094353 49.8742901 60.2749328 45.0020237 50.9519925 41.2592373 56.9884287 20.9950386 59.4030031"></polygon>
                        </g>
                    </g>
                </g>
            </g>
        </g>
    </g>
</svg>