<?xml version="1.0" encoding="utf-8"?>
<svg version="1.1" id="Layer_1" xmlns="http://www.w3.org/2000/svg"  x="0px" y="0px"
	 viewBox="0 0 750 610" style="enable-background:new 0 0 750 610;" xml:space="preserve" class="illustration illustration6">
<g class="trees6">
	<g class="tree61">
	<g id="_x31__1_">
		<polygon id="XMLID_356_" class="st0" points="299.5,318.2 289,332.3 278.4,332.6 272.2,342.1 264.8,342.2 248.7,355.1
			292.5,349.8 293.1,346.5 318.5,345.3 319.3,341.1 347,338.7 355.2,332.6 340.1,326.9 350.3,323.5 347.4,321.7 336.3,325.5
			321,319.8 		"/>
		<g id="XMLID_20_">
			<g id="XMLID_33_">
				<g id="XMLID_221_">
					<polygon id="XMLID_355_" class="st1" points="350.3,323.5 350.7,289 353.5,286 353.1,321.8 					"/>
					<polygon id="XMLID_354_" class="st2" points="350.7,289 347.7,285.5 347.4,321.7 350.3,323.5 					"/>
				</g>
				<g id="XMLID_206_">
					<polygon id="XMLID_220_" class="st3" points="324.9,306.8 339.6,254.1 357.3,253.8 368.2,308.9 					"/>
					<polygon id="XMLID_208_" class="st2" points="310.1,282.3 324.9,306.8 339.6,254.1 328.9,247.2 					"/>
					<polygon id="XMLID_207_" class="st4" points="368.2,308.9 394,291.1 371.1,247.2 357.3,253.8 					"/>
				</g>
				<g id="XMLID_202_">
					<polygon id="XMLID_205_" class="st5" points="319.9,253 338.4,221.3 345.9,226.3 340.2,266.4 					"/>
					<polygon id="XMLID_204_" class="st6" points="379.7,246.7 364.3,221.3 355.6,225.8 369.3,263 					"/>
					<polygon id="XMLID_203_" class="st3" points="340.2,266.4 369.3,263 355.6,225.8 345.9,226.3 					"/>
				</g>
				<g id="XMLID_198_">
					<polygon id="XMLID_201_" class="st5" points="328.9,217.9 335.8,230.3 353,181.9 					"/>
					<polygon id="XMLID_200_" class="st4" points="376,224.5 353,181.9 358.2,234.6 					"/>
					<polygon id="XMLID_199_" class="st3" points="335.8,230.3 358.2,234.6 353,181.9 					"/>
				</g>
				<polygon id="XMLID_175_" class="st7" points="345,232.1 335.8,230.3 344.5,235.8 				"/>
				<polygon id="XMLID_179_" class="st8" points="358.2,234.6 345,232.1 344.5,235.8 360.4,238.7 358.8,234.3 				"/>
				<polygon id="XMLID_180_" class="st9" points="373,235.6 368.8,228.6 358.8,234.3 360.4,238.7 				"/>
				<polygon id="XMLID_173_" class="st7" points="336.8,264.2 319.9,253 336.4,265.7 				"/>
				<polygon id="XMLID_176_" class="st8" points="359.3,264.2 340.2,266.4 336.8,264.2 336.4,265.7 340.6,268.9 360.6,270.6 				"/>
				<polygon id="XMLID_177_" class="st9" points="381.7,267.7 374.8,254.3 369.3,263 359.3,264.2 360.6,270.6 				"/>
			</g>
		</g>
	</g>
	<polygon id="XMLID_298_" class="st0" points="214.8,354.4 200.4,373.9 185.7,374.4 177.2,387.5 166.9,387.6 144.7,405.4
		205.2,398.1 205.9,393.5 241.1,391.9 242.1,386.1 280.4,382.7 291.7,374.3 270.9,366.5 284.9,361.8 280.9,359.4 265.6,364.5
		244.5,356.7 	"/>
	<g id="XMLID_11_">
		<g id="XMLID_23_">
			<g id="XMLID_34_">
				<polygon id="XMLID_297_" class="st1" points="284.9,361.8 285.5,314.1 289.3,310 288.8,359.5 				"/>
				<polygon id="XMLID_296_" class="st2" points="285.5,314.1 281.4,309.4 280.9,359.4 284.9,361.8 				"/>
			</g>
			<g id="XMLID_35_">
				<polygon id="XMLID_295_" class="st3" points="249.8,338.8 270.2,266.1 294.5,265.6 309.6,341.6 				"/>
				<polygon id="XMLID_36_" class="st2" points="229.4,304.9 249.8,338.8 270.2,266.1 255.5,256.5 				"/>
				<polygon id="XMLID_37_" class="st4" points="309.6,341.6 345.2,317 313.7,256.5 294.5,265.6 				"/>
			</g>
			<g id="XMLID_56_">
				<polygon id="XMLID_57_" class="st5" points="243,264.5 268.6,220.7 278.8,227.6 270.9,283 				"/>
				<polygon id="XMLID_58_" class="st6" points="325.5,255.8 304.3,220.7 292.3,226.9 311.2,278.2 				"/>
				<polygon id="XMLID_59_" class="st3" points="270.9,283 311.2,278.2 292.3,226.9 278.8,227.6 				"/>
			</g>
			<g id="XMLID_60_">
				<polygon id="XMLID_61_" class="st5" points="255.4,216 264.9,233.2 288.7,166.3 				"/>
				<polygon id="XMLID_62_" class="st4" points="320.4,225.1 288.7,166.3 295.8,239.1 				"/>
				<polygon id="XMLID_63_" class="st3" points="264.9,233.2 295.8,239.1 288.7,166.3 				"/>
			</g>
			<polygon id="XMLID_109_" class="st7" points="277.7,235.6 264.9,233.2 277,240.7 			"/>
			<polygon id="XMLID_88_" class="st8" points="295.8,239.1 277.7,235.6 277,240.7 298.9,244.7 296.6,238.7 			"/>
			<polygon id="XMLID_174_" class="st9" points="316.2,240.4 310.4,230.8 296.6,238.7 298.9,244.7 			"/>
			<polygon id="XMLID_89_" class="st8" points="297.4,279.9 270.9,283 266.3,279.9 265.8,281.9 271.6,286.4 299.1,288.7 			"/>
			<polygon id="XMLID_172_" class="st9" points="328.4,284.7 318.8,266.3 311.2,278.2 297.4,279.9 299.1,288.7 			"/>
			<polygon id="XMLID_171_" class="st7" points="266.3,279.9 243,264.5 265.8,281.9 			"/>
		</g>
	</g>
</g>
	<g class="tree62">
		<g id="XMLID_66_">
			<g id="XMLID_107_">
				<polygon id="XMLID_127_" class="st0" points="-927.2,898 -942.6,918.8 -958.3,919.3 -967.3,933.3 -978.3,933.5 -1002,952.5
					-937.4,944.6 -936.6,939.7 -899.1,938 -898,931.8 -857.1,928.2 -845.1,919.2 -867.3,910.9 -852.3,905.8 -856.6,903.3 -873,908.8
					-895.5,900.4 			"/>
				<g id="XMLID_108_">
					<g id="XMLID_123_">
						<polygon id="XMLID_126_" class="st10" points="-852.9,801.1 -844,806.2 -851.7,810.6 -860.5,805.5 					"/>
						<polygon id="XMLID_125_" class="st1" points="-852.3,905.8 -851.7,855 -847.6,850.6 -848.1,903.4 					"/>
						<polygon id="XMLID_124_" class="st2" points="-851.7,855 -856.1,849.9 -856.6,903.3 -852.3,905.8 					"/>
					</g>
					<g id="XMLID_119_">
						<polygon id="XMLID_122_" class="st3" points="-889.8,881.3 -868,803.7 -842,803.1 -826,884.3 					"/>
						<polygon id="XMLID_121_" class="st5" points="-911.6,845.1 -889.8,881.3 -868,803.7 -883.8,793.5 					"/>
						<polygon id="XMLID_120_" class="st4" points="-826,884.3 -787.9,858.1 -821.6,793.5 -842,803.1 					"/>
					</g>
					<g id="XMLID_115_">
						<polygon id="XMLID_118_" class="st5" points="-897,802 -869.8,755.2 -858.8,762.6 -867.2,821.7 					"/>
						<polygon id="XMLID_117_" class="st4" points="-809,792.7 -831.6,755.2 -844.4,761.9 -824.2,816.7 					"/>
						<polygon id="XMLID_116_" class="st3" points="-867.2,821.7 -824.2,816.7 -844.4,761.9 -858.8,762.6 					"/>
					</g>
					<g id="XMLID_111_">
						<polygon id="XMLID_114_" class="st5" points="-883.8,750.2 -873.7,768.5 -848.2,697.2 					"/>
						<polygon id="XMLID_113_" class="st4" points="-814.4,760 -848.2,697.2 -840.7,774.9 					"/>
						<polygon id="XMLID_112_" class="st3" points="-873.7,768.5 -840.7,774.9 -848.2,697.2 					"/>
					</g>
					<polygon id="XMLID_465_" class="st7" points="-860,771.2 -873.7,768.5 -860.8,776.6 				"/>
					<polygon id="XMLID_463_" class="st8" points="-840.7,774.9 -860,771.2 -860.8,776.6 -837.5,780.8 -839.8,774.4 				"/>
					<polygon id="XMLID_469_" class="st9" points="-818.9,776.3 -825.1,766 -839.8,774.4 -837.5,780.8 				"/>
					<polygon id="XMLID_464_" class="st9" points="-805.9,823.6 -816.1,804 -824.2,816.7 -839,818.4 -837.2,827.9 				"/>
					<polygon id="XMLID_467_" class="st8" points="-839,818.4 -867.2,821.7 -872.2,818.5 -872.7,820.5 -866.5,825.4 -837.2,827.9
										"/>
					<polygon id="XMLID_466_" class="st7" points="-872.2,818.5 -897,802 -872.7,820.5 				"/>
				</g>
			</g>
			<g id="XMLID_86_">
				<polygon id="XMLID_106_" class="st0" points="-783.1,921.4 -800.3,944.6 -817.9,945.2 -823.5,953.9 -838.5,952.7 -852.3,971.5
					-866.5,972 -874.7,984.6 -884.6,984.7 -906,1001.9 -847.7,994.8 -847,990.4 -813.1,988.8 -812.1,983.3 -775.2,980 -764.3,971.9
					-776.7,967.2 -751.7,966.1 -750.5,959.2 -704.8,955.2 -691.4,945.1 -716.2,935.8 -699.4,930.2 -704.3,927.3 -722.6,933.5
					-747.7,924.1 			"/>
				<g id="XMLID_87_">
					<g id="XMLID_102_">
						<polygon id="XMLID_105_" class="st10" points="-700.1,813.1 -690.2,818.8 -698.8,823.7 -708.7,818 					"/>
						<polygon id="XMLID_104_" class="st1" points="-699.4,930.2 -698.8,873.3 -694.2,868.4 -694.8,927.5 					"/>
						<polygon id="XMLID_103_" class="st2" points="-698.8,873.3 -703.7,867.6 -704.3,927.3 -699.4,930.2 					"/>
					</g>
					<g id="XMLID_98_">
						<polygon id="XMLID_101_" class="st3" points="-741.3,902.7 -717,816 -688,815.4 -670,906.1 					"/>
						<polygon id="XMLID_100_" class="st5" points="-765.7,862.3 -741.3,902.7 -717,816 -734.6,804.6 					"/>
						<polygon id="XMLID_99_" class="st4" points="-670,906.1 -627.5,876.8 -665.2,804.6 -688,815.4 					"/>
					</g>
					<g id="XMLID_94_">
						<polygon id="XMLID_97_" class="st5" points="-749.4,814.1 -719,761.9 -706.7,770.1 -716.1,836.2 					"/>
						<polygon id="XMLID_96_" class="st4" points="-651,803.7 -676.3,761.9 -690.7,769.3 -668.1,830.5 					"/>
						<polygon id="XMLID_95_" class="st3" points="-716.1,836.2 -668.1,830.5 -690.7,769.3 -706.7,770.1 					"/>
					</g>
					<g id="XMLID_90_">
						<polygon id="XMLID_93_" class="st5" points="-734.7,756.3 -723.3,776.7 -694.9,697 					"/>
						<polygon id="XMLID_92_" class="st4" points="-657.1,767.1 -694.9,697 -686.5,783.9 					"/>
						<polygon id="XMLID_91_" class="st3" points="-723.3,776.7 -686.5,783.9 -694.9,697 					"/>
					</g>
					<polygon id="XMLID_110_" class="st8" points="-686.5,783.9 -708.1,779.7 -709,785.8 -682.8,790.5 -685.5,783.3 				"/>
					<polygon id="XMLID_477_" class="st9" points="-662.1,785.4 -669,773.9 -685.5,783.3 -682.8,790.5 				"/>
					<polygon id="XMLID_476_" class="st7" points="-708.1,779.7 -723.3,776.7 -709,785.8 				"/>
					<polygon id="XMLID_128_" class="st7" points="-721.6,832.5 -749.4,814.1 -722.3,834.9 				"/>
					<polygon id="XMLID_475_" class="st8" points="-684.6,832.5 -716.1,836.2 -721.6,832.5 -722.3,834.9 -715.3,840.3 -682.6,843
										"/>
					<polygon id="XMLID_474_" class="st9" points="-647.6,838.2 -659.1,816.3 -668.1,830.5 -684.6,832.5 -682.6,843 				"/>
				</g>
			</g>
			<g id="XMLID_67_">
				<g id="XMLID_68_">
					<g id="XMLID_82_">
						<polygon id="XMLID_85_" class="st10" points="-771.4,865.3 -763.4,869.9 -770.3,873.8 -778.3,869.2 					"/>
						<polygon id="XMLID_84_" class="st1" points="-770.9,959.8 -770.4,913.9 -766.6,910 -767.1,957.6 					"/>
						<polygon id="XMLID_83_" class="st2" points="-770.4,913.9 -774.3,909.3 -774.8,957.5 -770.9,959.8 					"/>
					</g>
					<g id="XMLID_78_">
						<polygon id="XMLID_81_" class="st3" points="-804.7,937.7 -785,867.6 -761.6,867.1 -747.1,940.4 					"/>
						<polygon id="XMLID_80_" class="st5" points="-824.4,905 -804.7,937.7 -785,867.6 -799.3,858.4 					"/>
						<polygon id="XMLID_79_" class="st4" points="-747.1,940.4 -712.8,916.7 -743.2,858.4 -761.6,867.1 					"/>
					</g>
					<g id="XMLID_74_">
						<polygon id="XMLID_77_" class="st5" points="-811.2,866.1 -786.6,823.9 -776.7,830.6 -784.3,883.9 					"/>
						<polygon id="XMLID_76_" class="st4" points="-731.8,857.7 -752.2,823.9 -763.8,829.9 -745.5,879.3 					"/>
						<polygon id="XMLID_75_" class="st3" points="-784.3,883.9 -745.5,879.3 -763.8,829.9 -776.7,830.6 					"/>
					</g>
					<g id="XMLID_70_">
						<polygon id="XMLID_73_" class="st5" points="-799.3,819.4 -790.1,835.9 -767.2,771.5 					"/>
						<polygon id="XMLID_72_" class="st4" points="-736.7,828.2 -767.2,771.5 -760.4,841.7 					"/>
						<polygon id="XMLID_71_" class="st3" points="-790.1,835.9 -760.4,841.7 -767.2,771.5 					"/>
					</g>
					<polygon id="XMLID_468_" class="st7" points="-777.8,838.3 -790.1,835.9 -778.5,843.2 				"/>
					<polygon id="XMLID_462_" class="st8" points="-760.4,841.7 -777.8,838.3 -778.5,843.2 -757.4,847.1 -759.6,841.2 				"/>
					<polygon id="XMLID_471_" class="st9" points="-740.7,842.9 -746.3,833.7 -759.6,841.2 -757.4,847.1 				"/>
					<polygon id="XMLID_470_" class="st7" points="-788.8,881 -811.2,866.1 -789.3,882.9 				"/>
					<polygon id="XMLID_461_" class="st9" points="-729,885.6 -738.2,867.9 -745.5,879.3 -758.9,880.9 -757.2,889.5 				"/>
					<polygon id="XMLID_473_" class="st8" points="-758.9,880.9 -784.3,883.9 -788.8,881 -789.3,882.9 -783.7,887.2 -757.2,889.5
										"/>
				</g>
			</g>
		</g>
	</g>
	<g class="tree63">
		<polygon id="XMLID_129_" class="st0" points="-430.3,722 -460.1,725.9 -479.2,719.2 -480.9,695.3 -461.3,682.1 	"/>
		<polygon id="XMLID_130_" class="st0" points="-514.7,731 -529.9,733 -539.7,729.6 -540.5,717.4 -530.5,710.7 	"/>
		<g id="XMLID_131_">
			<g id="XMLID_132_">
				<g id="XMLID_133_">
					<polygon id="XMLID_294_" class="st4" points="-397,651.7 -379.1,694.2 -407.7,692.6 				"/>
					<polygon id="XMLID_293_" class="st5" points="-470.4,673 -438.4,660.5 -444.7,645.1 				"/>
					<polygon id="XMLID_292_" class="st3" points="-430.3,722 -407.7,692.6 -379.1,694.2 				"/>
					<polygon id="XMLID_291_" class="st5" points="-430.3,722 -407.7,692.6 -438.4,660.5 -463.8,705.5 				"/>
					<polygon id="XMLID_290_" class="st4" points="-438.4,660.5 -397,651.7 -444.7,645.1 				"/>
					<polygon id="XMLID_289_" class="st3" points="-470.4,673 -438.4,660.5 -463.8,705.5 				"/>
				</g>
			</g>
			<polygon id="XMLID_134_" class="st3" points="-438.4,660.5 -397,651.7 -407.7,692.6 		"/>
		</g>
		<g id="XMLID_135_">
			<g id="XMLID_136_">
				<g id="XMLID_137_">
					<polygon id="XMLID_288_" class="st4" points="-497.7,695.1 -488.6,716.8 -503.2,716 				"/>
					<polygon id="XMLID_287_" class="st5" points="-535.2,706 -518.9,699.6 -522.1,691.7 				"/>
					<polygon id="XMLID_286_" class="st3" points="-514.7,731 -503.2,716 -488.6,716.8 				"/>
					<polygon id="XMLID_285_" class="st5" points="-514.7,731 -503.2,716 -518.9,699.6 -531.8,722.5 				"/>
					<polygon id="XMLID_284_" class="st5" points="-518.9,699.6 -497.7,695.1 -522.1,691.7 				"/>
					<polygon id="XMLID_283_" class="st4" points="-535.2,706 -518.9,699.6 -531.8,722.5 				"/>
				</g>
			</g>
			<polygon id="XMLID_138_" class="st3" points="-518.9,699.6 -497.7,695.1 -503.2,716 		"/>
		</g>
	</g>
	<g class="tree64">
		<g id="_x32__1_">
			<polygon id="XMLID_166_" class="st0" points="-117.2,585.2 -108.2,588.8 -109.6,589.6 -102.6,592.4 -48.1,560.9 -53.5,557.8
				-61.6,554.6 -62.6,558.4 -111.5,584.4 -111.5,585.7 -115.4,584.1 		"/>
			<g id="XMLID_140_">
				<g id="XMLID_164_">
					<polygon id="XMLID_165_" class="st4" points="-62.2,556.9 -108.9,583.8 -123.1,575.5 -76.4,548.6 -62.1,556.6 				"/>
				</g>
				<g id="XMLID_162_">
					<polygon id="XMLID_163_" class="st5" points="-57.9,541.9 -62.6,558.4 -109.6,585.5 -104.9,569 				"/>
				</g>
				<g id="XMLID_160_">
					<polygon id="XMLID_161_" class="st3" points="-104.9,569 -109.6,585.5 -123.1,577.7 -123.1,575.5 -110.9,582.6 -106.7,567.9
										"/>
				</g>
				<g id="XMLID_158_">
					<polygon id="XMLID_159_" class="st11" points="-104.9,569 -106.7,567.9 -59.7,540.8 -57.9,541.9 				"/>
				</g>
				<g id="XMLID_155_">
					<polygon id="XMLID_157_" class="st4" points="-119.1,580 -117.2,581.1 -117.2,585.2 -119.1,584.1 				"/>
					<polygon id="XMLID_156_" class="st5" points="-117.2,585.2 -115.4,584.1 -115.4,582.2 -117.2,581.1 				"/>
				</g>
				<g id="XMLID_152_">
					<polygon id="XMLID_154_" class="st4" points="-111.5,584.4 -109.6,585.5 -109.6,589.6 -111.5,588.5 				"/>
					<polygon id="XMLID_153_" class="st5" points="-109.6,589.6 -107.7,588.5 -107.7,584.4 -109.6,585.5 				"/>
				</g>
				<g id="XMLID_141_">
					<polygon id="XMLID_151_" class="st3" points="-66.4,560.6 -64.5,559.5 -64.5,563.5 -66.4,562.5 				"/>
					<polygon id="XMLID_150_" class="st5" points="-64.5,563.5 -62.6,562.5 -62.6,558.4 -64.5,559.5 				"/>
				</g>
			</g>
		</g>
		<g id="_x32_">
			<polygon id="XMLID_282_" class="st0" points="-123.1,463.3 -146.1,455 -172.3,458.1 -201,472.1 -199.5,502.1 -174.3,518.2
				-154.7,514.6 -139.3,525.7 -125.1,519.3 -124.1,510.6 -111,504.8 -111,494.7 -123,485.9 -107.2,488.1 -77.6,480.7 -83.5,477.4
				-109.1,484.1 -126.8,480.7 		"/>
			<g id="Group_1_1_">
				<g id="XMLID_143_">
					<g id="XMLID_144_">
						<g id="XMLID_145_">
							<polygon id="XMLID_281_" class="st12" points="-71.9,439 -79.8,448.1 -77.7,480.8 -71.9,477.4 						"/>
							<polygon id="XMLID_280_" class="st13" points="-71.9,439 -79.8,448.1 -84.3,411.4 -81.8,407.7 						"/>
							<polygon id="XMLID_279_" class="st12" points="-90.4,401.7 -92.9,401.2 -84.3,411.4 -81.8,407.7 						"/>
							<polygon id="XMLID_278_" class="st13" points="-85.7,386.7 -88.7,383.5 -92.9,401.2 -90.4,401.7 						"/>
							<polygon id="XMLID_277_" class="st14" points="-87.3,449.1 -83.6,477.4 -77.7,480.8 -79.8,448.1 						"/>
							<polygon id="XMLID_276_" class="st15" points="-87.3,449.1 -85.8,410.8 -84.3,411.4 -79.8,448.1 						"/>
							<polygon id="XMLID_275_" class="st16" points="-95.1,401.7 -90.1,382.3 -88.7,383.5 -92.9,401.2 						"/>
							<polygon id="XMLID_274_" class="st14" points="-92.9,401.2 -95.1,401.7 -85.8,410.8 -84.3,411.4 						"/>
						</g>
						<g id="XMLID_146_">
							<polygon id="XMLID_273_" class="st17" points="-146.9,356.5 -141.2,345.2 -108.6,363 -124.7,383.8 						"/>
							<polygon id="XMLID_272_" class="st18" points="-141.2,345.2 -108.6,363 -130.5,328.1 						"/>
							<polygon id="XMLID_271_" class="st19" points="-44.3,316.5 -44.3,330.1 -78.9,314.8 -74.8,299.4 						"/>
							<polygon id="XMLID_270_" class="st3" points="-44.3,330.1 -44.3,316.5 -27.7,342.8 -27.8,367 						"/>
							<polygon id="XMLID_269_" class="st8" points="-73,395 -90,356.6 -55.4,376.5 						"/>
							<polygon id="XMLID_268_" class="st6" points="-55.4,376.5 -44.3,330.1 -27.8,367 						"/>
							<polygon id="XMLID_267_" class="st20" points="-120.1,302.7 -90,356.6 -78.9,314.8 						"/>
							<polygon id="XMLID_266_" class="st21" points="-90,356.6 -44.3,330.1 -78.9,314.8 						"/>
							<polygon id="XMLID_265_" class="st4" points="-120.1,302.7 -130.5,328.1 -108.6,363 -90,356.6 						"/>
							<polygon id="XMLID_264_" class="st3" points="-73,395 -124.7,383.8 -108.6,363 -90,356.6 						"/>
							<polygon id="XMLID_263_" class="st4" points="-55.4,376.5 -90,356.6 -44.3,330.1 						"/>
						</g>
						<g id="XMLID_147_">
							<g id="XMLID_148_">
								<g id="XMLID_149_">
									<polygon id="XMLID_262_" class="st4" points="-72.7,388.7 -95.1,424.3 -64.2,421.2 								"/>
									<polygon id="XMLID_261_" class="st3" points="-14.3,405.6 -39.8,395.7 -34.7,383.4 								"/>
									<polygon id="XMLID_260_" class="st5" points="-46.3,444.6 -64.2,421.2 -95.1,424.3 								"/>
									<polygon id="XMLID_259_" class="st3" points="-46.3,444.6 -64.2,421.2 -39.8,395.7 -19.6,431.5 								"/>
									<polygon id="XMLID_258_" class="st4" points="-39.8,395.7 -72.7,388.7 -34.7,383.4 								"/>
									<polygon id="XMLID_257_" class="st6" points="-14.3,405.6 -39.8,395.7 -19.6,431.5 								"/>
								</g>
							</g>
							<polygon id="XMLID_256_" class="st22" points="-39.8,395.7 -72.7,388.7 -64.2,421.2 						"/>
						</g>
						<polygon id="XMLID_255_" class="st4" points="-74.8,299.4 -120.1,302.7 -78.9,314.8 					"/>
					</g>
				</g>
			</g>
		</g>
		<g id="XMLID_412_">
			<polygon id="XMLID_254_" class="st0" points="-201.1,596.1 -219.7,598.6 -231.6,594.4 -232.6,579.6 -220.4,571.4 		"/>
			<g id="XMLID_413_">
				<g id="XMLID_167_">
					<g id="XMLID_168_">
						<polygon id="XMLID_253_" class="st4" points="-180.5,552.5 -169.4,578.9 -187.1,577.9 					"/>
						<polygon id="XMLID_252_" class="st5" points="-226.1,565.7 -206.2,558 -210.1,548.4 					"/>
						<polygon id="XMLID_251_" class="st3" points="-201.1,596.1 -187.1,577.9 -169.4,578.9 					"/>
						<polygon id="XMLID_250_" class="st5" points="-201.1,596.1 -187.1,577.9 -206.2,558 -222,585.9 					"/>
						<polygon id="XMLID_249_" class="st4" points="-206.2,558 -180.5,552.5 -210.1,548.4 					"/>
						<polygon id="XMLID_248_" class="st3" points="-226.1,565.7 -206.2,558 -222,585.9 					"/>
					</g>
				</g>
				<polygon id="XMLID_169_" class="st3" points="-206.2,558 -180.5,552.5 -187.1,577.9 			"/>
			</g>
		</g>
	</g>
</g>
<g class="strips6">
	<g id="XMLID_398_">
		<polygon id="XMLID_247_" class="st23" points="656,353.6 690.6,333.6 694.6,335.9 660,355.9 		"/>
		<polygon id="XMLID_246_" class="st23" points="702.9,326.5 737.5,306.6 741.5,308.8 706.9,328.8 		"/>
		<polygon id="XMLID_245_" class="st23" points="749.8,299.5 784.4,279.5 788.4,281.8 753.8,301.8 		"/>
		<polygon id="XMLID_244_" class="st23" points="796.7,272.4 831.3,252.4 835.3,254.7 800.7,274.7 		"/>
		<polygon id="XMLID_243_" class="st23" points="843.7,245.3 878.3,225.3 882.3,227.6 847.6,247.6 		"/>
		<polygon id="XMLID_242_" class="st23" points="890.6,218.2 925.2,198.2 929.2,200.5 894.5,220.5 		"/>
		<polygon id="XMLID_241_" class="st23" points="937.5,191.1 972.1,171.1 976.1,173.4 941.4,193.4 		"/>
		<polygon id="XMLID_240_" class="st23" points="984.4,164.1 1019,144.1 1023,146.4 988.3,166.4 		"/>
		<polygon id="XMLID_239_" class="st23" points="1031.2,137 1065.8,117 1069.8,119.3 1035.1,139.3 		"/>
		<polygon id="XMLID_238_" class="st23" points="1078.1,110 1112.7,90 1116.7,92.3 1082,112.2 		"/>
		<polygon id="XMLID_237_" class="st23" points="1125,82.9 1159.6,62.9 1163.6,65.2 1128.9,85.2 		"/>
		<polygon id="XMLID_236_" class="st23" points="1171.8,55.8 1206.4,35.8 1210.4,38.1 1175.8,58.1 		"/>
		<polygon id="XMLID_235_" class="st23" points="1218.7,28.7 1253.3,8.7 1257.3,11 1222.7,31 		"/>
	</g>
	<g id="XMLID_384_">
		<polygon id="XMLID_234_" class="st23" points="93.3,678.5 128,658.5 132,660.8 97.3,680.8 		"/>
		<polygon id="XMLID_233_" class="st23" points="140.2,651.4 174.8,631.4 178.8,633.7 144.2,653.7 		"/>
		<polygon id="XMLID_232_" class="st23" points="187.1,624.4 221.7,604.4 225.7,606.7 191.1,626.6 		"/>
		<polygon id="XMLID_231_" class="st23" points="234,597.3 268.6,577.3 272.6,579.6 238,599.6 		"/>
		<polygon id="XMLID_230_" class="st23" points="281,570.2 315.6,550.2 319.6,552.5 285,572.4 		"/>
		<polygon id="XMLID_229_" class="st23" points="327.9,543.1 362.5,523.1 366.5,525.4 331.8,545.4 		"/>
		<polygon id="XMLID_228_" class="st23" points="374.8,516 409.4,496 413.4,498.3 378.8,518.3 		"/>
		<polygon id="XMLID_227_" class="st23" points="421.7,488.9 456.3,468.9 460.3,471.2 425.6,491.2 		"/>
		<polygon id="XMLID_226_" class="st23" points="468.5,461.9 503.1,441.9 507.1,444.2 472.4,464.2 		"/>
		<polygon id="XMLID_225_" class="st23" points="515.4,434.8 550,414.8 554,417.1 519.3,437.1 		"/>
		<polygon id="XMLID_224_" class="st23" points="562.3,407.7 596.9,387.8 600.9,390 566.2,410 		"/>
		<polygon id="XMLID_223_" class="st23" points="609.1,380.7 643.7,360.7 647.7,363 613.1,383 		"/>
		<polygon id="XMLID_222_" class="st23" points="656,353.6 690.6,333.6 694.6,335.9 660,355.9 		"/>
	</g>
	<g id="XMLID_370_">
		<polygon id="XMLID_219_" class="st23" points="-375.2,949.2 -340.6,929.2 -336.6,931.5 -371.2,951.5 		"/>
		<polygon id="XMLID_218_" class="st23" points="-328.3,922.2 -293.7,902.2 -289.7,904.5 -324.3,924.4 		"/>
		<polygon id="XMLID_217_" class="st23" points="-281.3,895 -246.7,875 -242.7,877.3 -277.3,897.3 		"/>
		<polygon id="XMLID_216_" class="st23" points="-234.4,868 -199.8,848 -195.8,850.3 -230.4,870.3 		"/>
		<polygon id="XMLID_215_" class="st23" points="-187.5,840.9 -152.9,820.9 -148.9,823.2 -183.5,843.2 		"/>
		<polygon id="XMLID_214_" class="st23" points="-140.6,813.8 -106,793.8 -102,796.1 -136.7,816.1 		"/>
		<polygon id="XMLID_213_" class="st23" points="-93.8,786.8 -59.2,766.8 -55.2,769.1 -89.9,789.1 		"/>
		<polygon id="XMLID_212_" class="st23" points="-46.9,759.7 -12.3,739.7 -8.3,742 -43,762 		"/>
		<polygon id="XMLID_211_" class="st23" points="0,732.6 34.6,712.6 38.6,714.9 4,734.9 		"/>
		<polygon id="XMLID_210_" class="st23" points="46.9,705.6 81.5,685.6 85.5,687.9 50.8,707.9 		"/>
		<polygon id="XMLID_209_" class="st23" points="93.8,678.5 128.4,658.5 132.4,660.8 97.7,680.8 		"/>
	</g>
</g>
<g id="Car">
	<polygon id="Car_x5F_shadow" class="st0" points="369.4,470.9 283.8,421.2 464.2,317.4 550.1,367 	"/>
	<g id="Car_1_">
		<g class="cascocar6">
			<polygon id="XMLID_352_" class="st24" points="396.4,432.5 509.3,370.1 501,358 385.9,421.8 		"/>
			<g id="XMLID_652_">
				<polygon id="XMLID_351_" class="st25" points="341.5,365.9 343.1,365 336.2,361.1 334.7,362 			"/>
				<polygon id="XMLID_350_" class="st26" points="341.5,371.2 341.5,365.9 334.7,362 334.7,367.3 			"/>
				<polygon id="XMLID_349_" class="st27" points="343.1,365 341.5,365.9 341.5,371.2 343.1,370.3 			"/>
			</g>
			<path id="XMLID_348_" class="st22" d="M452.8,380.3l-47.6,27.5l-55.6,33.7l0,22.6l26.2-10.1c0-0.4-0.1-6.3-0.1-6.3
				c0-4.6,1.9-10.2,4.8-15.1c2.8-4.7,6.5-8.9,10.4-11.1c3.8-2.2,7.6-2.2,10.4-0.6c2.8,1.6,4.7,4.9,4.7,9.3c0,0.4,0,5.8-0.1,6.2
				l46.8-27l22.5-12.9c0-0.4-0.1-5.8-0.1-6.2c0-4.6,1.9-10.2,4.8-15.1c2.8-4.7,6.5-8.9,10.4-11.1c3.8-2.2,7.6-2.2,10.4-0.6
				c2.8,1.6,4.7,4.9,4.7,9.3c0,0,0,5.9-0.1,6.3l17.4-13.4v-25.9L452.8,380.3z"/>
		</g>
		<g id="XMLID_643_">
			<path id="XMLID_347_" class="st28" d="M375.8,452.8l8.1,4.7C383.9,457.5,379.6,455,375.8,452.8L375.8,452.8z"/>
			<path id="XMLID_346_" class="st29" d="M379.3,448.7c0-4.3,1.7-9.5,4.5-14.1c2.6-4.4,6-8.3,9.7-10.4c3.6-2.1,7.1-2.1,9.7-0.5l-7-4
				c-1.7,0.1-3.5,0.7-5.3,1.7c-3.9,2.3-7.6,6.4-10.4,11.2c-2.9,5-4.8,10.6-4.8,15.2c0,0.5,0,4.6,0.1,5c3.8,2.2,8.1,4.7,8.1,4.7
				C381.2,456,379.3,453,379.3,448.7z"/>
			<path id="XMLID_24_" class="st24" d="M403.2,423.7c-2.6-1.5-6.2-1.5-9.7,0.5c-3.7,2.1-7.1,6-9.7,10.4c-2.7,4.6-4.5,9.8-4.5,14.1
				c0,4.2,1.8,7.3,4.5,8.7c2.7,1.5,6.2,1.4,9.6-0.6c3.8-2.2,7.4-6.4,10-10.9c2.6-4.6,4.2-9.6,4.2-13.6
				C407.6,428.3,405.9,425.3,403.2,423.7z M399.1,443.5c-4.8,8.4-10.1,10.8-12.6,9.4l0,0c-0.4-0.2-0.8-0.6-1-1
				c-1.6-2.5-1.3-8.2,2.5-14.8c3.6-6.2,8.2-9.1,11.1-9.1c0.6,0,1.1,0.1,1.5,0.4c0,0,0,0,0,0C403.3,430,403.5,436,399.1,443.5z"/>
			<path id="XMLID_27_" class="st30" d="M399.1,443.5c-4.8,8.4-10.1,10.8-12.6,9.4l0,0c-0.4-0.2-0.8-0.6-1-1c0.6,0,1.2-0.1,1.9-0.3
				c2.7-0.9,6.1-3.8,9.3-9.4c2.9-5.1,3.8-9.5,3.2-12.3c-0.2-0.7-0.4-1.3-0.7-1.8c0.6,0,1.1,0.1,1.5,0.4c0,0,0,0,0,0
				C403.3,430,403.5,436,399.1,443.5z"/>
			<path id="XMLID_28_" class="st31" d="M396.6,442.1c-3.2,5.6-6.6,8.5-9.3,9.4c-0.7,0.2-1.3,0.3-1.9,0.3c-1.6-2.5-1.3-8.2,2.5-14.8
				c3.6-6.2,8.2-9.1,11.1-9.1c0.3,0.5,0.6,1.1,0.7,1.8C400.3,432.6,399.5,437,396.6,442.1z"/>
		</g>
		<g id="XMLID_636_">
			<path id="XMLID_345_" class="st28" d="M502.7,366.3c2.7,1.5,4.4,4.6,4.4,8.7c0,4-1.6,9-4.2,13.6c-2.6,4.6-6.1,8.7-10,10.9
				c-3.4,2-6.9,2-9.6,0.6l11.2,6.5l18.1-34.5L502.7,366.3z"/>
			<path id="XMLID_344_" class="st28" d="M475.3,395.3l8.1,4.7C483.4,400,479.1,397.6,475.3,395.3L475.3,395.3z"/>
			<path id="XMLID_343_" class="st29" d="M478.9,391.3c0-4.3,1.7-9.5,4.5-14.1c2.6-4.4,6-8.3,9.7-10.4c3.6-2.1,7.1-2.1,9.7-0.5l-7-4
				c-1.7,0.1-3.5,0.7-5.3,1.7c-3.9,2.3-7.6,6.4-10.4,11.2c-2.9,5-4.8,10.6-4.8,15.2c0,0,0,4.6,0.1,5c3.8,2.2,8.1,4.7,8.1,4.7
				C480.7,398.6,478.9,395.5,478.9,391.3z"/>
			<path id="XMLID_29_" class="st24" d="M507.1,375c0,4-1.6,9-4.2,13.6c-2.6,4.6-6.1,8.7-10,10.9c-3.4,2-6.9,2-9.6,0.6
				c-2.7-1.5-4.5-4.5-4.5-8.7c0-4.3,1.7-9.5,4.5-14.1c2.6-4.4,6-8.3,9.7-10.4c3.6-2.1,7.1-2.1,9.7-0.5l-2.7,4.6c0,0,0,0,0,0
				c-0.4-0.2-0.9-0.4-1.5-0.4c-2.9-0.1-7.6,2.9-11.1,9.1c-3.8,6.6-4.1,12.3-2.5,14.8c0.3,0.5,0.6,0.8,1,1l0,0
				c2.6,1.4,7.8-1,12.6-9.4c4.3-7.5,4.1-13.5,1.4-15.1l2.7-4.6C505.4,367.8,507.1,370.9,507.1,375z"/>
			<path id="XMLID_30_" class="st30" d="M498.7,386c-4.8,8.4-10.1,10.8-12.6,9.4l0,0c-0.4-0.2-0.8-0.6-1-1c0.6,0,1.2-0.1,1.9-0.3
				c2.7-0.9,6.1-3.8,9.3-9.4c2.9-5.1,3.8-9.5,3.2-12.3c-0.2-0.7-0.4-1.3-0.7-1.8c0.6,0,1.1,0.1,1.5,0.4c0,0,0,0,0,0
				C502.8,372.5,503,378.5,498.7,386z"/>
			<path id="XMLID_31_" class="st31" d="M496.1,384.6c-3.2,5.6-6.6,8.5-9.3,9.4c-0.7,0.2-1.3,0.3-1.9,0.3c-1.6-2.5-1.3-8.2,2.5-14.8
				c3.6-6.2,8.2-9.1,11.1-9.1c0.3,0.5,0.6,1.1,0.7,1.8C499.9,375.1,499,379.5,496.1,384.6z"/>
		</g>
		<g class="cascocar6">
			<polygon id="XMLID_342_" class="st4" points="349.6,441.5 334,432.5 334,430.8 300.8,411.6 300.8,413.3 284.9,404.1 284.9,426.7
				349.6,464.1 		"/>
			<polygon id="XMLID_341_" class="st32" points="334,430.8 300.8,411.6 340.6,363.7 405.2,401.1 		"/>
			<polygon id="XMLID_340_" class="st4" points="405.2,401.1 422.1,364.8 357.4,327.5 340.6,363.7 		"/>
			<polygon id="XMLID_339_" class="st33" points="405.2,402.6 349.6,441.5 405.2,407.8 		"/>
			<polygon id="XMLID_338_" class="st34" points="495.6,355.6 522.9,339.8 519.9,334.9 495.6,348.9 		"/>
			<polygon id="XMLID_337_" class="st22" points="405.2,401.1 405.2,407.8 407.9,406.2 407.9,402.4 424.4,366.9 451.4,351.4
				451.4,381.1 454.1,379.5 454.1,349.8 480.2,334.8 480.2,364.5 482.9,362.9 482.9,338.1 492.9,350.5 492.9,357.1 495.6,355.6
				495.6,348.9 481,330.8 422.1,364.8 		"/>
			<polygon id="XMLID_336_" class="st4" points="349.6,441.5 334,432.5 405.2,402.6 		"/>
			<polygon id="XMLID_335_" class="st33" points="334,432.5 334,430.8 405.2,401.1 405.2,402.6 		"/>
			<polygon id="XMLID_334_" class="st24" points="302.4,414.3 302.4,425.9 332.3,443.2 332.3,431.5 		"/>
			<polygon id="XMLID_333_" class="st4" points="284.9,404.1 300.8,413.3 300.8,411.6 340.6,363.7 		"/>
			<polygon id="XMLID_332_" class="st35" points="334.8,434.7 349.6,443.3 349.6,451.5 334.8,442.9 		"/>
			<polygon id="XMLID_331_" class="st35" points="284.9,406 299.8,414.5 299.8,422.7 284.9,414.1 		"/>
			<polygon id="XMLID_330_" class="st36" points="349.6,451.5 354.6,448.6 354.6,440.4 349.6,443.3 		"/>
			<polygon id="XMLID_193_" class="st36" points="519.6,353.7 522.9,351.8 522.9,343.6 519.6,345.6 		"/>
			<polygon id="XMLID_329_" class="st37" points="284.9,415.9 284.9,417.4 349.6,454.8 371.1,442.4 372.5,443.2 349.6,456.4
				282.2,417.5 		"/>
			<polygon id="XMLID_328_" class="st38" points="282.2,417.5 282.2,422.5 349.6,461.4 349.6,456.4 		"/>
			<path id="XMLID_327_" class="st39" d="M349.6,461.4c0.4-0.3,22.8-13.2,22.8-13.2v-5l-22.8,13.2V461.4z"/>
			<polygon id="XMLID_326_" class="st4" points="357.4,327.5 416.3,293.4 481,330.8 422.1,364.8 		"/>
			<g id="XMLID_611_">
				<polygon id="XMLID_325_" class="st40" points="443,390.3 442.3,389.9 449.8,385.6 450.5,386 			"/>
				<polygon id="XMLID_324_" class="st41" points="443,392 443,390.3 450.5,386 450.5,387.7 			"/>
				<polygon id="XMLID_323_" class="st24" points="442.3,389.9 443,390.3 443,392 442.3,391.6 			"/>
			</g>
			<g id="XMLID_607_">
				<polygon id="XMLID_322_" class="st40" points="471.6,373.8 470.9,373.4 478.4,369.1 479.1,369.5 			"/>
				<polygon id="XMLID_321_" class="st41" points="471.6,375.5 471.6,373.8 479.1,369.5 479.1,371.1 			"/>
				<polygon id="XMLID_320_" class="st24" points="470.9,373.4 471.6,373.8 471.6,375.5 470.9,375.1 			"/>
			</g>
			<polygon id="XMLID_319_" class="st40" points="508.5,364.8 507,364 522.9,354.8 522.9,353.3 525.6,354.9 		"/>
			<polygon id="XMLID_318_" class="st39" points="508.5,368.2 508.5,364.8 525.6,354.9 525.6,358.2 		"/>
			<polygon id="XMLID_317_" class="st42" points="507,364 508.5,364.8 508.5,368.2 507,367.3 		"/>
			<polygon id="XMLID_316_" class="st43" points="402.6,399.6 419.5,363.3 360,329 343.2,365.2 		"/>
			<polygon id="XMLID_315_" class="st43" points="407.9,402.4 407.9,406.2 451.4,381.1 451.4,351.4 424.4,366.9 		"/>
			<polygon id="XMLID_314_" class="st43" points="454.1,349.8 454.1,379.5 480.2,364.5 480.2,334.8 		"/>
			<polygon id="XMLID_313_" class="st43" points="482.9,362.9 482.9,338.1 492.9,350.5 492.9,357.1 		"/>
			<g id="XMLID_596_">
				<polygon id="XMLID_312_" class="st40" points="420.5,361.1 419.1,360.2 476,327.3 477.5,328.2 			"/>
				<polygon id="XMLID_311_" class="st41" points="419.5,363.3 420.5,361.1 477.5,328.2 478.4,329.3 			"/>
				<polygon id="XMLID_310_" class="st24" points="419.1,360.2 420.5,361.1 419.5,363.3 418,362.5 			"/>
			</g>
			<g id="XMLID_592_">
				<polygon id="XMLID_309_" class="st40" points="362.5,327.5 361.1,326.7 418,293.8 419.5,294.6 			"/>
				<polygon id="XMLID_308_" class="st41" points="361.4,329.8 362.5,327.5 419.5,294.6 420.4,295.8 			"/>
				<polygon id="XMLID_307_" class="st24" points="361.1,326.7 362.5,327.5 361.4,329.8 360,329 			"/>
			</g>
			<g id="XMLID_588_">
				<polygon id="XMLID_306_" class="st25" points="413.2,407.3 414.8,406.4 407.9,402.4 406.4,403.3 			"/>
				<polygon id="XMLID_305_" class="st26" points="413.2,412.6 413.2,407.3 406.4,403.3 406.4,408.6 			"/>
				<polygon id="XMLID_304_" class="st44" points="414.8,406.4 413.2,407.3 413.2,412.6 414.8,411.7 			"/>
			</g>
			<polygon id="XMLID_303_" class="st32" points="439.7,307 455.6,297.8 519.9,334.9 495.6,348.9 481,330.8 		"/>
		</g>
	</g>
	<g class="cascocar6 lights">
		<polyline id="XMLID_183_" class="st45" points="317.1,445.3 268.7,474.1 253.3,499.6 204.4,512.5 295.6,540.3 344,460.8 		"/>
		<polyline id="XMLID_190_" class="st46" points="268.7,474.1 244,488.9 248,499.4 253.3,499.6 		"/>
		<polygon id="XMLID_188_" class="st47" points="332.3,443.2 332.3,436.2 326.3,439.8 		"/>
		<polygon id="XMLID_186_" class="st48" points="319.3,443.9 317.1,445.3 344,460.8 345.2,458.8 		"/>
		<polygon id="XMLID_189_" class="st49" points="325,440.6 323.6,441.4 347.4,455.2 348.1,453.9 		"/>
		<polygon id="XMLID_187_" class="st50" points="323.6,441.4 319.3,443.9 345.2,458.8 347.4,455.2 		"/>
		<polygon id="XMLID_185_" class="st48" points="349.6,451.5 334.8,442.9 334.8,434.7 332.3,436.2 332.3,443.2 326.3,439.8 
			325,440.6 348.1,453.9 		"/>
		<polygon id="XMLID_184_" class="st51" points="349.6,451.5 349.6,443.3 334.8,434.7 334.8,442.9 		"/>
		<polyline id="XMLID_64_" class="st45" points="284.9,406 160.3,480.1 244,488.9 268.7,474.1 294.2,432.1 284.9,426.7 284.9,424.1 
			282.2,422.5 282.2,417.5 284.9,415.9 284.9,406 		"/>
		<path id="XMLID_192_" class="st52" d="M248.6,499.4c-0.2,0-0.4,0-0.6,0c-0.9-15.9-23.3-28.6-50.8-28.6
			c-28.1,0-50.8,13.2-50.8,29.5s22.8,29.5,50.8,29.5c0.2,0,0.4,0,0.6,0c0.9,15.9,23.3,28.6,50.8,28.6c28.1,0,50.8-13.2,50.8-29.5
			S276.7,499.4,248.6,499.4z"/>
		<polygon id="XMLID_182_" class="st49" points="284.9,417.4 284.9,415.9 282.2,417.5 297.7,426.4 298.4,425.2 		"/>
		<polygon id="XMLID_178_" class="st50" points="282.2,417.5 282.2,422.5 295.4,430.1 297.7,426.4 		"/>
		<polygon id="XMLID_181_" class="st48" points="284.9,424.1 284.9,426.7 294.2,432.1 295.4,430.1 		"/>
		<polygon id="XMLID_69_" class="st48" points="284.9,414.1 284.9,417.4 298.4,425.2 299.9,422.7 		"/>
		<polygon id="XMLID_65_" class="st51" points="299.9,414.6 284.9,406 284.9,414.1 299.9,422.7 		"/>
	</g>
</g>
</svg>
