<?xml version="1.0" encoding="UTF-8"?>
<svg width="1294px" height="516px" viewBox="0 0 1294 516" version="1.1" xmlns="http://www.w3.org/2000/svg" xmlns:xlink="http://www.w3.org/1999/xlink" class="illustration illustration10">
    <g id="Page-1" stroke="none" stroke-width="1" fill="none" fill-rule="evenodd">
        <g id="KASKO_Form_1_3" transform="translate(0.000000, -180.000000)">
            <g id="Group-2" transform="translate(-153.000000, 168.000000)">
                <path d="M232.231674,201.496855 C344.95032,160.980475 458.020317,149.120929 505.606076,174.5 C527.67052,186.267704 539.375569,201.88927 542.277598,220.752458 C545.214417,239.841785 539.205025,263.006193 524.37571,287.156793 C502.769063,322.344761 489.499337,362.052049 489.369539,398.863541 C489.206529,445.093796 509.550988,484.315397 551.337791,509.776194 C589.219577,532.857654 631.775257,533.081759 676.791136,514.586913 C718.478173,497.459726 760.113078,466.059701 809.521976,418.96421 C823.279373,405.850956 829.162232,399.989198 857.014858,371.93664 C875.544998,353.273486 885.118703,343.932394 893.971364,336.126214 C1098.47054,155.801058 1282.80539,65.4154308 1446.40488,63.4982492 L1445.80727,12.5017508 C1268.07343,14.5845692 1073.07494,110.198942 860.240788,297.873786 C850.246477,306.686661 840.166381,316.521839 820.823674,336.003393 C793.357609,363.666617 787.610063,369.393546 774.334129,382.04788 C729.158228,425.108571 691.798103,453.284661 657.409731,467.413179 C626.336959,480.179477 600.555882,480.04371 577.874362,466.223806 C551.883801,450.387698 540.267147,427.992224 540.369222,399.043368 C540.462795,372.505571 550.789042,341.606116 567.836442,313.843207 C612.186616,241.615782 600.777762,167.458233 529.606076,129.5 C495.565615,111.345087 446.100111,106.474421 386.133555,112.764119 C332.732431,118.36519 272.411449,132.859754 214.980478,153.503145 C142.604481,179.51848 79.0601107,202.534551 24.3447472,222.552367 L0,231.458982 L34.3057632,320.653967 L81.9063892,302.346033 L66.21709,261.553856 C115.098503,243.727888 170.437243,223.708678 232.231674,201.496855 Z" id="Path-6" fill="#EFEFEF" fill-rule="nonzero"></path>
                <g id="Group-4" transform="translate(1087.106076, 0.000000)">
                    <g id="Group-5" transform="translate(88.000000, 58.000000)" fill="#FFCD00">
                        <path d="M92.8511191,25.1497529 C92.8511191,32.1188296 82.9275902,37.7684027 70.6863022,37.7684027 C58.4450141,37.7684027 48.5214852,32.1188296 48.5214852,25.1497529 C48.5214852,18.1806761 58.4450141,12.531103 70.6863022,12.531103 C82.9275902,12.531103 92.8511191,18.1806761 92.8511191,25.1497529" id="Fill-130"></path>
                        <path d="M70.4372593,12.9381562 C70.4372593,19.907233 60.5137304,25.5568061 48.2724423,25.5568061 C36.0311543,25.5568061 26.1076254,19.907233 26.1076254,12.9381562 C26.1076254,5.96907947 36.0311543,0.319506414 48.2724423,0.319506414 C60.5137304,0.319506414 70.4372593,5.96907947 70.4372593,12.9381562" id="Fill-132"></path>
                        <polygon id="Path-4" opacity="0.399999976" points="29.4257813 46.9510052 74.109375 37.7030799 57.3984375 17.0730928 23.9765625 39.1258377"></polygon>
                        <polygon id="Path-4-Copy" opacity="0.399999976" points="5.44921875 33.4348067 50.1328125 24.1868815 33.421875 3.55689433 0 25.6096392"></polygon>
                    </g>
                    <g id="Car3" transform="translate(0.000000, 83.000000)" fill-rule="nonzero">
                        <polygon id="Shape" fill="#231F20" opacity="0.195086051" points="113.904725 39.3439174 43.9096482 79.9584573 0.504629276 54.9544221 70.2755069 14.1129854"></polygon>
                        <polygon id="Shape" fill="#008842" points="64.4463204 10.9364292 96.1032867 3.63034993 111.304011 12.5247073 93.8612919 28.0898326"></polygon>
                        <polygon id="Shape" fill="#009B4B" points="64.4463204 10.9364292 88.8392236 0.272276245 95.0271292 3.90262618"></polygon>
                        <polygon id="Shape" fill="#00752F" points="53.6847455 50.2803466 59.5587718 35.8497056 29.9196008 18.560164 23.1039367 35.3051531 52.3395486 52.3677978"></polygon>
                        <polygon id="Shape" fill="#333333" points="51.5324305 51.914004 58.3480946 35.169015 31.130278 19.2408546 24.3146138 36.0312231"></polygon>
                        <polygon id="Shape" fill="#1A1A1A" points="59.917491 60.1276708 111.573051 31.2210094 107.806499 25.6393464 55.1196221 55.181319"></polygon>
                        <path d="M54.1779843,71.6994112 C54.1779843,71.6994112 49.2007559,68.7497518 47.9900787,68.0690612 C46.7794015,67.3883706 45.9274435,65.98161 45.9274435,64.0302969 C45.9274435,60.1730501 48.9765564,54.6821459 52.3843885,52.6854534 C53.9986247,51.7324865 55.612861,51.7324865 56.8235382,52.4585565 C58.0342153,53.1846265 63.0114438,56.0889065 63.0114438,56.0889065 L54.1779843,71.6994112 Z" id="Shape" fill="#4D4D4D"></path>
                        <path d="M99.7353183,45.1070979 C99.7353183,45.1070979 94.7580899,42.1574386 93.5474127,41.476748 C92.3367355,40.7960574 91.4847775,39.3892968 91.4847775,37.4379837 C91.4847775,33.5807369 94.5338904,28.0898326 97.9417224,26.0931401 C99.5559587,25.1401733 101.170195,25.1401733 102.380872,25.8662433 C103.591549,26.5923133 108.568778,29.4965932 108.568778,29.4965932 L99.7353183,45.1070979 Z" id="Shape" fill="#4D4D4D"></path>
                        <polygon id="Shape" fill="#004E23" points="53.6847455 50.2803466 53.6847455 54.6821459 54.8954227 53.9560759 54.8954227 50.8702784 59.5139319 39.6161936 59.5139319 51.2786928 60.769449 50.5072434 60.769449 36.7572931 73.8626985 29.1789376 73.8626985 42.8835086 75.0733757 42.1574386 75.0733757 28.4528676 86.1488299 21.9182377 92.6506148 28.8159026 92.6506148 31.9017 93.8612919 31.17563 93.8612919 28.0898326 86.5075491 20.1030628 59.5587718 35.8497056"></polygon>
                        <path d="M41.1295747,73.9683799 L50.5011129,70.0657537 C50.5011129,69.8842362 50.456273,67.1160944 50.456273,67.1160944 C50.456273,64.9832638 51.308231,62.3966395 52.6534279,60.1276708 C53.908945,57.9494608 55.612861,55.9981477 57.4064568,54.9544221 C59.1552127,53.9106965 60.9039687,53.9106965 62.2043256,54.6821459 C63.5046826,55.4535952 64.3566406,56.9964939 64.3566406,58.9931864 C64.3566406,59.1747039 64.3566406,61.6705695 64.3118007,61.852087 L85.7004309,49.3273797 L85.7004309,35.8497056 L63.9082417,48.5559303 L41.0847348,61.8974663 L41.1295747,73.9683799 Z" id="Shape" fill="#00712E"></path>
                        <g id="Group" transform="translate(51.870883, 55.541908)">
                            <path d="M6.70141132,15.8852273 C5.13201497,16.7928148 3.51777873,16.8381942 2.30710155,16.1575036 C1.09642436,15.476813 0.244466347,14.0700524 0.244466347,12.1187393 C0.244466347,10.1220468 1.05158447,7.71694 2.30710155,5.58410941 C3.47293883,3.54203758 5.04233518,1.77224199 6.74625121,0.773895754 C8.36048745,-0.179071103 9.9747237,-0.179071103 11.1854009,0.546998883 C12.3960781,1.27306887 13.2031962,2.67982947 13.2031962,4.58576318 C13.2031962,6.44631752 12.4857578,8.76066561 11.2750807,10.8481168 C10.0644035,12.935568 8.45016724,14.8415017 6.70141132,15.8852273 Z" id="Shape" fill="#1A1A1A"></path>
                            <path d="M3.51777873,13.9792936 C2.30710155,13.298603 2.12774196,10.258185 4.14553727,6.62783502 C6.07365278,3.17900258 8.76404651,1.90838011 9.9298838,2.63445009 C11.1854009,3.36052008 11.2750807,6.17404128 9.30212526,9.66825309 C7.10497038,13.5254999 4.68361601,14.6599842 3.51777873,13.9792936 Z" id="Shape" fill="#AEB0B2"></path>
                            <path d="M2.30710155,13.3439824 C1.09642436,12.6632918 0.917064781,9.62287371 2.93486008,5.99252378 C4.8629756,2.54369135 7.55336933,1.27306887 8.71920662,1.99913886 C9.9747237,2.72520884 10.0644035,5.53873004 8.09144808,9.03294185 C5.93913309,12.8901887 3.51777873,14.024673 2.30710155,13.3439824 Z" id="Shape" fill="#FFFFFF"></path>
                        </g>
                        <path d="M85.7004309,49.4181385 L96.0136069,43.4280611 C96.0136069,43.2465436 95.968767,40.750678 95.968767,40.5691605 C95.968767,38.4363299 96.8207251,35.8497056 98.1659219,33.5807369 C99.421439,31.4025269 101.125355,29.4512138 102.918951,28.4074882 C104.667707,27.3637626 106.416463,27.3637626 107.71682,28.135212 C109.017177,28.9066613 109.869135,30.4495601 109.869135,32.4462525 C109.869135,32.4462525 109.869135,35.169015 109.824295,35.3959118 L118.388715,27.9990739 L118.388715,17.5618178 L93.816452,31.17563 L85.655591,35.9404643 L85.7004309,49.4181385 Z" id="Shape" fill="#00712E"></path>
                        <g id="Group" transform="translate(97.607576, 28.768077)">
                            <path d="M6.52205173,16.0667448 C4.95265539,16.9743323 3.33841914,17.0197117 2.12774196,16.3390211 C0.917064781,15.6583305 0.0651067646,14.2515699 0.0651067646,12.3002568 C0.0651067646,10.3035643 0.872224886,7.8984575 2.12774196,5.76562691 C3.29357925,3.72355507 4.8629756,1.95375948 6.56689163,0.955413251 C8.18112787,0.00244639335 9.79536411,0.00244639335 11.0060413,0.72851638 C12.2167185,1.45458637 13.0238366,2.86134697 13.0238366,4.76728068 C13.0238366,6.62783502 12.3063983,8.9421831 11.0957211,11.0296343 C9.8850439,13.1170855 8.27080766,15.0230192 6.52205173,16.0667448 Z" id="Shape" fill="#1A1A1A"></path>
                            <path d="M3.33841914,14.1608111 C2.12774196,13.4801205 1.94838238,10.4397024 3.96617768,6.80935252 C5.89429319,3.36052008 8.58468693,2.0898976 9.75052422,2.81596759 C11.0060413,3.54203758 11.0957211,6.35555878 9.12276568,9.84977059 C6.92561079,13.7070174 4.50425643,14.8415017 3.33841914,14.1608111 Z" id="Shape" fill="#AEB0B2"></path>
                            <path d="M2.12774196,13.5254999 C0.917064781,12.8448093 0.737705199,9.80439121 2.7555005,6.17404128 C4.68361601,2.72520884 7.37400975,1.45458637 8.53984704,2.18065635 C9.79536411,2.90672634 9.8850439,5.72024754 7.9120885,9.21445935 C5.71493361,13.0717062 3.29357925,14.1608111 2.12774196,13.5254999 Z" id="Shape" fill="#FFFFFF"></path>
                        </g>
                        <polygon id="Shape" fill="#0D592F" points="41.1295747 61.9882251 39.7395379 59.673877 10.3694063 42.5204736 9.51744829 43.6549579 9.51744829 55.4989746 41.1295747 73.9683799"></polygon>
                        <polygon id="Shape" fill="#AEB0B2" points="9.51744829 49.7357941 9.51744829 50.4164847 41.1295747 68.9312693 48.303958 64.7109875 48.9317165 65.0740225 41.1295747 69.6573393 8.26193122 50.4618641"></polygon>
                        <polygon id="Shape" fill="#829298" points="8.26193122 50.4618641 8.26193122 52.7762121 41.1295747 71.9716874 41.1295747 69.6573393"></polygon>
                        <path d="M41.1295747,71.9716874 C41.3089343,71.8355493 48.9317165,67.3883706 48.9317165,67.3883706 L48.9317165,65.0740225 L41.1295747,69.6573393 L41.1295747,71.9716874 Z" id="Shape" fill="#FFFFFF"></path>
                        <polygon id="Shape" fill="#009548" points="29.9196008 18.560164 56.8683781 2.76814182 86.5075491 20.1030628 59.5587718 35.8497056"></polygon>
                        <g id="Group" transform="translate(61.307528, 49.463518)">
                            <polygon id="Shape" fill="#4D4D4D" points="0.538078747 2.35972746 0.224199478 2.17820996 3.63203154 0.181517497 3.99075071 0.363034993"></polygon>
                            <polygon id="Shape" fill="#333333" points="0.538078747 3.13117682 0.538078747 2.35972746 3.99075071 0.363034993 3.99075071 1.13448435"></polygon>
                            <polygon id="Shape" fill="#1A1A1A" points="0.224199478 2.17820996 0.653340639 2.35972746 0.653340639 3.17655619 0.224199478 2.99503869"></polygon>
                        </g>
                        <g id="Group" transform="translate(75.656294, 41.295230)">
                            <polygon id="Shape" fill="#4D4D4D" points="0.538078747 2.17820996 0.179359582 1.99669246 3.63203154 0 3.94591081 0.181517497"></polygon>
                            <polygon id="Shape" fill="#333333" points="0.538078747 2.94965932 0.538078747 2.17820996 3.94591081 0.181517497 3.94591081 0.952966857"></polygon>
                            <polygon id="Shape" fill="#1A1A1A" points="0.179359582 1.99669246 0.669806624 2.17820996 0.669806624 2.99503869 0.179359582 2.8135212"></polygon>
                        </g>
                        <polygon id="Shape" fill="#AEB0B2" points="111.88693 28.3621088 111.214332 27.9990739 118.433555 23.7334127 118.433555 23.0981014 119.644232 23.7787921"></polygon>
                        <polygon id="Shape" fill="#FFFFFF" points="111.88693 29.9050076 111.88693 28.3621088 119.644232 23.7787921 119.644232 25.3216908"></polygon>
                        <polygon id="Shape" fill="#829298" points="111.214332 27.9990739 111.88693 28.3621088 111.88693 29.9050076 111.214332 29.5419726"></polygon>
                        <polygon id="Shape" fill="#FF8900" points="41.1295747 63.5765032 41.8918529 63.1227095 41.8918529 66.9345769 41.1295747 67.3883706"></polygon>
                        <g id="Group" transform="translate(57.271937, 18.151750)">
                            <polygon id="Shape" fill="#4D4D4D" points="1.56939635 15.9735397 0.896797912 15.5651253 26.9936172 0.317655619 27.6213757 0.726069987"></polygon>
                            <polygon id="Shape" fill="#333333" points="1.07615749 17.0172653 1.56939635 15.9735397 27.6213757 0.726069987 28.0697747 1.27062248"></polygon>
                            <polygon id="Shape" fill="#1A1A1A" points="0.896797912 15.5651253 1.56939635 15.9735397 1.07615749 17.0172653 0.403559061 16.6088509"></polygon>
                        </g>
                        <g id="Group" transform="translate(30.816399, 2.722762)">
                            <polygon id="Shape" fill="#4D4D4D" points="1.43487666 15.8374016 0.807118121 15.4743666 26.8590975 0.226896871 27.5316959 0.635311238"></polygon>
                            <polygon id="Shape" fill="#333333" points="0.986477703 16.8811272 1.43487666 15.8374016 27.5316959 0.635311238 27.935255 1.13448435"></polygon>
                            <polygon id="Shape" fill="#1A1A1A" points="0.807118121 15.4743666 1.43487666 15.8374016 0.986477703 16.8811272 0.313879269 16.5180922"></polygon>
                        </g>
                        <polygon id="Shape" fill="#4EB548" points="41.1295747 61.9882251 39.7395379 59.673877 52.3395486 52.3677978 53.6847455 54.6821459"></polygon>
                        <polygon id="Shape" fill="#009548" points="10.3694063 42.5204736 22.9245771 35.2143943 23.1039367 35.3051531 52.3395486 52.3677978 39.7395379 59.673877"></polygon>
                        <polyline id="Shape" fill="#B3B3B3" points="11.7594431 41.7036449 23.2384564 34.9874975 23.1039367 35.3051531"></polyline>
                        <polygon id="Shape" fill="#4EB548" points="52.3395486 52.3677978 53.6847455 50.2803466 53.6847455 54.6821459"></polygon>
                        <polygon id="Shape" fill="#AA5F0E" points="32.0719158 58.3124958 32.0719158 62.0789838 41.1295747 67.3883706 41.1295747 63.5765032"></polygon>
                        <polygon id="Shape" fill="#AA5F0E" points="9.51744829 45.1070979 9.51744829 48.9189653 18.5751072 54.1829727 18.5751072 50.4164847"></polygon>
                        <polygon id="Shape" fill="#333333" points="54.8954227 50.8702784 59.5139319 39.6161936 59.5139319 51.2786928 54.8954227 53.9560759"></polygon>
                        <polygon id="Shape" fill="#333333" points="60.769449 50.5072434 60.769449 36.7572931 73.8626985 29.1789376 73.8626985 42.8835086"></polygon>
                        <polygon id="Shape" fill="#333333" points="75.0733757 28.4528676 86.1488299 21.9182377 92.6506148 28.8159026 92.6506148 31.9017 75.0733757 42.1574386"></polygon>
                        <polygon id="Shape" fill="#4EB548" points="93.8612919 28.8159026 93.8612919 31.17563 118.433555 17.5618178"></polygon>
                        <polygon id="Shape" fill="#4EB548" points="93.8612919 28.0898326 93.8612919 28.8159026 111.304011 13.3869154 111.304011 12.5247073"></polygon>
                        <g id="Group" transform="translate(92.247056, 28.135212)">
                            <polygon id="Shape" fill="#AEB0B2" points="3.49751186 2.49586558 4.21495019 2.08745121 1.07615749 0.272276245 0.403559061 0.680690612"></polygon>
                            <polygon id="Shape" fill="#4D4D4D" points="3.49751186 4.99173116 3.49751186 2.49586558 0.403559061 0.680690612 0.403559061 3.13117682"></polygon>
                            <polygon id="Shape" fill="#FFFFFF" points="4.21495019 2.08745121 3.49751186 2.49586558 3.49751186 4.99173116 4.21495019 4.58331679"></polygon>
                        </g>
                        <polygon id="Shape" fill="#009B4B" points="93.8612919 28.8159026 111.304011 13.3869154 118.433555 17.5618178"></polygon>
                        <polygon id="Shape" fill="#FF8900" points="116.14672 23.5972746 118.433555 22.2358933 118.433555 18.4694053 116.14672 19.7854071"></polygon>
                        <polygon id="Shape" fill="#007B3C" points="58.4377744 9.03049546 50.7701523 13.5230535 54.8505828 15.9281603 60.5004096 19.1954753 66.8676748 22.9165839 74.5352969 18.4240259"></polygon>
                    </g>
                </g>
            </g>
        </g>
    </g>
</svg>