<?xml version="1.0" encoding="utf-8"?>
<svg version="1.1" id="Layer_1" xmlns="http://www.w3.org/2000/svg" xmlns:xlink="http://www.w3.org/1999/xlink" x="0px" y="0px"
	 viewBox="0 0 1170 500" style="enable-background:new 0 0 1170 500;" xml:space="preserve" class="illustration illustration10">

<path class="path10 st0" d="M71.3,193.3c101.4-36.5,203.2-47.1,246-24.3c19.9,10.6,30.4,24.7,33,41.6c2.6,17.2-2.8,38-16.1,59.8
	c-19.4,31.7-31.4,67.4-31.5,100.5c-0.1,41.6,18.2,76.9,55.8,99.8c34.1,20.8,72.4,21,112.9,4.3c37.5-15.4,75-43.7,119.5-86.1
	c12.4-11.8,17.7-17.1,42.7-42.3c16.7-16.8,25.3-25.2,33.3-32.2C850.9,152.1,1022.8,69,1170,67.3V22.4
	c-160,1.9-341.9,88.7-533.5,257.6c-9,7.9-18.1,16.8-35.5,34.3c-24.7,24.9-29.9,30.1-41.8,41.4c-40.7,38.8-74.3,64.1-105.2,76.8
	c-28,11.5-51.2,11.4-71.6-1.1c-23.4-14.3-33.8-34.4-33.8-60.5c0.1-23.9,9.4-51.7,24.7-76.7c39.9-65,29.6-131.7-34.4-165.9
	c-30.6-16.3-75.2-20.7-129.1-15.1c-48.1,5-102.3,18.1-154,36.7c-19.3,6.9-37.8,13.6-55.7,20.1L0,219
	C22.6,210.8,46.4,202.2,71.3,193.3L71.3,193.3z"/>
	<circle class="circle10 st21" cy="-25" r="26.3"/>
<g class="cascocar10">
	<g id="Light">
		<polygon class="st1" points="918.7,90.6 948.8,70.4 988.9,99.6 948.2,108.4 936.9,101.6 958.4,90.7 925.6,94.8 		"/>
		<path class="st2" d="M984.4,77.2c-0.1,0-0.2,0-0.2,0c-0.3-6.1-9.1-11-19.9-11c-11,0-19.9,5.1-19.9,11.4c0,6.3,8.9,11.4,19.9,11.4
			c0.1,0,0.2,0,0.2,0c0.3,6.1,9.1,11,19.9,11c11,0,19.9-5.1,19.9-11.4C1004.4,82.3,995.4,77.2,984.4,77.2z"/>
	</g>
	<g>
		<polygon class="st3" points="900.8,95.7 929.6,90.3 943,98.7 926.8,112 		"/>
		<polygon class="st4" points="900.8,95.7 923.2,87 928.6,90.5 		"/>
		<polygon class="st5" points="889.8,130.3 895.6,117.7 869.5,101.2 862.7,115.9 888.5,132.2 		"/>
		<polygon class="st6" points="889.8,130.3 889.6,134.2 890.8,133.6 890.9,130.9 895.4,121 895,131.4 896.2,130.8 896.6,118.5 
			908.7,112.2 908.2,124.4 909.3,123.8 909.8,111.6 920,106.2 925.6,112.6 925.5,115.3 926.7,114.7 926.8,112 920.4,104.6 
			895.6,117.7 		"/>
		<polygon class="st7" points="887.8,131.7 894.5,117 870.5,101.9 863.8,116.6 		"/>
		<polygon class="st8" points="895.1,139.3 942.6,115.4 939.4,110.3 890.9,134.7 		"/>
		<path class="st5" d="M877.6,151l8.6-3.1c0-0.2,0.1-2.6,0.1-2.6c0.1-1.9,0.9-4.2,2.2-6.2c1.2-1.9,2.8-3.6,4.5-4.4
			c1.6-0.9,3.2-0.8,4.3-0.1c1.1,0.7,1.9,2.1,1.8,3.9c0,0.2-0.1,2.4-0.1,2.6l19.7-10.4l0.5-12l-20.1,10.6l-21,11.1L877.6,151z"/>
		<path class="st5" d="M918.7,130.7l9.5-5c0-0.2,0.1-2.4,0.1-2.6c0.1-1.9,0.9-4.2,2.2-6.2c1.2-1.9,2.8-3.6,4.5-4.4
			c1.6-0.9,3.2-0.8,4.3-0.1c1.1,0.7,1.9,2.1,1.8,3.9c0,0-0.1,2.4-0.1,2.6l8-6.3l0.4-9.3l-22.6,11.3l-7.5,4L918.7,130.7z"/>
		<g>
			<path class="st9" d="M889.5,149.4l-3.3-2.1l0.1-2.1c0-1.7,0.9-4.2,2.3-6.2c2.2-3.3,4.5-4.9,6.7-5l2.8,1.8L889.5,149.4z"/>
			<path class="st8" d="M893.5,149.3c-1.4,0.8-2.9,0.7-4,0.1c-1.1-0.6-1.8-1.9-1.7-3.7c0.1-1.8,0.9-3.9,2.1-5.7
				c1.1-1.8,2.6-3.3,4.2-4.1c1.5-0.8,3-0.7,4-0.1c1.1,0.7,1.7,2,1.7,3.7c-0.1,1.6-0.8,3.7-1.9,5.5
				C896.6,146.8,895.1,148.5,893.5,149.3z"/>
			<path class="st10" d="M890.6,147.5c-1.1-0.7-1.1-3.4,0.8-6.5c1.9-3,4.3-4,5.4-3.4c1.1,0.7,1.1,3.2-0.8,6.2
				C893.9,147.3,891.7,148.2,890.6,147.5z"/>
			<g>
				<defs>
					<path id="SVGID_1_" d="M890.6,147.5c-1.1-0.7-1.1-3.4,0.8-6.5c1.9-3,4.3-4,5.4-3.4c1.1,0.7,1.1,3.2-0.8,6.2
						C893.9,147.3,891.7,148.2,890.6,147.5z"/>
				</defs>
				<clipPath id="SVGID_2_">
					<use xlink:href="#SVGID_1_"  style="overflow:visible;"/>
				</clipPath>
				<path class="st11" d="M889.6,146.9c-1.1-0.7-1.1-3.4,0.8-6.5c1.9-3,4.3-4,5.4-3.4c1.1,0.7,1.1,3.2-0.8,6.2
					C892.8,146.6,890.6,147.5,889.6,146.9z"/>
			</g>
		</g>
		<g>
			<path class="st9" d="M931.4,127.3l-3.3-2.1l0.1-2.1c0-1.7,0.9-4.2,2.3-6.2c2.2-3.3,4.5-4.9,6.7-5l2.8,1.8L931.4,127.3z"/>
			<path class="st8" d="M935.4,127.2c-1.4,0.8-2.9,0.7-4,0.1c-1.1-0.6-1.8-1.9-1.7-3.7c0.1-1.8,0.9-3.9,2.1-5.7
				c1.1-1.8,2.6-3.3,4.2-4.1c1.5-0.8,3-0.7,4-0.1c1.1,0.7,1.7,2,1.7,3.7c-0.1,1.6-0.8,3.7-1.9,5.5
				C938.6,124.7,937,126.4,935.4,127.2z"/>
			<path class="st10" d="M932.6,125.5c-1.1-0.7-1.1-3.4,0.8-6.5c1.9-3,4.3-4,5.4-3.4c1.1,0.7,1.1,3.2-0.8,6.2
				C935.9,125.2,933.6,126.1,932.6,125.5z"/>
			<g>
				<defs>
					<path id="SVGID_3_" d="M932.6,125.5c-1.1-0.7-1.1-3.4,0.8-6.5c1.9-3,4.3-4,5.4-3.4c1.1,0.7,1.1,3.2-0.8,6.2
						C935.9,125.2,933.6,126.1,932.6,125.5z"/>
				</defs>
				<clipPath id="SVGID_4_">
					<use xlink:href="#SVGID_3_"  style="overflow:visible;"/>
				</clipPath>
				<path class="st12" d="M931.6,124.8c-1.1-0.7-1.1-3.4,0.8-6.5c1.9-3,4.3-4,5.4-3.4c1.1,0.7,1.1,3.2-0.8,6.2
					C934.8,124.6,932.6,125.5,931.6,124.8z"/>
			</g>
		</g>
		<polygon class="st13" points="878.1,140.3 876.9,138.2 851,121.9 850.2,122.9 849.8,133.4 877.6,151 		"/>
		<polygon class="st10" points="850,128.3 850,128.9 877.8,146.5 884.4,143 885,143.4 877.8,147.2 848.8,128.9 		"/>
		<polygon class="st14" points="848.8,128.9 848.8,131 877.7,149.2 877.8,147.2 		"/>
		<path class="st15" d="M877.7,149.2c0.2-0.1,7.2-3.8,7.2-3.8l0.1-2.1l-7.2,3.8L877.7,149.2z"/>
		<polygon class="st4" points="869.5,101.2 894.3,88.2 920.4,104.6 895.6,117.7 		"/>
		<g>
			<polygon class="st9" points="897.1,132 896.8,131.8 900,130.2 900.2,130.3 			"/>
			<polygon class="st16" points="897.1,132.7 897.1,132 900.2,130.3 900.2,131 			"/>
			<polygon class="st8" points="896.8,131.8 897.1,132 897.1,132.7 896.8,132.5 			"/>
		</g>
		<g>
			<polygon class="st9" points="910.3,125.1 910,124.9 913.1,123.2 913.4,123.4 			"/>
			<polygon class="st16" points="910.3,125.8 910.3,125.1 913.4,123.4 913.4,124.1 			"/>
			<polygon class="st8" points="910,124.9 910.3,125.1 910.3,125.8 910,125.6 			"/>
		</g>
		<polygon class="st10" points="943,112.9 942.4,112.5 949,109 949.1,108.4 950.1,109.1 		"/>
		<polygon class="st15" points="942.9,114.2 943,112.9 950.1,109.1 950.1,110.4 		"/>
		<polygon class="st14" points="942.4,112.5 943,112.9 942.9,114.2 942.3,113.9 		"/>
		<polygon class="st17" points="878,141.7 878.7,141.4 878.6,144.7 877.9,145.1 		"/>
		<g>
			<polygon class="st9" points="895,116.1 894.4,115.8 918.4,103.1 919,103.5 			"/>
			<polygon class="st16" points="894.5,117 895,116.1 919,103.5 919.4,103.9 			"/>
			<polygon class="st8" points="894.4,115.8 895,116.1 894.5,117 893.9,116.7 			"/>
		</g>
		<g>
			<polygon class="st9" points="871.6,101.4 871,101 895,88.3 895.6,88.7 			"/>
			<polygon class="st16" points="871.1,102.3 871.6,101.4 895.6,88.7 896,89.2 			"/>
			<polygon class="st8" points="871,101 871.6,101.4 871.1,102.3 870.5,101.9 			"/>
		</g>
		<polygon class="st18" points="878.1,140.3 876.9,138.2 888.5,132.2 889.6,134.2 		"/>
		<polygon class="st4" points="851,121.9 862.6,115.8 862.7,115.9 888.5,132.2 876.9,138.2 		"/>
		<polyline class="st19" points="852.3,121.2 862.9,115.7 862.7,115.9 		"/>
		<polygon class="st18" points="888.5,132.2 889.8,130.3 889.6,134.2 		"/>
		<polygon class="st20" points="870,136.7 869.9,140.1 877.9,145.1 878,141.7 		"/>
		<polygon class="st20" points="850.1,124.2 850,127.6 858,132.6 858.1,129.2 		"/>
		<polygon class="st16" points="890.9,130.9 895.4,121 895,131.4 890.8,133.6 		"/>
		<polygon class="st16" points="896.2,130.8 896.6,118.5 908.7,112.2 908.2,124.4 		"/>
		<polygon class="st16" points="909.8,111.6 920,106.2 925.6,112.6 925.5,115.3 909.3,123.8 		"/>
		<polygon class="st18" points="926.7,112.6 926.7,114.7 949.3,103.5 		"/>
		<polygon class="st18" points="926.8,112 926.7,112.6 943,99.5 943,98.7 		"/>
		<g>
			<polygon class="st10" points="928.4,114.3 929,114 926.3,112.3 925.6,112.6 			"/>
			<polygon class="st9" points="928.3,116.5 928.4,114.3 925.6,112.6 925.5,114.8 			"/>
			<polygon class="st15" points="929,114 928.4,114.3 928.3,116.5 928.9,116.2 			"/>
		</g>
		<polygon class="st4" points="926.7,112.6 943,99.5 949.3,103.5 		"/>
		<polygon class="st17" points="947,108.7 949.1,107.6 949.2,104.3 947.1,105.4 		"/>
	</g>
</g>
<g class="pin10">
	<polygon class="st21" points="925.3,13 925.3,77.1 912.2,77.1 894.5,97.1 876.9,77.1 863.8,77.1 863.8,13 	"/>
	<path id="Page-1_1_" class="st15" d="M887.3,46l7-17.3l6.8,17.3H887.3z M916.7,64.8c-1.1-1.1-2.4-2.9-3.6-5.8
		c-2.3-5.5-14.6-36.1-14.6-36.1h-9.9V23c0,0,0.9,0.5,1.2,1c0.3,0.6,0.5,1.5,0,2.6C889,28.8,877.5,58.8,877,60
		c-2.1,5.4-4.9,6.1-4.9,6.1v0.1h11.3V66c0,0-0.3-0.1-0.4-0.1c-0.8-0.4-2.1-1.9-1.6-3.8c0.7-2.5,4.5-12.2,4.5-12.2h16.9l4.3,9.8
		c1.2,2.9,0.9,5.5-0.5,6.1c-0.3,0.1-0.5,0.1-0.5,0.1l0,0.3h12.3V66C918.4,66,917.5,65.6,916.7,64.8L916.7,64.8z"/>
</g>
</svg>
