<?xml version="1.0" encoding="utf-8"?>
<svg version="1.1" id="Layer_1" xmlns="http://www.w3.org/2000/svg" xmlns:xlink="http://www.w3.org/1999/xlink" x="0px" y="0px"
	 viewBox="0 0 12735.1 7064.6" style="enable-background:new 0 0 12735.1 7064.6;" xml:space="preserve" class="illustration illustration6">
<g>
	<g>
		<rect id="XMLID_20_" y="0" class="st0" width="12735.1" height="7064.6"/>
	</g>
</g>
<g id="Car">
	<polygon id="Car_x5F_shadow" class="st1" points="6244.5,4158.6 6002,4018.4 6475.8,3745.8 6718.9,3885.8 	"/>
	<g id="Car_1_">
		<polygon class="st2" points="6320.2,4055.1 6616.4,3891.2 6594.8,3859.6 6292.6,4027.1 		"/>
		<g>
			<polygon class="st3" points="6176,3880.3 6180.1,3877.9 6162.2,3867.6 6158.1,3869.9 			"/>
			<polygon class="st4" points="6176,3894.2 6176,3880.3 6158.1,3869.9 6158.1,3883.9 			"/>
			<polygon class="st5" points="6180.1,3877.9 6176,3880.3 6176,3894.2 6180.1,3891.9 			"/>
		</g>
		<path class="st0" d="M6468.1,3918.1l-124.9,72.1l-145.9,88.6l0,59.3l68.7-26.4c-0.1-1.1-0.1-16.6-0.1-16.6
			c0-12,4.9-26.7,12.6-39.7c7.2-12.4,16.9-23.3,27.2-29.2c10.1-5.8,20-5.8,27.4-1.5c7.5,4.3,12.4,13,12.4,24.5
			c0,1.2,0,15.1-0.1,16.3l122.8-70.9l59.1-33.9c-0.1-1.1-0.1-15.1-0.1-16.3c0-12,4.9-26.7,12.6-39.7c7.2-12.4,16.9-23.3,27.2-29.2
			c10.1-5.8,20-5.8,27.4-1.5c7.5,4.3,12.4,13,12.4,24.5c0,0,0,15.4-0.1,16.6l45.6-35.1v-68L6468.1,3918.1z"/>
		<g>
			<path class="st6" d="M6266,4108.4l21.2,12.3C6287.2,4120.7,6276.1,4114.2,6266,4108.4L6266,4108.4z"/>
			<path class="st7" d="M6275.3,4097.8c0-11.2,4.6-24.9,11.7-37c6.8-11.5,15.8-21.7,25.4-27.2c9.4-5.4,18.6-5.4,25.6-1.4l-18.3-10.5
				c-4.5,0.3-9.2,1.8-14,4.5c-10.3,6-20,16.9-27.3,29.3c-7.7,13.1-12.6,27.8-12.6,39.8c0,1.2,0.1,12.1,0.1,13.2
				c10.1,5.8,21.2,12.3,21.2,12.3C6280.1,4116.9,6275.3,4108.9,6275.3,4097.8z"/>
			<path class="st2" d="M6338,4032.1c-6.9-4-16.2-4-25.6,1.4c-9.6,5.5-18.6,15.7-25.4,27.2c-7.1,12.2-11.7,25.8-11.7,37
				c0,11.1,4.8,19.1,11.9,22.9c7,3.9,16.3,3.6,25.2-1.5c10.1-5.8,19.4-16.7,26.2-28.7c6.7-12,10.9-25.1,10.9-35.6
				C6349.6,4044.2,6344.9,4036.1,6338,4032.1z M6327.3,4084c-12.6,22-26.4,28.4-33.2,24.6l0,0c-1.1-0.6-2-1.6-2.8-2.8
				c-4.2-6.6-3.5-21.5,6.5-38.9c9.3-16.3,21.5-24,29.2-23.8c1.5,0,2.9,0.4,4,1c0,0,0,0,0,0C6338.1,4048.5,6338.6,4064.3,6327.3,4084
				z"/>
			<path class="st8" d="M6327.3,4084c-12.6,22-26.4,28.4-33.2,24.6l0,0c-1.1-0.6-2-1.6-2.8-2.8c1.5,0,3.1-0.2,4.9-0.9
				c7-2.4,16-10.1,24.4-24.7c7.7-13.4,9.9-24.9,8.3-32.3c-0.4-1.9-1-3.5-1.9-4.8c1.5,0,2.9,0.4,4,1c0,0,0,0,0,0
				C6338.1,4048.5,6338.6,4064.3,6327.3,4084z"/>
			<path class="st9" d="M6320.6,4080.3c-8.4,14.6-17.3,22.3-24.4,24.7c-1.8,0.6-3.4,0.9-4.9,0.9c-4.2-6.6-3.5-21.5,6.5-38.9
				c9.3-16.3,21.5-24,29.2-23.8c0.9,1.3,1.5,2.9,1.9,4.8C6330.5,4055.4,6328.2,4066.9,6320.6,4080.3z"/>
		</g>
		<g>
			<path class="st6" d="M6599.3,3881.3c7,4,11.6,12.1,11.6,22.8c0,10.5-4.2,23.6-10.9,35.6c-6.8,12-16.1,22.9-26.2,28.7
				c-8.9,5.2-18.2,5.4-25.3,1.5l29.4,17l47.5-90.5L6599.3,3881.3z"/>
			<path class="st6" d="M6527.3,3957.6l21.2,12.3C6548.5,3969.9,6537.4,3963.4,6527.3,3957.6L6527.3,3957.6z"/>
			<path class="st7" d="M6536.6,3947c0-11.2,4.6-24.9,11.7-37c6.8-11.5,15.8-21.7,25.4-27.2c9.4-5.4,18.6-5.4,25.6-1.4l-18.3-10.5
				c-4.5,0.3-9.2,1.8-14,4.5c-10.3,6-20,16.9-27.3,29.3c-7.7,13.1-12.6,27.8-12.6,39.8c0,0,0,12,0.1,13.2
				c10.1,5.8,21.2,12.3,21.2,12.3C6541.4,3966.1,6536.6,3958.1,6536.6,3947z"/>
			<path class="st2" d="M6610.9,3904.1c0,10.5-4.2,23.6-11,35.6c-6.8,12-16.1,22.9-26.2,28.7c-8.9,5.1-18.2,5.4-25.2,1.5
				s-11.9-11.8-11.9-22.9c0-11.2,4.6-24.9,11.7-37.1c6.8-11.5,15.8-21.7,25.4-27.2c9.4-5.4,18.6-5.4,25.6-1.4l-7,12.1c0,0,0,0,0,0
				c-1.1-0.6-2.5-1-4-1c-7.7-0.2-19.9,7.5-29.2,23.8c-9.9,17.3-10.7,32.3-6.5,38.9c0.8,1.2,1.7,2.1,2.7,2.7l0,0
				c6.7,3.8,20.6-2.6,33.2-24.6c11.3-19.7,10.8-35.5,3.7-39.8l7-12.1C6606.3,3885.3,6610.9,3893.4,6610.9,3904.1z"/>
			<path class="st8" d="M6588.6,3933.2c-12.6,22-26.4,28.4-33.2,24.6l0,0c-1.1-0.6-2-1.6-2.7-2.7c1.5,0,3.1-0.2,4.9-0.8
				c7-2.4,16-10.1,24.4-24.7c7.7-13.4,9.9-24.9,8.3-32.3c-0.4-1.9-1-3.5-1.9-4.8c1.5,0.1,2.9,0.4,4,1c0,0,0,0,0,0
				C6599.4,3897.7,6599.9,3913.5,6588.6,3933.2z"/>
			<path class="st9" d="M6581.9,3929.5c-8.4,14.6-17.3,22.3-24.4,24.7c-1.8,0.6-3.4,0.9-4.9,0.8c-4.3-6.6-3.5-21.5,6.5-38.9
				c9.3-16.3,21.5-24,29.2-23.8c0.9,1.3,1.5,2.9,1.9,4.8C6591.8,3904.6,6589.5,3916.1,6581.9,3929.5z"/>
		</g>
		<polygon class="st10" points="6197.3,4078.8 6156.2,4055.1 6156.2,4050.7 6069,4000.4 6069,4004.7 6027.4,3980.7 6027.4,4040 
			6197.3,4138.1 		"/>
		<polygon class="st11" points="6156.2,4050.7 6069,4000.4 6173.5,3874.6 6343.3,3972.8 		"/>
		<polygon class="st10" points="6343.3,3972.8 6387.6,3877.5 6217.7,3779.3 6173.5,3874.6 		"/>
		<polygon class="st12" points="6343.3,3976.7 6197.3,4078.8 6343.3,3990.2 		"/>
		<polygon class="st13" points="6580.7,3853.2 6652.2,3811.8 6644.4,3798.9 6580.7,3835.7 		"/>
		<polygon class="st0" points="6343.3,3972.8 6343.3,3990.2 6350.4,3986.1 6350.4,3976.2 6393.7,3883 6464.6,3842.1 6464.6,3920.1 
			6471.7,3916 6471.7,3838 6540.3,3798.6 6540.2,3876.5 6547.3,3872.4 6547.3,3807.3 6573.6,3839.8 6573.6,3857.3 6580.7,3853.2 
			6580.7,3835.7 6542.3,3788.2 6387.6,3877.5 		"/>
		<polygon class="st10" points="6197.3,4078.8 6156.2,4055.1 6343.3,3976.7 		"/>
		<polygon class="st12" points="6156.2,4055.1 6156.2,4050.7 6343.3,3972.8 6343.3,3976.7 		"/>
		<polygon class="st2" points="6073.4,4007.3 6073.4,4037.8 6151.8,4083.3 6151.8,4052.5 		"/>
		<polygon class="st10" points="6027.4,3980.7 6069,4004.7 6069,4000.4 6173.5,3874.6 		"/>
		<polygon class="st14" points="6158.3,4061 6197.3,4083.5 6197.3,4105 6158.3,4082.4 		"/>
		<polygon class="st14" points="6027.4,3985.5 6066.4,4008 6066.4,4029.5 6027.4,4006.9 		"/>
		<polygon class="st15" points="6197.3,4105 6210.4,4097.4 6210.4,4075.9 6197.3,4083.5 		"/>
		<polygon class="st16" points="6027.4,4011.6 6027.4,4015.6 6197.3,4113.7 6253.6,4081.2 6257.2,4083.3 6197.3,4118 6020.2,4015.8 
					"/>
		<polygon class="st17" points="6020.2,4015.8 6020.2,4028.8 6197.3,4131.1 6197.3,4118 		"/>
		<path class="st18" d="M6197.3,4131.1c0.9-0.7,59.9-34.6,59.9-34.6v-13.2l-59.9,34.7V4131.1z"/>
		<polygon class="st10" points="6217.7,3779.3 6372.3,3690.1 6542.3,3788.2 6387.6,3877.5 		"/>
		<g>
			<polygon class="st19" points="6442.5,3944.4 6440.6,3943.3 6460.3,3932 6462.2,3933.1 			"/>
			<polygon class="st20" points="6442.5,3948.8 6442.5,3944.4 6462.2,3933.1 6462.2,3937.4 			"/>
			<polygon class="st2" points="6440.6,3943.3 6442.5,3944.4 6442.5,3948.9 6440.6,3947.8 			"/>
		</g>
		<g>
			<polygon class="st19" points="6517.6,3901 6515.8,3900 6535.4,3888.6 6537.3,3889.7 			"/>
			<polygon class="st20" points="6517.6,3905.4 6517.6,3901 6537.3,3889.7 6537.3,3894.1 			"/>
			<polygon class="st2" points="6515.8,3900 6517.6,3901 6517.6,3905.5 6515.8,3904.5 			"/>
		</g>
		<polygon class="st19" points="6614.4,3877.5 6610.6,3875.4 6652.2,3851.1 6652.2,3847.3 6659.2,3851.4 		"/>
		<polygon class="st18" points="6614.4,3886.2 6614.4,3877.5 6659.2,3851.4 6659.2,3860.1 		"/>
		<polygon class="st21" points="6610.6,3875.4 6614.4,3877.5 6614.4,3886.2 6610.6,3884.1 		"/>
		<polygon class="st22" points="6336.5,3968.8 6380.7,3873.6 6224.5,3783.3 6180.3,3878.5 		"/>
		<polygon class="st22" points="6350.4,3976.2 6350.4,3986.1 6464.6,3920.1 6464.6,3842.1 6393.7,3883 		"/>
		<polygon class="st22" points="6471.7,3838 6471.7,3916 6540.2,3876.5 6540.3,3798.6 		"/>
		<polygon class="st22" points="6547.3,3872.4 6547.3,3807.3 6573.6,3839.8 6573.6,3857.3 		"/>
		<g>
			<polygon class="st19" points="6383.4,3867.6 6379.7,3865.4 6529.2,3779.1 6533,3781.3 			"/>
			<polygon class="st20" points="6380.7,3873.6 6383.4,3867.6 6533,3781.3 6535.4,3784.2 			"/>
			<polygon class="st2" points="6379.7,3865.4 6383.4,3867.6 6380.7,3873.6 6376.9,3871.4 			"/>
		</g>
		<g>
			<polygon class="st19" points="6231.1,3779.5 6227.3,3777.4 6376.9,3691 6380.6,3693.2 			"/>
			<polygon class="st20" points="6228.3,3785.5 6231.1,3779.5 6380.6,3693.2 6383,3696.2 			"/>
			<polygon class="st2" points="6227.3,3777.4 6231.1,3779.5 6228.3,3785.5 6224.5,3783.3 			"/>
		</g>
		<g>
			<polygon class="st3" points="6364.3,3988.9 6368.3,3986.6 6350.4,3976.2 6346.4,3978.6 			"/>
			<polygon class="st4" points="6364.3,4002.9 6364.3,3988.9 6346.4,3978.6 6346.4,3992.5 			"/>
			<polygon class="st23" points="6368.3,3986.6 6364.3,3988.9 6364.3,4002.9 6368.3,4000.5 			"/>
		</g>
		<polygon class="st11" points="6433.9,3725.6 6475.6,3701.5 6644.4,3798.9 6580.7,3835.7 6542.3,3788.2 		"/>
	</g>
</g>
<g id="Light">
	<polyline class="st24" points="6158.3,4061 5816,4265.3 6060.3,4331.3 6197.3,4105 6197.3,4083.5 6158.3,4061 	"/>
	<polyline class="st24" points="6027.5,3985.5 5685.1,4189.8 5929.4,4255.8 6066.8,4029.5 6066.8,4008 6027.5,3985.5 	"/>
	<ellipse class="st25" cx="5932.2" cy="4308.4" rx="133.5" ry="77.5"/>
	<ellipse class="st25" cx="5797.2" cy="4233.4" rx="133.5" ry="77.5"/>
</g>
<g id="_x31_">
	<polygon class="st1" points="5843.3,3850.1 5805.5,3901.3 5766.8,3902.6 5744.6,3937 5717.6,3937.3 5659.3,3984.1 5818.2,3964.8 
		5820,3952.8 5912.4,3948.5 5915.1,3933.4 6015.6,3924.4 6045.3,3902.4 5990.5,3881.9 6027.5,3869.4 6016.8,3863.1 5976.6,3876.7 
		5921.3,3856.1 	"/>
	<g>
		<g>
			<g>
				<polygon class="st26" points="6027.5,3869.4 6028.8,3744.4 6039,3733.6 6037.7,3863.5 				"/>
				<polygon class="st27" points="6028.8,3744.4 6018.1,3731.8 6016.8,3863.1 6027.5,3869.4 				"/>
			</g>
			<g>
				<polygon class="st28" points="5935.3,3809 5988.8,3618.2 6052.7,3616.8 6092.2,3816.4 				"/>
				<polygon class="st27" points="5881.6,3720 5935.3,3809 5988.8,3618.2 5950.1,3593.1 				"/>
				<polygon class="st10" points="6092.2,3816.4 6185.7,3752 6102.9,3593.1 6052.7,3616.8 				"/>
			</g>
			<g>
				<polygon class="st29" points="5917.5,3614 5984.4,3499.1 6011.4,3517.2 5990.7,3662.6 				"/>
				<polygon class="st30" points="6134,3591.2 6078.3,3499.1 6046.8,3515.4 6096.5,3650.1 				"/>
				<polygon class="st28" points="5990.7,3662.6 6096.5,3650.1 6046.8,3515.4 6011.4,3517.2 				"/>
			</g>
			<g>
				<polygon class="st29" points="5949.9,3486.7 5974.9,3531.8 6037.4,3356.3 				"/>
				<polygon class="st10" points="6120.7,3510.7 6037.4,3356.3 6056,3547.5 				"/>
				<polygon class="st28" points="5974.9,3531.8 6056,3547.5 6037.4,3356.3 				"/>
			</g>
			<polygon class="st31" points="5974.9,3531.8 6006.3,3551.6 6064.9,3562.1 6109.8,3550.7 6094.1,3525.8 6056,3547.5 			"/>
			<polygon class="st32" points="5917.5,3614 5977.1,3659.6 5992.5,3671.7 6064.6,3677.7 6141.5,3667.1 6116,3619 6096.5,3650.1 
				5990.7,3662.6 			"/>
		</g>
	</g>
</g>
<g id="_x33_">
	<g id="XMLID_65_">
		<g id="XMLID_107_">
			<polygon id="XMLID_127_" class="st1" points="2456.8,5443.5 2416.5,5498.1 2375.2,5499.5 2351.5,5536.3 2322.7,5536.6 
				2260.4,5586.5 2430,5566 2432,5553.1 2530.6,5548.5 2533.5,5532.4 2640.8,5522.8 2672.5,5499.3 2614.1,5477.4 2653.5,5464.1 
				2642.1,5457.4 2599.2,5471.9 2540.1,5449.8 			"/>
			<g id="XMLID_108_">
				<g id="XMLID_123_">
					<polygon id="XMLID_126_" class="st33" points="2652,5189 2675.2,5202.5 2655,5214 2631.9,5200.5 					"/>
					<polygon id="XMLID_125_" class="st26" points="2653.5,5464.1 2655,5330.6 2665.8,5319.1 2664.5,5457.7 					"/>
					<polygon id="XMLID_124_" class="st27" points="2655,5330.6 2643.5,5317.2 2642.1,5457.4 2653.5,5464.1 					"/>
				</g>
				<g id="XMLID_119_">
					<polygon id="XMLID_122_" class="st28" points="2555.1,5399.6 2612.3,5195.8 2680.4,5194.4 2722.6,5407.5 					"/>
					<polygon id="XMLID_121_" class="st29" points="2497.8,5304.6 2555.1,5399.6 2612.3,5195.8 2570.9,5169 					"/>
					<polygon id="XMLID_120_" class="st10" points="2722.6,5407.5 2822.5,5338.7 2734,5169 2680.4,5194.4 					"/>
				</g>
				<g id="XMLID_115_">
					<polygon id="XMLID_118_" class="st29" points="2536.1,5191.4 2607.6,5068.6 2636.4,5088 2614.3,5243.3 					"/>
					<polygon id="XMLID_117_" class="st10" points="2767.2,5167 2707.8,5068.6 2674.1,5086.1 2727.2,5229.9 					"/>
					<polygon id="XMLID_116_" class="st28" points="2614.3,5243.3 2727.2,5229.9 2674.1,5086.1 2636.4,5088 					"/>
				</g>
				<g id="XMLID_111_">
					<polygon id="XMLID_114_" class="st29" points="2570.7,5055.5 2597.4,5103.5 2664.1,4916.2 					"/>
					<polygon id="XMLID_113_" class="st10" points="2753,5081 2664.1,4916.2 2684,5120.3 					"/>
					<polygon id="XMLID_112_" class="st28" points="2597.4,5103.5 2684,5120.3 2664.1,4916.2 					"/>
				</g>
				<polygon id="XMLID_110_" class="st31" points="2597.4,5103.5 2630.9,5124.8 2693.4,5135.9 2741.4,5123.8 2724.7,5097.2 
					2684,5120.3 				"/>
				<polygon id="XMLID_109_" class="st32" points="2536.1,5191.4 2599.7,5240 2616.2,5252.9 2693.2,5259.4 2775.2,5248.1 
					2748.1,5196.7 2727.2,5229.9 2614.3,5243.3 				"/>
			</g>
		</g>
		<g id="XMLID_86_">
			<polygon id="XMLID_106_" class="st1" points="2835,5504.9 2790,5566 2743.8,5567.5 2729.2,5590.2 2689.8,5587.2 2653.4,5636.5 
				2616.1,5637.7 2594.8,5670.9 2568.8,5671.2 2512.6,5716.3 2665.6,5697.7 2667.4,5686.1 2756.4,5681.9 2759,5667.4 2855.9,5658.8 
				2884.4,5637.5 2851.9,5625.3 2917.5,5622.2 2920.7,5604.2 3040.7,5593.6 3076,5567.2 3010.7,5542.9 3054.8,5527.9 3042.1,5520.4 
				2994.1,5536.7 2928.1,5512 			"/>
			<g id="XMLID_87_">
				<g id="XMLID_102_">
					<polygon id="XMLID_105_" class="st33" points="3053.1,5220.6 3079,5235.6 3056.5,5248.4 3030.6,5233.4 					"/>
					<polygon id="XMLID_104_" class="st26" points="3054.8,5527.9 3056.5,5378.7 3068.5,5365.9 3067,5520.8 					"/>
					<polygon id="XMLID_103_" class="st27" points="3056.5,5378.7 3043.7,5363.8 3042.1,5520.4 3054.8,5527.9 					"/>
				</g>
				<g id="XMLID_98_">
					<polygon id="XMLID_101_" class="st28" points="2944.8,5455.9 3008.7,5228.1 3084.9,5226.6 3132,5464.7 					"/>
					<polygon id="XMLID_100_" class="st29" points="2880.8,5349.7 2944.8,5455.9 3008.7,5228.1 2962.5,5198.2 					"/>
					<polygon id="XMLID_99_" class="st10" points="3132,5464.7 3243.7,5387.8 3144.8,5198.2 3084.9,5226.6 					"/>
				</g>
				<g id="XMLID_94_">
					<polygon id="XMLID_97_" class="st29" points="2923.6,5223.2 3003.5,5086 3035.7,5107.7 3011,5281.2 					"/>
					<polygon id="XMLID_96_" class="st10" points="3181.9,5195.9 3115.5,5086 3077.9,5105.6 3137.1,5266.3 					"/>
					<polygon id="XMLID_95_" class="st28" points="3011,5281.2 3137.1,5266.3 3077.9,5105.6 3035.7,5107.7 					"/>
				</g>
				<g id="XMLID_90_">
					<polygon id="XMLID_93_" class="st29" points="2962.3,5071.3 2992.1,5125 3066.7,4915.7 					"/>
					<polygon id="XMLID_92_" class="st10" points="3166,5099.9 3066.7,4915.7 3088.9,5143.8 					"/>
					<polygon id="XMLID_91_" class="st28" points="2992.1,5125 3088.9,5143.8 3066.7,4915.7 					"/>
				</g>
				<polygon id="XMLID_89_" class="st31" points="2992.1,5125 3029.5,5148.8 3099.4,5161.2 3153.1,5147.7 3134.3,5117.9 
					3088.9,5143.8 				"/>
				<polygon id="XMLID_88_" class="st32" points="2923.6,5223.2 2994.7,5277.5 3013.1,5292 3099.2,5299.2 3190.8,5286.6 
					3160.5,5229.1 3137.1,5266.3 3011,5281.2 				"/>
			</g>
		</g>
		<g id="XMLID_66_">
			<g id="XMLID_67_">
				<g id="XMLID_82_">
					<polygon id="XMLID_85_" class="st33" points="2865.9,5357.6 2886.9,5369.7 2868.7,5380.1 2847.8,5367.9 					"/>
					<polygon id="XMLID_84_" class="st26" points="2867.3,5605.8 2868.6,5485.3 2878.4,5474.9 2877.2,5600.1 					"/>
					<polygon id="XMLID_83_" class="st27" points="2868.6,5485.3 2858.3,5473.2 2857,5599.7 2867.3,5605.8 					"/>
				</g>
				<g id="XMLID_78_">
					<polygon id="XMLID_81_" class="st28" points="2778.5,5547.6 2830.1,5363.7 2891.6,5362.4 2929.7,5554.7 					"/>
					<polygon id="XMLID_80_" class="st29" points="2726.8,5461.8 2778.5,5547.6 2830.1,5363.7 2792.7,5339.5 					"/>
					<polygon id="XMLID_79_" class="st10" points="2929.7,5554.7 3019.8,5492.6 2940,5339.5 2891.6,5362.4 					"/>
				</g>
				<g id="XMLID_74_">
					<polygon id="XMLID_77_" class="st29" points="2761.3,5359.7 2825.8,5248.9 2851.9,5266.4 2831.9,5406.5 					"/>
					<polygon id="XMLID_76_" class="st10" points="2969.9,5337.7 2916.3,5248.9 2885.9,5264.7 2933.8,5394.5 					"/>
					<polygon id="XMLID_75_" class="st28" points="2831.9,5406.5 2933.8,5394.5 2885.9,5264.7 2851.9,5266.4 					"/>
				</g>
				<g id="XMLID_70_">
					<polygon id="XMLID_73_" class="st29" points="2792.6,5237.1 2816.7,5280.4 2876.9,5111.4 					"/>
					<polygon id="XMLID_72_" class="st10" points="2957.1,5260.1 2876.9,5111.4 2894.8,5295.6 					"/>
					<polygon id="XMLID_71_" class="st28" points="2816.7,5280.4 2894.8,5295.6 2876.9,5111.4 					"/>
				</g>
				<polygon id="XMLID_69_" class="st31" points="2816.7,5280.4 2846.9,5299.6 2903.3,5309.6 2946.7,5298.7 2931.5,5274.7 
					2894.8,5295.6 				"/>
				<polygon id="XMLID_68_" class="st32" points="2761.3,5359.7 2818.7,5403.6 2833.6,5415.2 2903.1,5421.1 2977.1,5410.9 
					2952.6,5364.5 2933.8,5394.5 2831.9,5406.5 				"/>
			</g>
		</g>
	</g>
</g>
<g id="_x34_">
	<polygon class="st1" points="3682.1,5073.1 3603.7,5083.3 3553.5,5065.8 3549.2,5003.2 3600.7,4968.6 	"/>
	<polygon class="st1" points="3460.4,5096.7 3420.4,5102 3394.8,5093 3392.6,5061.1 3418.9,5043.4 	"/>
	<g>
		<g>
			<g>
				<polygon class="st10" points="3769.6,4888.6 3816.4,5000.2 3741.4,4996.1 				"/>
				<polygon class="st29" points="3576.6,4944.4 3660.7,4911.7 3644.2,4871.2 				"/>
				<polygon class="st28" points="3682.1,5073.1 3741.4,4996.1 3816.4,5000.2 				"/>
				<polygon class="st29" points="3682.1,5073.1 3741.4,4996.1 3660.7,4911.7 3594,5029.7 				"/>
				<polygon class="st10" points="3660.7,4911.7 3769.6,4888.6 3644.2,4871.2 				"/>
				<polygon class="st28" points="3576.6,4944.4 3660.7,4911.7 3594,5029.7 				"/>
			</g>
		</g>
		<polygon class="st28" points="3660.7,4911.7 3769.6,4888.6 3741.4,4996.1 		"/>
	</g>
	<g>
		<g>
			<g>
				<polygon class="st10" points="3505,5002.6 3528.9,5059.6 3490.6,5057.5 				"/>
				<polygon class="st29" points="3406.6,5031.1 3449.5,5014.4 3441,4993.8 				"/>
				<polygon class="st28" points="3460.4,5096.7 3490.6,5057.5 3528.9,5059.6 				"/>
				<polygon class="st29" points="3460.4,5096.7 3490.6,5057.5 3449.5,5014.4 3415.4,5074.6 				"/>
				<polygon class="st29" points="3449.5,5014.4 3505,5002.6 3441,4993.8 				"/>
				<polygon class="st10" points="3406.6,5031.1 3449.5,5014.4 3415.4,5074.6 				"/>
			</g>
		</g>
		<polygon class="st28" points="3449.5,5014.4 3505,5002.6 3490.6,5057.5 		"/>
	</g>
</g>
<g id="_x32__2_">
	<g id="_x32__1_">
		<polygon id="XMLID_166_" class="st1" points="4540.6,4680.7 4564.2,4690.2 4560.6,4692.3 4579,4699.7 4722.1,4617.1 
			4707.8,4608.8 4686.7,4600.4 4683.9,4610.4 4555.7,4678.8 4555.7,4682 4545.4,4677.9 		"/>
		<g id="XMLID_2_">
			<g id="XMLID_164_">
				<polygon id="XMLID_165_" class="st10" points="4685,4606.4 4562.5,4677.1 4525.1,4655.4 4647.6,4584.8 4685.3,4605.6 				"/>
			</g>
			<g id="XMLID_162_">
				<polygon id="XMLID_163_" class="st29" points="4696.3,4567 4683.9,4610.4 4560.6,4681.6 4573,4638.2 				"/>
			</g>
			<g id="XMLID_160_">
				<polygon id="XMLID_161_" class="st28" points="4573,4638.2 4560.6,4681.6 4525.1,4661.1 4525.1,4655.4 4557.2,4674 
					4568.3,4635.5 				"/>
			</g>
			<g id="XMLID_158_">
				<polygon id="XMLID_159_" class="st34" points="4573,4638.2 4568.3,4635.5 4691.6,4564.3 4696.3,4567.1 				"/>
			</g>
			<g id="XMLID_155_">
				<polygon id="XMLID_157_" class="st10" points="4535.7,4667.3 4540.6,4670.1 4540.6,4680.7 4535.7,4677.9 				"/>
				<polygon id="XMLID_156_" class="st29" points="4540.6,4680.7 4545.4,4677.9 4545.4,4672.9 4540.6,4670.1 				"/>
			</g>
			<g id="XMLID_152_">
				<polygon id="XMLID_154_" class="st10" points="4555.7,4678.8 4560.6,4681.6 4560.6,4692.3 4555.7,4689.5 				"/>
				<polygon id="XMLID_153_" class="st29" points="4560.6,4692.3 4565.5,4689.5 4565.5,4678.8 4560.6,4681.6 				"/>
			</g>
			<g id="XMLID_11_">
				<polygon id="XMLID_151_" class="st28" points="4674.1,4616.1 4679,4613.3 4679,4623.9 4674.1,4621.1 				"/>
				<polygon id="XMLID_150_" class="st29" points="4679,4623.9 4683.9,4621.1 4683.9,4610.4 4679,4613.3 				"/>
			</g>
		</g>
	</g>
	<g id="_x32_">
		<polygon class="st1" points="4525.1,4360.8 4464.8,4338.9 4396,4347.2 4320.6,4383.7 4324.5,4462.5 4390.8,4504.9 4442.2,4495.3 
			4482.6,4524.5 4519.8,4507.8 4522.4,4484.8 4556.9,4469.6 4556.9,4443.3 4525.3,4420.1 4566.9,4425.8 4644.5,4406.5 
			4629.2,4397.7 4562,4415.3 4515.5,4406.5 		"/>
		<g id="Group_1_1_">
			<g>
				<g>
					<g>
						<polygon class="st35" points="4659.6,4296.9 4639,4320.9 4644.2,4406.7 4659.5,4397.9 						"/>
						<polygon class="st36" points="4659.6,4296.9 4639,4320.9 4627,4224.6 4633.6,4214.7 						"/>
						<polygon class="st35" points="4610.9,4198.9 4604.4,4197.6 4627,4224.6 4633.6,4214.7 						"/>
						<polygon class="st36" points="4623.2,4159.7 4615.4,4151.2 4604.4,4197.6 4610.9,4198.9 						"/>
						<polygon class="st37" points="4619,4323.6 4628.9,4397.9 4644.2,4406.7 4639,4320.9 						"/>
						<polygon class="st38" points="4619,4323.6 4623,4222.8 4627,4224.6 4639,4320.9 						"/>
						<polygon class="st39" points="4598.6,4198.9 4611.7,4148.2 4615.4,4151.2 4604.4,4197.6 						"/>
						<polygon class="st37" points="4604.4,4197.6 4598.6,4198.9 4623,4222.8 4627,4224.6 						"/>
					</g>
					<g>
						<polygon class="st40" points="4462.7,4080.4 4477.5,4050.6 4563.1,4097.4 4521,4152 						"/>
						<polygon class="st41" points="4477.5,4050.6 4563.1,4097.4 4505.6,4005.7 						"/>
						<polygon class="st42" points="4732.2,3975.4 4732.1,4011.1 4641.3,3971 4652.1,3930.4 						"/>
						<polygon class="st28" points="4732.1,4011.1 4732.2,3975.4 4775.5,4044.3 4775.5,4107.9 						"/>
						<polygon class="st43" points="4656.7,4181.3 4612,4080.5 4703,4132.8 						"/>
						<polygon class="st30" points="4703,4132.8 4732.1,4011.1 4775.5,4107.9 						"/>
						<polygon class="st44" points="4533,3939 4612,4080.5 4641.3,3971 						"/>
						<polygon class="st45" points="4612,4080.5 4732.1,4011.1 4641.3,3971 						"/>
						<polygon class="st10" points="4533,3939 4505.6,4005.7 4563.1,4097.4 4612,4080.5 						"/>
						<polygon class="st28" points="4656.7,4181.3 4521,4152 4563.1,4097.4 4612,4080.5 						"/>
						<polygon class="st10" points="4703,4132.8 4612,4080.5 4732.1,4011.1 						"/>
					</g>
					<g>
						<g>
							<g>
								<polygon class="st10" points="4657.4,4164.8 4598.6,4258.4 4679.8,4250.3 								"/>
								<polygon class="st28" points="4810.8,4209.3 4744,4183.3 4757.1,4151.1 								"/>
								<polygon class="st29" points="4726.8,4311.6 4679.8,4250.3 4598.6,4258.4 								"/>
								<polygon class="st28" points="4726.8,4311.6 4679.8,4250.3 4744,4183.3 4797,4277.2 								"/>
								<polygon class="st10" points="4744,4183.3 4657.4,4164.8 4757.1,4151.1 								"/>
								<polygon class="st30" points="4810.8,4209.3 4744,4183.3 4797,4277.2 								"/>
							</g>
						</g>
						<polygon class="st0" points="4744,4183.3 4657.4,4164.8 4679.8,4250.3 						"/>
					</g>
					<polygon class="st10" points="4652.1,3930.4 4533,3939 4641.3,3971 					"/>
				</g>
			</g>
		</g>
	</g>
	<g>
		<polygon class="st1" points="4320.2,4709.5 4271.5,4715.9 4240.4,4705 4237.6,4666.1 4269.7,4644.6 		"/>
		<g>
			<g>
				<g>
					<polygon class="st10" points="4374.5,4595 4403.6,4664.3 4357,4661.7 					"/>
					<polygon class="st29" points="4254.7,4629.6 4306.9,4609.3 4296.6,4584.2 					"/>
					<polygon class="st28" points="4320.2,4709.5 4357,4661.7 4403.6,4664.3 					"/>
					<polygon class="st29" points="4320.2,4709.5 4357,4661.7 4306.9,4609.3 4265.5,4682.6 					"/>
					<polygon class="st10" points="4306.9,4609.3 4374.5,4595 4296.6,4584.2 					"/>
					<polygon class="st28" points="4254.7,4629.6 4306.9,4609.3 4265.5,4682.6 					"/>
				</g>
			</g>
			<polygon class="st28" points="4306.9,4609.3 4374.5,4595 4357,4661.7 			"/>
		</g>
	</g>
</g>
<g id="Polosy">
	<g>
		<polygon class="st10" points="7465.1,3547.9 7586.8,3477.6 7600.8,3485.7 7479,3556 		"/>
		<polygon class="st10" points="7630,3452.7 7751.7,3382.4 7765.7,3390.5 7643.9,3460.8 		"/>
		<polygon class="st10" points="7794.9,3357.5 7916.6,3287.2 7930.7,3295.3 7808.8,3365.6 		"/>
		<polygon class="st10" points="7959.8,3262.3 8081.5,3192 8095.6,3200.1 7973.7,3270.4 		"/>
		<polygon class="st10" points="8125,3166.9 8246.7,3096.6 8260.8,3104.7 8139,3175 		"/>
		<polygon class="st10" points="8289.9,3071.7 8411.7,3001.4 8425.7,3009.4 8303.9,3079.8 		"/>
		<polygon class="st10" points="8454.9,2976.4 8576.6,2906.1 8590.7,2914.2 8468.9,2984.5 		"/>
		<polygon class="st10" points="8619.8,2881.3 8741.5,2811 8755.5,2819 8633.7,2889.3 		"/>
		<polygon class="st10" points="8784.4,2786.2 8906.1,2715.9 8920.2,2723.9 8798.3,2794.3 		"/>
		<polygon class="st10" points="8949.3,2691 9071.1,2620.6 9085.1,2628.7 8963.3,2699 		"/>
		<polygon class="st10" points="9114.3,2595.7 9236.1,2525.4 9250.1,2533.5 9128.3,2603.8 		"/>
		<polygon class="st10" points="9279.1,2500.6 9400.9,2430.2 9414.9,2438.3 9293.1,2508.6 		"/>
		<polygon class="st10" points="9444.1,2405.3 9565.8,2335 9579.9,2343.1 9458,2413.4 		"/>
	</g>
	<g>
		<polygon class="st10" points="5486,4690.6 5607.7,4620.2 5621.8,4628.3 5499.9,4698.6 		"/>
		<polygon class="st10" points="5650.9,4595.3 5772.6,4525 5786.7,4533.1 5664.8,4603.4 		"/>
		<polygon class="st10" points="5815.8,4500.1 5937.5,4429.8 5951.6,4437.9 5829.8,4508.2 		"/>
		<polygon class="st10" points="5980.8,4404.9 6102.5,4334.6 6116.5,4342.7 5994.7,4413 		"/>
		<polygon class="st10" points="6146,4309.5 6267.7,4239.2 6281.8,4247.3 6159.9,4317.6 		"/>
		<polygon class="st10" points="6310.9,4214.3 6432.6,4144 6446.7,4152.1 6324.8,4222.4 		"/>
		<polygon class="st10" points="6475.9,4119 6597.6,4048.7 6611.7,4056.8 6489.8,4127.1 		"/>
		<polygon class="st10" points="6640.7,4023.9 6762.4,3953.6 6776.5,3961.6 6654.7,4032 		"/>
		<polygon class="st10" points="6805.4,3928.8 6927.1,3858.5 6941.1,3866.6 6819.3,3936.9 		"/>
		<polygon class="st10" points="6970.3,3833.6 7092,3763.3 7106.1,3771.3 6984.2,3841.6 		"/>
		<polygon class="st10" points="7135.3,3738.3 7257,3668 7271.1,3676.1 7149.2,3746.4 		"/>
		<polygon class="st10" points="7300.1,3643.2 7421.8,3572.9 7435.9,3580.9 7314,3651.2 		"/>
		<polygon class="st10" points="7465.1,3547.9 7586.8,3477.6 7600.8,3485.7 7479,3556 		"/>
	</g>
	<g>
		<polygon class="st10" points="3508.4,5833.2 3630.1,5762.9 3644.2,5770.9 3522.4,5841.2 		"/>
		<polygon class="st10" points="3673.3,5738 3795,5667.6 3809.1,5675.7 3687.3,5746 		"/>
		<polygon class="st10" points="3838.2,5642.8 3959.9,5572.4 3974,5580.5 3852.2,5650.8 		"/>
		<polygon class="st10" points="4003.2,5547.5 4124.9,5477.2 4138.9,5485.3 4017.1,5555.6 		"/>
		<polygon class="st10" points="4168.4,5452.1 4290.1,5381.8 4304.2,5389.9 4182.3,5460.2 		"/>
		<polygon class="st10" points="4333.3,5356.9 4455,5286.6 4469.1,5294.7 4347.2,5365 		"/>
		<polygon class="st10" points="4498.3,5261.7 4620,5191.3 4634.1,5199.4 4512.2,5269.7 		"/>
		<polygon class="st10" points="4663.1,5166.5 4784.8,5096.2 4798.9,5104.3 4677.1,5174.6 		"/>
		<polygon class="st10" points="4827.8,5071.4 4949.5,5001.1 4963.6,5009.2 4841.7,5079.5 		"/>
		<polygon class="st10" points="4992.7,4976.2 5114.4,4905.9 5128.5,4913.9 5006.6,4984.3 		"/>
		<polygon class="st10" points="5157.7,4880.9 5279.4,4810.6 5293.5,4818.7 5171.6,4889 		"/>
		<polygon class="st10" points="5322.5,4785.8 5444.2,4715.5 5458.3,4723.5 5336.4,4793.9 		"/>
		<polygon class="st10" points="5487.5,4690.6 5609.2,4620.2 5623.2,4628.3 5501.4,4698.6 		"/>
	</g>
	<g>
		<polygon class="st10" points="1529.4,6975.8 1651.1,6905.5 1665.2,6913.5 1543.3,6983.9 		"/>
		<polygon class="st10" points="1694.3,6880.6 1816,6810.3 1830.1,6818.3 1708.2,6888.7 		"/>
		<polygon class="st10" points="1859.2,6785.4 1980.9,6715.1 1995,6723.1 1873.1,6793.4 		"/>
		<polygon class="st10" points="2024.1,6690.2 2145.8,6619.8 2159.9,6627.9 2038.1,6698.2 		"/>
		<polygon class="st10" points="2189.4,6594.8 2311.1,6524.4 2325.1,6532.5 2203.3,6602.8 		"/>
		<polygon class="st10" points="2354.3,6499.5 2476,6429.2 2490.1,6437.3 2368.2,6507.6 		"/>
		<polygon class="st10" points="2519.3,6404.3 2641,6334 2655,6342 2533.2,6412.3 		"/>
		<polygon class="st10" points="2684.1,6309.1 2805.8,6238.8 2819.9,6246.9 2698,6317.2 		"/>
		<polygon class="st10" points="2848.7,6214 2970.4,6143.7 2984.5,6151.8 2862.7,6222.1 		"/>
		<polygon class="st10" points="3013.7,6118.8 3135.4,6048.5 3149.5,6056.6 3027.6,6126.9 		"/>
		<polygon class="st10" points="3178.7,6023.5 3300.4,5953.2 3314.5,5961.3 3192.6,6031.6 		"/>
		<polygon class="st10" points="3343.5,5928.4 3465.2,5858.1 3479.3,5866.2 3357.4,5936.5 		"/>
		<polygon class="st10" points="3508.4,5833.2 3630.1,5762.9 3644.2,5770.9 3522.4,5841.2 		"/>
	</g>
</g>
</svg>
