<svg width="1006" height="240" viewBox="0 0 1006 240" xmlns="http://www.w3.org/2000/svg"><title>Elements</title><g fill="none"><path fill="#231F20" opacity=".2" d="M838.585 187.18l-11.239 15.255-11.517.37-3.664 5.67-9.823-.74-9.084 12.296-9.3.308-5.327 8.29-6.466.061-14.011 11.248 38.153-4.622.461-2.897 22.202-1.048.647-3.636 24.142-2.126 7.144-5.3-8.13-3.082 16.382-.74.8-4.5 29.9-2.68 8.838-6.564-16.29-6.071 10.994-3.729-3.172-1.88-11.978 4.037-16.474-6.132z"/><path fill="#2D2D2D" d="M892.966 116.21l6.467 3.76-5.605 3.204-6.466-3.76z"/><path fill="#087C39" d="M893.397 192.943l.4-37.257 3.018-3.205-.37 38.675z"/><path fill="#006027" d="M893.797 155.686l-3.171-3.73-.4 39.107 3.171 1.88z"/><path fill="#008235" d="M865.96 174.946l15.951-56.857 19-.4 11.732 59.476z"/><path fill="#006B2B" d="M849.979 148.444l15.981 26.502 15.951-56.857-11.547-7.457z"/><path fill="#009548" d="M912.643 177.165l27.867-19.23-24.665-47.303-14.934 7.057z"/><path fill="#006B2B" d="M860.664 116.857l19.923-34.238 8.037 5.424-6.158 43.298z"/><path fill="#009548" d="M925.083 110.046L908.516 82.62l-9.36 4.87 14.78 40.123z"/><path fill="#008235" d="M882.466 131.34l31.47-3.728-14.78-40.124-10.532.555z"/><path fill="#006B2B" d="M870.302 78.952l7.452 13.405 18.6-52.234z"/><path fill="#009548" d="M921.142 86.07l-24.789-45.947 5.543 56.919z"/><path fill="#008235" d="M877.754 92.357l24.142 4.685-5.543-56.919z"/><path fill="#000" opacity=".14" d="M877.754 92.357l9.33 5.917 17.43 3.113 13.394-3.39-4.68-7.427-11.332 6.472z"/><path fill="#000" opacity=".22" d="M860.664 116.857l17.737 13.559 4.588 3.606 21.463 1.818 22.879-3.174-7.575-14.33-5.82 9.276-31.47 3.729z"/><path d="M978.191 66.401v104.642l-1.149.65V67.08z" fill="#009548"/><path d="M977.042 171.693l-1.149-.65V66.401l1.15.68z" fill="#006B2B"/><path fill="#1CB762" d="M975.893 66.401l1.15-.65 1.148.65-1.149.68z"/><path d="M992.569 60.557v31.572l-27.482 15.801V76.358z" fill="#008235"/><path d="M991.42 62.474V91.54l-25.184 14.472V76.946z" fill="#1CB762"/><path d="M990.27 64.391v26.563l-22.885 13.142V77.533z" fill="#008235"/><path d="M965.087 107.93l-.994-.587V75.77l.994.587z" fill="#006B2B"/><path d="M965.087 76.358l-.994-.587L991.575 60l.994.557zm18.29-3.123c1.087.402 1.646 1.639 1.646 3.68 0 2.133-.559 4.081-1.739 5.875-1.149 1.794-2.795 3.309-4.937 4.515l-1.553.896.03 7.02-3.663 2.103-.062-19.698 5.496-3.154c2.08-1.237 3.695-1.64 4.782-1.237zm-2.888 8.627c.56-.835.839-1.731.839-2.69 0-.99-.249-1.577-.715-1.763-.465-.185-1.21 0-2.204.557l-1.646.959.03 5.844 1.212-.68c1.087-.65 1.925-1.392 2.484-2.227z" fill="#1CB762"/><path fill="#231F20" opacity=".2" d="M923 189.221l18.134-6.695 2.015 1.137L975.853 171l1.147.663-32.332 12.726 1.364.822L927.526 192zm77.923 21.604l-7.274 2.904 1.135.642-5.678 2.231-43.891-25.248 4.358-2.507 6.477-2.568.89 3.057 39.348 20.908v.978l3.13-1.253z"/><path d="M956.571 188.113l37.6 21.612 11.51-6.633-37.63-21.581-11.541 6.358z" fill="#009548"/><path d="M953.103 176.07l3.837 13.266 37.844 21.764-3.836-13.266z" fill="#006B2B"/><path d="M990.948 197.834l3.836 13.266 10.896-6.266v-1.742l-9.883 5.685-3.376-11.768z" fill="#008235"/><path d="M990.948 197.834l1.473-.825-37.845-21.764-1.473.825z" fill="#1CB762"/><path fill="#009548" d="M1002.427 206.698l-1.504.887v3.24l1.504-.856z"/><path fill="#006B2B" d="M1000.923 210.825l-1.504-.856v-1.528l1.504-.856z"/><path fill="#009548" d="M996.288 210.244l-1.504.856v3.27l1.504-.855z"/><path fill="#006B2B" d="M994.784 214.37l-1.504-.855v-3.27l1.504.855z"/><path fill="#008235" d="M959.917 191.078l-1.473-.886v3.27l1.473-.855z"/><path fill="#006B2B" d="M958.444 193.463l-1.504-.856v-3.27l1.504.855z"/><path fill="#2D2D2D" d="M845.74 150.565l5.21 3.012-4.531 2.582-5.21-3.012z"/><path fill="#087C39" d="M846.08 212.345l.339-29.999 2.435-2.582-.308 31.167z"/><path fill="#006027" d="M846.419 182.346l-2.59-3.012-.308 31.504 2.559 1.507z"/><path fill="#008235" d="M823.885 197.868l12.885-45.797 15.383-.308 9.494 47.887z"/><path fill="#006B2B" d="M811 176.506l12.885 21.362 12.885-45.797-9.309-6.025z"/><path fill="#009548" d="M861.647 199.65l22.503-15.46-19.914-38.144-12.083 5.717z"/><path fill="#006B2B" d="M819.6 151.087l16.122-27.57 6.505 4.334-4.994 34.885z"/><path fill="#009548" d="M871.696 145.616l-13.378-22.1-7.583 3.904 11.96 32.335z"/><path fill="#008235" d="M837.233 162.736l25.462-2.981-11.96-32.335-8.508.43z"/><path fill="#006B2B" d="M827.43 120.535l6.011 10.82 15.043-42.078z"/><path fill="#009548" d="M868.521 126.283l-20.037-37.006 4.47 45.827z"/><path fill="#008235" d="M833.441 131.355l19.513 3.75-4.47-45.828z"/><path fill="#000" opacity=".14" d="M833.441 131.355l7.553 4.764 14.087 2.49 10.82-2.705-3.792-5.994-9.155 5.194z"/><path fill="#000" opacity=".22" d="M819.6 151.087L833.965 162l3.7 2.92 17.354 1.444 18.496-2.551-6.134-11.526-4.686 7.469-25.462 2.981z"/><path fill="#231F20" opacity=".2" d="M35.27 95l-7.248 9.924-7.405.247-4.256 6.69-5.188.068L0 121l30.46-3.727.355-2.358 17.713-.83.51-2.92 19.287-1.75L74 105.126l-10.486-3.952 7.072-2.424-2.04-1.235-7.714 2.65-10.62-4.02z"/><path fill="#2D2D2D" d="M70.772 49.566l4.163 2.437-3.61 2.079-4.163-2.437z"/><path fill="#087C39" d="M71.038 99.4l.265-24.19 1.95-2.08-.244 25.107z"/><path fill="#006027" d="M71.303 75.21l-2.06-2.437L69 98.17l2.038 1.23z"/><path fill="#008235" d="M53.387 87.707L63.64 50.795l12.225-.245 7.574 38.588z"/><path fill="#006B2B" d="M43.11 70.492l10.277 17.215L63.64 50.795l-7.42-4.851z"/><path fill="#009548" d="M83.44 89.138l17.916-12.475-15.879-30.719-9.611 4.606z"/><path fill="#006B2B" d="M49.976 50.013L62.8 27.768l5.16 3.51-3.964 28.125z"/><path fill="#009548" d="M91.435 45.586L80.782 27.768l-6.046 3.174 9.523 26.046z"/><path fill="#008235" d="M63.995 59.403l20.264-2.415-9.523-26.046-6.777.336z"/><path fill="#006B2B" d="M56.177 25.375l4.806 8.72L72.943.179z"/><path fill="#009548" d="M88.888 30.026L72.942.179l3.566 36.956z"/><path fill="#008235" d="M60.983 34.095l15.525 3.04L72.942.18z"/><path fill="#000" opacity=".14" d="M60.983 34.095l6.002 3.845 11.228 2.012 8.593-2.19-2.99-4.83-7.308 4.203z"/><path fill="#000" opacity=".22" d="M49.976 50.013l11.406 8.786 2.967 2.348 13.82 1.162 14.705-2.034-4.872-9.323-3.743 6.036-20.264 2.415z"/></g></svg>