<svg width="1294" height="516" viewBox="0 0 1294 516" xmlns="http://www.w3.org/2000/svg"><title>Group 2</title><g fill="none" fill-rule="evenodd"><path d="M79.232 189.497C191.95 148.98 305.02 137.12 352.606 162.5c22.065 11.768 33.77 27.39 36.672 46.252 2.936 19.09-3.073 42.254-17.902 66.405-21.607 35.188-34.877 74.895-35.006 111.707-.163 46.23 20.181 85.451 61.968 110.912 37.882 23.082 80.437 23.306 125.453 4.81 41.687-17.126 83.322-48.526 132.731-95.622 13.757-13.113 19.64-18.975 47.493-47.027 18.53-18.664 28.104-28.005 36.956-35.81 204.5-180.326 388.834-270.712 552.434-272.629l-.598-50.996c-177.734 2.083-372.732 97.697-585.566 285.372-9.995 8.813-20.075 18.648-39.417 38.13-27.466 27.663-33.214 33.39-46.49 46.044-45.176 43.06-82.536 71.237-116.924 85.365-31.073 12.766-56.854 12.63-79.536-1.19-25.99-15.835-37.607-38.23-37.505-67.18.094-26.537 10.42-57.437 27.467-85.2 44.35-72.227 32.942-146.385-38.23-184.343-34.04-18.155-83.506-23.026-143.472-16.736-53.402 5.601-113.723 20.096-171.154 40.74-72.376 26.014-135.92 49.03-190.635 69.048L-153 219.46l34.306 89.195 47.6-18.308-15.689-40.792c48.882-17.826 104.22-37.845 166.015-60.057z" fill="#EFEFEF" fill-rule="nonzero"/><g fill="#FFCD00"><path d="M1114.957 71.15c0 6.969-9.923 12.618-22.165 12.618-12.24 0-22.164-5.65-22.164-12.618 0-6.97 9.923-12.619 22.164-12.619 12.242 0 22.165 5.65 22.165 12.619"/><path d="M1092.543 58.938c0 6.97-9.923 12.619-22.164 12.619-12.242 0-22.165-5.65-22.165-12.619 0-6.969 9.923-12.618 22.165-12.618 12.24 0 22.164 5.65 22.164 12.618"/><path opacity=".4" d="M1051.532 92.951l44.683-9.248-16.71-20.63-33.422 22.053z"/><path opacity=".4" d="M1027.555 79.435l44.684-9.248-16.711-20.63-33.422 22.053z"/></g><g fill-rule="nonzero"><path fill="#231F20" opacity=".195" d="M1048.01 110.344l-69.994 40.614-43.405-25.004 69.77-40.841z"/><path fill="#008842" d="M998.552 81.936l31.657-7.306 15.201 8.895-17.443 15.565z"/><path fill="#009B4B" d="M998.552 81.936l24.393-10.664 6.188 3.63z"/><path fill="#00752F" d="M987.79 121.28l5.875-14.43-29.64-17.29-6.815 16.745 29.236 17.063z"/><path fill="#333" d="M985.639 122.914l6.815-16.745-27.218-15.928-6.815 16.79z"/><path fill="#1A1A1A" d="M994.024 131.128l51.655-28.907-3.766-5.582-52.687 29.542z"/><path d="M988.284 142.7s-4.977-2.95-6.188-3.63c-1.21-.682-2.062-2.088-2.062-4.04 0-3.857 3.049-9.348 6.456-11.345 1.615-.953 3.229-.953 4.44-.226 1.21.726 6.188 3.63 6.188 3.63l-8.834 15.61zm45.557-26.593s-4.977-2.95-6.188-3.63c-1.21-.68-2.062-2.088-2.062-4.039 0-3.857 3.049-9.348 6.457-11.345 1.614-.953 3.228-.953 4.439-.227 1.21.726 6.188 3.63 6.188 3.63l-8.834 15.611z" fill="#4D4D4D"/><path fill="#004E23" d="M987.79 121.28v4.402l1.211-.726v-3.086l4.619-11.254v11.663l1.256-.772v-13.75l13.093-7.578v13.705l1.21-.727V99.453l11.076-6.535 6.502 6.898v3.086l1.21-.726V99.09l-7.353-7.987-26.95 15.747z"/><path d="M975.236 144.968l9.371-3.902c0-.182-.045-2.95-.045-2.95 0-2.133.852-4.72 2.198-6.988 1.255-2.179 2.959-4.13 4.753-5.174 1.748-1.043 3.497-1.043 4.797-.272 1.3.772 2.153 2.314 2.153 4.311 0 .182 0 2.678-.045 2.86l21.389-12.526V106.85l-21.793 12.706-22.823 13.341.045 12.071z" fill="#00712E"/><path d="M992.678 142.427c-1.569.908-3.183.953-4.394.272-1.21-.68-2.063-2.087-2.063-4.038 0-1.997.808-4.402 2.063-6.535 1.166-2.042 2.735-3.812 4.44-4.81 1.613-.953 3.228-.953 4.438-.227 1.211.726 2.018 2.133 2.018 4.039 0 1.86-.717 4.175-1.928 6.262-1.21 2.087-2.825 3.993-4.574 5.037z" fill="#1A1A1A"/><path d="M989.495 140.521c-1.21-.68-1.39-3.72.627-7.351 1.929-3.45 4.619-4.72 5.785-3.994 1.255.726 1.345 3.54-.628 7.034-2.197 3.857-4.618 4.992-5.784 4.311z" fill="#AEB0B2"/><path d="M988.284 139.886c-1.21-.68-1.39-3.721.628-7.352 1.928-3.448 4.618-4.719 5.784-3.993 1.256.726 1.345 3.54-.628 7.034-2.152 3.857-4.573 4.992-5.784 4.31z" fill="#FFF"/><path d="M1019.807 120.418l10.313-5.99c0-.181-.045-2.677-.045-2.859 0-2.133.852-4.72 2.197-6.988 1.256-2.178 2.96-4.13 4.753-5.174 1.749-1.043 3.498-1.043 4.798-.272 1.3.772 2.152 2.315 2.152 4.311 0 0 0 2.723-.045 2.95l8.565-7.397V88.562l-24.572 13.614-8.161 4.764.045 13.478z" fill="#00712E"/><path d="M1038.236 115.835c-1.57.907-3.184.953-4.395.272-1.21-.68-2.062-2.087-2.062-4.039 0-1.996.807-4.401 2.062-6.534 1.166-2.042 2.736-3.812 4.44-4.81 1.614-.953 3.228-.953 4.439-.227 1.21.726 2.017 2.132 2.017 4.038 0 1.86-.717 4.175-1.928 6.263-1.21 2.087-2.825 3.993-4.573 5.037z" fill="#1A1A1A"/><path d="M1035.052 113.929c-1.21-.68-1.39-3.721.628-7.352 1.928-3.448 4.618-4.719 5.784-3.993 1.256.726 1.345 3.54-.628 7.034-2.197 3.857-4.618 4.992-5.784 4.31z" fill="#AEB0B2"/><path d="M1033.841 113.294c-1.21-.681-1.39-3.722.628-7.352 1.928-3.449 4.619-4.72 5.784-3.993 1.256.726 1.346 3.54-.627 7.034-2.197 3.857-4.619 4.946-5.785 4.31z" fill="#FFF"/><path fill="#0D592F" d="M975.236 132.988l-1.39-2.314-29.37-17.154-.852 1.135v11.844l31.612 18.47z"/><path fill="#AEB0B2" d="M943.624 120.736v.68l31.612 18.515 7.174-4.22.628.363-7.802 4.583-32.868-19.195z"/><path fill="#829298" d="M942.368 121.462v2.314l32.868 19.196v-2.315z"/><path d="M975.236 142.972c.179-.136 7.802-4.584 7.802-4.584v-2.314l-7.802 4.583v2.315z" fill="#FFF"/><path fill="#009548" d="M964.026 89.56l26.948-15.792 29.64 17.335-26.95 15.747z"/><path fill="#4D4D4D" d="M995.952 122.823l-.314-.181 3.408-1.997.358.182z"/><path fill="#333" d="M995.952 123.595v-.772l3.452-1.996v.771z"/><path fill="#1A1A1A" d="M995.638 122.642l.429.181v.817l-.43-.181z"/><path fill="#4D4D4D" d="M1010.3 114.473l-.358-.181 3.452-1.997.314.182z"/><path fill="#333" d="M1010.3 115.245v-.772l3.408-1.996v.771z"/><path fill="#1A1A1A" d="M1009.942 114.292l.49.181v.817l-.49-.181z"/><path fill="#AEB0B2" d="M1045.993 99.362l-.673-.363 7.22-4.266v-.635l1.21.68z"/><path fill="#FFF" d="M1045.993 100.905v-1.543l7.757-4.583v1.543z"/><path fill="#829298" d="M1045.32 99l.673.362v1.543l-.673-.363z"/><path fill="#FF8900" d="M975.236 134.577l.762-.454v3.812l-.762.453z"/><path fill="#4D4D4D" d="M992.947 105.125l-.672-.408 26.097-15.248.627.409z"/><path fill="#333" d="M992.454 106.169l.493-1.044L1019 89.878l.449.544z"/><path fill="#1A1A1A" d="M992.275 104.717l.672.408-.493 1.044-.672-.408z"/><path fill="#4D4D4D" d="M966.357 89.56l-.627-.363 26.052-15.247.672.408z"/><path fill="#333" d="M965.909 90.604l.448-1.044 26.097-15.202.404.5z"/><path fill="#1A1A1A" d="M965.73 89.197l.627.363-.448 1.044-.673-.363z"/><path fill="#4EB548" d="M975.236 132.988l-1.39-2.314 12.6-7.306 1.345 2.314z"/><path fill="#009548" d="M944.475 113.52l12.556-7.306.179.091 29.236 17.063-12.6 7.306z"/><path fill="#B3B3B3" d="M945.866 112.704l11.479-6.717-.135.318"/><path fill="#4EB548" d="M986.446 123.368l1.345-2.088v4.402z"/><path fill="#AA5F0E" d="M966.178 129.312v3.767l9.058 5.31v-3.812zm-22.554-13.205v3.812l9.057 5.264v-3.767z"/><path fill="#333" d="M989.001 121.87l4.619-11.254v11.663l-4.619 2.677zm5.875-.363v-13.75l13.093-7.578v13.705zm14.304-22.054l11.075-6.535 6.502 6.898v3.086l-17.578 10.255z"/><path fill="#4EB548" d="M1027.967 99.816v2.36l24.573-13.614zm0-.726v.726l17.443-15.43v-.861z"/><path fill="#AEB0B2" d="M1029.85 101.631l.718-.408-3.139-1.816-.672.409z"/><path fill="#4D4D4D" d="M1029.85 104.127v-2.496l-3.093-1.815v2.45z"/><path fill="#FFF" d="M1030.568 101.223l-.717.408v2.496l.717-.408z"/><path fill="#009B4B" d="M1027.967 99.816l17.443-15.43 7.13 4.176z"/><path fill="#FF8900" d="M1050.253 94.597l2.287-1.361v-3.767l-2.287 1.316z"/><path fill="#007B3C" d="M992.544 80.03l-7.668 4.493 4.08 2.405 5.65 3.267 6.368 3.722 7.667-4.493z"/></g></g></svg>