<svg width="214" height="173" viewBox="0 0 214 173" xmlns="http://www.w3.org/2000/svg"><title>Group 2</title><g fill="none"><path fill="#231F20" opacity=".2" d="M69.576 127.31l-9.704 13.196-9.943.32-3.164 4.905-8.48-.64-7.844 10.636-8.029.266-4.6 7.17-5.582.054-12.097 9.73 32.94-3.999.4-2.505 19.168-.907.558-3.145 20.844-1.84 6.168-4.584-7.019-2.666 14.144-.64.691-3.892 25.816-2.319 7.63-5.678-14.064-5.25 9.491-3.226-2.738-1.626-10.342 3.492-14.224-5.305z"/><path fill="#2D2D2D" d="M116.528 65.921l5.583 3.252-4.839 2.773-5.583-3.252z"/><path fill="#087C39" d="M116.9 132.296l.346-32.228 2.605-2.772-.319 33.454z"/><path fill="#006027" d="M117.246 100.068l-2.739-3.225-.345 33.827 2.738 1.626z"/><path fill="#008235" d="M93.212 116.728l13.771-49.18 16.404-.347 10.13 51.447z"/><path fill="#006B2B" d="M79.413 93.804l13.799 22.924 13.771-49.18-9.97-6.452z"/><path fill="#009548" d="M133.517 118.648l24.06-16.634-21.295-40.918-12.895 6.105z"/><path fill="#006B2B" d="M88.639 66.481l17.201-29.615 6.94 4.691-5.318 37.453z"/><path fill="#009548" d="M144.258 60.59l-14.304-23.724-8.082 4.212 12.761 34.706z"/><path fill="#008235" d="M107.462 79.01l27.171-3.226-12.761-34.706-9.093.48z"/><path fill="#006B2B" d="M96.96 33.694l6.434 11.595L119.452.107z"/><path fill="#009548" d="M140.854 39.851L119.452.107l4.786 49.234z"/><path fill="#008235" d="M103.394 45.29l20.844 4.051L119.452.107z"/><path fill="#000" opacity=".14" d="M103.394 45.29l8.056 5.117 15.048 2.693 11.565-2.933-4.041-6.424-9.784 5.598z"/><path fill="#000" opacity=".22" d="M88.639 66.481l15.314 11.729 3.961 3.119 18.53 1.572 19.754-2.745-6.54-12.395-5.025 8.023-27.171 3.226z"/><path d="M190.234 22.551v90.752l-.99.563V23.141z" fill="#009548"/><path d="M189.243 113.866l-.99-.563V22.551l.99.59z" fill="#006B2B"/><path fill="#1CB762" d="M188.253 22.551l.99-.563.99.563-.99.59z"/><path d="M202.628 17.483v27.38l-23.691 13.705V31.187z" fill="#008235"/><path d="M201.638 19.145v25.21l-21.71 12.55V31.696z" fill="#1CB762"/><path d="M200.647 20.808v23.037l-19.73 11.397V32.206z" fill="#008235"/><path d="M178.937 58.568l-.857-.51v-27.38l.857.509z" fill="#006B2B"/><path d="M178.937 31.187l-.857-.51L201.772 17l.856.483zm15.767-2.709c.937.349 1.42 1.421 1.42 3.191 0 1.85-.483 3.54-1.5 5.096-.99 1.555-2.41 2.87-4.256 3.915l-1.339.778.027 6.088-3.159 1.823-.053-17.083 4.738-2.735c1.793-1.073 3.185-1.422 4.122-1.073zm-2.49 7.482a4.134 4.134 0 0 0 .724-2.333c0-.858-.215-1.368-.616-1.529-.402-.16-1.044 0-1.9.483l-1.42.832.027 5.068 1.044-.59c.937-.563 1.66-1.207 2.142-1.93z" fill="#1CB762"/><path fill="#231F20" opacity=".2" d="M142 128.618l15.784-5.738 1.753.974L188.002 113l.998.568-28.14 10.909 1.186.703L145.94 131zm67.707 19.089l-6.336 2.49.99.55-4.946 1.912-38.228-21.642 3.796-2.148 5.64-2.2.776 2.62 34.271 17.92v.839l2.727-1.074z"/><path d="M171.078 128.24l32.748 18.524 10.024-5.686-32.774-18.497-10.051 5.45z" fill="#009548"/><path d="M168.057 117.917l3.342 11.371 32.961 18.655-3.341-11.371z" fill="#006B2B"/><path d="M201.019 136.572l3.341 11.371 9.49-5.371v-1.494l-8.607 4.874-2.941-10.087z" fill="#008235"/><path d="M201.019 136.572l1.283-.707-32.961-18.655-1.284.707z" fill="#1CB762"/><path fill="#009548" d="M211.017 144.17l-1.31.76v2.777l1.31-.733z"/><path fill="#006B2B" d="M209.707 147.707l-1.31-.733v-1.31l1.31-.734z"/><path fill="#009548" d="M205.67 147.21l-1.31.733v2.804l1.31-.734z"/><path fill="#006B2B" d="M204.36 150.747l-1.31-.734v-2.804l1.31.734z"/><path fill="#008235" d="M173.992 130.782l-1.283-.76v2.803l1.283-.733z"/><path fill="#006B2B" d="M172.709 132.825l-1.31-.733v-2.804l1.31.734z"/><path fill="#2D2D2D" d="M76.046 95.124l4.506 2.6-3.92 2.227-4.505-2.599z"/><path fill="#087C39" d="M76.34 148.434l.293-25.885 2.106-2.228-.267 26.893z"/><path fill="#006027" d="M76.633 122.549l-2.24-2.6-.266 27.186 2.212 1.3z"/><path fill="#008235" d="M57.144 135.942l11.144-39.518 13.303-.265 8.212 41.322z"/><path fill="#006B2B" d="M46 117.51l11.144 18.432 11.144-39.518-8.051-5.198z"/><path fill="#009548" d="M89.803 137.48l19.462-13.34-17.223-32.914-10.45 4.933z"/><path fill="#006B2B" d="M53.438 95.575l13.944-23.79 5.625 3.74-4.32 30.102z"/><path fill="#009548" d="M98.494 90.854l-11.57-19.07-6.559 3.369 10.344 27.902z"/><path fill="#008235" d="M68.688 105.627l22.021-2.572-10.344-27.902-7.358.371z"/><path fill="#006B2B" d="M60.21 69.212l5.199 9.336 13.01-36.31z"/><path fill="#009548" d="M95.748 74.172l-17.33-31.933 3.867 39.545z"/><path fill="#008235" d="M65.409 78.548l16.876 3.236-3.866-39.545z"/><path fill="#000" opacity=".14" d="M65.409 78.548l6.531 4.11 12.184 2.15 9.358-2.335-3.28-5.172-7.917 4.483z"/><path fill="#000" opacity=".22" d="M53.438 95.575l12.424 9.416 3.2 2.52 15.009 1.246 15.996-2.201-5.305-9.946-4.053 6.445-22.021 2.572z"/></g></svg>