<svg width="524" height="444" viewBox="0 0 524 444" xmlns="http://www.w3.org/2000/svg" xmlns:xlink="http://www.w3.org/1999/xlink"><title>Image</title><defs><path id="a" d="M31.59.152H.042v72.56h31.55V.151z"/><path id="c" d="M30.96.152H.221v72.56h30.737V.151z"/></defs><g fill="none" fill-rule="evenodd"><path fill="#017631" d="M524 182.264L489.041 202 485 199.735 519.999 180z"/><path fill="#017E34" d="M455 221.264L420.041 241 416 238.735 450.999 219z"/><path fill="#117F3E" d="M409 248.264L374.041 268 370 265.735 404.999 246zm-47 27L327.041 295 323 292.735 357.999 273zm-47 27L280.041 322 276 319.735 310.999 300zm-47 27L233.041 349 229 346.735 263.999 327zm-47 28L186.041 377 182 374.735 216.999 355z"/><path fill="#017E34" d="M174 384.264L139.041 404 135 401.735 169.999 382z"/><path fill="#017631" d="M102 424.264L67.041 444 63 441.735 97.999 422z"/><path fill="#231F20" opacity=".249" d="M150.642 151.4l-10.766 14.616-11.027.364-6.325 9.842-7.688.092L99.2 189.4l43.266-5.161.539-3.453 27.335-1.298.76-4.31 28.653-2.556 8.447-6.298-15.593-5.837 10.529-3.572-3.045-1.802-11.456 3.886-15.771-5.903z"/><path fill="#087C39" d="M203 157v-35.877l3-3.123-.323 37.29z"/><path fill="#006027" d="M203 121.555L200.33 118l-.33 37.212 3 1.788z"/><path fill="#077735" d="M176.557 139.939L191.997 85h18.67L222 142z"/><path fill="#006027" d="M161 114.45L176.513 140 192 85.203 180.786 78z"/><path fill="#009548" d="M221.285 142L248 123.525 224.335 78 210 84.812z"/><path fill="#00682A" d="M171.687 84.418L191.245 51 199 56.216 192.77 98.5z"/><path fill="#02893F" d="M234 77.22L218.042 51l-9.196 4.804 14.177 39.056z"/><path fill="#077735" d="M192.846 98.461l30.206-3.536L208.912 56l-10.034.51z"/><path fill="#006B2B" d="M181 47.17l6.816 13.737L206 10z"/><path fill="#009548" d="M230.348 54.892L206 10l5.46 55.512z"/><path fill="#008235" d="M187.831 60.97l23.62 4.54-5.47-55.403z"/><g opacity=".249"><path fill="#000" d="M188.273 61.025l8.967 5.684 16.748 2.988 13.452-3.26-4.527-7.415-11.454 6.5zM171.85 84.563l17.038 13.02 4.414 3.464 20.624 1.732 21.724-3.004-7.118-13.715-5.522 8.876-30.221 3.527z"/><path d="M222.119 304.888l-91.87-53.144L309.728 148.41l92.111 53.063z" fill="#231F20"/></g><path fill="#1A1A1A" d="M250.491 265L363 202.967 354.783 191 240 254.409z"/><path fill="#878787" d="M195.528 199l1.472-.92-6.528-4.08-1.472.92z"/><path fill="#3F3F3F" d="M196 204v-5.174L189 195v5.174z"/><path fill="#00752F" d="M198 198l-2 .857V204l2-.857z"/><path d="M306.54 213.41l-47.327 27.38-55.309 33.627v22.5l26.044-10.018c-.037-.424-.056-6.315-.056-6.315 0-4.565 1.866-10.126 4.77-15.084 2.746-4.69 6.42-8.84 10.32-11.096 3.809-2.202 7.572-2.201 10.388-.568 2.83 1.642 4.702 4.933 4.702 9.295 0 .436-.018 5.74-.053 6.197l46.54-26.913 22.408-12.864c-.038-.424-.057-5.744-.057-6.194 0-4.564 1.866-10.125 4.77-15.083 2.746-4.69 6.42-8.84 10.32-11.096 3.809-2.202 7.572-2.201 10.388-.568 2.83 1.642 4.702 4.933 4.702 9.295 0 0-.018 5.842-.053 6.299l17.266-13.33v-25.807L306.54 213.41z" fill="#00712E"/><path d="M233.455 281.618c0-4.256 1.74-9.44 4.447-14.064 2.56-4.372 5.986-8.242 9.622-10.344 3.552-2.054 7.06-2.053 9.685-.53l-6.938-3.987c-1.688.116-3.483.666-5.287 1.71-3.908 2.26-7.589 6.417-10.34 11.116-2.91 4.968-4.78 10.54-4.78 15.113 0 .449.02 4.576.057 5.014 3.816 2.21 8.033 4.68 8.033 4.68-2.672-1.465-4.499-4.476-4.499-8.708" fill="#3C3C3C"/><path d="M253.166 276.38c-4.771 8.34-10.02 10.762-12.575 9.339l-.015-.008c-.41-.232-.754-.592-1.042-1.044-1.61-2.502-1.315-8.173 2.452-14.752 3.536-6.18 8.137-9.107 11.055-9.027.576.02 1.092.14 1.516.387l.016.012c2.694 1.613 2.88 7.607-1.407 15.093m4.044-19.698c-2.626-1.526-6.136-1.526-9.687.528-3.634 2.103-7.06 5.971-9.619 10.344-2.71 4.624-4.45 9.81-4.45 14.065 0 4.232 1.827 7.243 4.5 8.708 2.671 1.465 6.188 1.382 9.57-.573 3.827-2.213 7.356-6.336 9.921-10.903 2.551-4.54 4.15-9.52 4.15-13.506 0-4.066-1.747-7.133-4.385-8.663" fill="#1A1A1A"/><path d="M253.166 276.38c-4.771 8.34-10.02 10.762-12.575 9.339l-.015-.008c-.41-.232-.754-.592-1.042-1.044.56.011 1.179-.091 1.842-.323 2.664-.915 6.052-3.834 9.228-9.384 2.904-5.075 3.753-9.456 3.161-12.261-.151-.71-.394-1.317-.724-1.81.576.018 1.092.14 1.516.386l.016.012c2.694 1.613 2.88 7.607-1.407 15.093" fill="gray"/><path d="M250.604 274.96c-3.176 5.55-6.564 8.47-9.228 9.384-.664.232-1.281.334-1.842.323-1.611-2.502-1.315-8.173 2.452-14.752 3.536-6.18 8.137-9.107 11.055-9.027.33.494.573 1.1.724 1.81.591 2.806-.258 7.187-3.16 12.262" fill="#FFF"/><path d="M332.491 224.372c0-4.255 1.74-9.44 4.447-14.063 2.56-4.373 5.986-8.242 9.622-10.345 3.552-2.054 7.06-2.053 9.685-.53l-6.938-3.987c-1.688.117-3.483.667-5.288 1.71-3.907 2.26-7.588 6.418-10.34 11.116-2.908 4.968-4.778 10.54-4.778 15.113 0 0 .019 4.572.056 5.014 3.816 2.21 8.033 4.68 8.033 4.68-2.672-1.464-4.499-4.476-4.499-8.708" fill="#3C3C3C"/><path d="M360.628 208.1c0 3.985-1.6 8.966-4.15 13.506-2.562 4.567-6.09 8.69-9.918 10.902-3.381 1.955-6.898 2.039-9.57.574-2.672-1.466-4.499-4.476-4.499-8.709 0-4.255 1.74-9.44 4.446-14.064 2.562-4.374 5.988-8.242 9.623-10.345 3.55-2.054 7.06-2.054 9.687-.531l-2.645 4.604-.008-.007c-.425-.247-.94-.368-1.516-.387-2.918-.084-7.523 2.847-11.06 9.027-3.763 6.578-4.062 12.25-2.448 14.752.288.451.633.812 1.039 1.04l.019.007c2.554 1.428 7.803-.998 12.575-9.334 4.286-7.486 4.1-13.484 1.406-15.094l2.638-4.608c2.638 1.533 4.381 4.6 4.381 8.666" fill="#1A1A1A"/><path d="M352.203 219.135c-4.772 8.336-10.02 10.762-12.575 9.334l-.019-.007c-.406-.228-.75-.589-1.039-1.04.557.01 1.179-.095 1.842-.323 2.664-.915 6.049-3.834 9.229-9.384 2.903-5.076 3.748-9.456 3.16-12.262-.151-.713-.397-1.317-.723-1.81.576.019 1.091.14 1.516.387l.015.011c2.695 1.61 2.88 7.608-1.406 15.094" fill="gray"/><path d="M349.64 217.715c-3.179 5.55-6.563 8.469-9.228 9.384-.663.228-1.285.334-1.842.323-1.614-2.502-1.315-8.173 2.449-14.752 3.536-6.18 8.14-9.11 11.059-9.027.326.493.572 1.097.724 1.81.587 2.806-.258 7.186-3.161 12.262" fill="#FFF"/><path fill="#009548" d="M203.905 274.417l-15.608-9v-1.68l-33.023-19.096v1.654l-15.778-9.124v22.5l64.407 37.246z"/><path fill="#007B3C" d="M188.297 263.737l-33.023-19.096 39.59-47.758 64.37 37.268z"/><path fill="#009548" d="M259.234 234.151l16.762-36.149-64.383-37.272-16.75 36.153z"/><path fill="#3EA94D" d="M259.234 235.633l-55.33 38.784 55.31-33.627zm89.946-46.881l27.123-15.685-2.971-4.896-24.152 13.966z"/><path fill="#00712E" d="M259.234 234.151l-.02 6.639 2.708-1.578v-3.736l16.411-35.393 26.881-15.518v29.612l2.688-1.555v-29.61l25.968-14.989-.016 29.592 2.688-1.555.005-24.714 9.946 12.345v6.616l2.688-1.555v-6.615l-14.546-18.05-58.639 33.915z"/><path fill="#009548" d="M203.904 274.417l-15.607-9 70.937-29.784z"/><path fill="#3EA94D" d="M188.297 265.417v-1.68l70.937-29.586v1.482z"/><path fill="#1A1A1A" d="M156.925 247.25v11.576l29.72 17.302v-11.692z"/><path fill="#009548" d="M139.496 237.17l15.778 9.125v-1.654l39.59-47.758z"/><path fill="#FF8900" d="M189.122 267.637l14.782 8.545v8.157l-14.782-8.548z"/><path fill="#D67422" d="M203.905 284.34l4.951-2.864v-8.157l-4.951 2.863z"/><path fill="#FF8900" d="M154.449 255.74l-14.953-8.647v-8.154l14.953 8.647z"/><path fill="#C0C0C0" d="M139.496 248.907v1.493l64.383 37.258 21.337-12.336 1.393.806-22.704 13.172-67.13-38.82z"/><path fill="#60696C" d="M136.775 250.48v4.962l67.13 38.82V289.3z"/><path d="M203.905 294.262c.352-.264 22.704-13.13 22.704-13.13v-5.004L203.905 289.3v4.962z" fill="#8A8A8A"/><path fill="#009548" d="M211.613 160.73l58.607-33.892 64.414 37.25-58.638 33.914z"/><path fill="#4D4D4D" d="M296.83 223.39l-.714-.414 7.448-4.307.714.414z"/><path fill="#333" d="M296.83 225.044v-1.654l7.448-4.307v1.654z"/><path fill="#1A1A1A" d="M296.115 222.976l.715.414v1.708l-.715-.413z"/><path fill="#4D4D4D" d="M325.3 206.926l-.715-.413 7.448-4.307.715.413z"/><path fill="#333" d="M325.3 208.58v-1.654l7.448-4.307v1.654z"/><path fill="#1A1A1A" d="M324.585 206.513l.715.413v1.709l-.715-.414z"/><path fill="#4D4D4D" d="M361.968 198.002l-1.43-.827 15.765-9.224v-1.42l2.66 1.537z"/><path fill="#8A8A8A" d="M361.968 201.31v-3.308l16.994-9.934v3.307z"/><path fill="#373737" d="M360.538 197.175l1.43.827v3.307l-1.43-.826z"/><path fill="#FF8900" d="M374.652 177.442l1.652-.955v8.157l-1.652.955z"/><path fill="#232323" d="M256.63 232.644l16.763-36.15-59.177-34.257-16.76 36.147zm5.292 2.832v3.736l43.292-25.035v-29.612l-26.88 15.519zm45.98-52.464v29.61l25.952-15.007.016-29.592zm28.64 13.048l.005-24.714 9.945 12.345v6.615z"/><path fill="#4D4D4D" d="M274.44 194.235l-1.43-.827 56.684-32.779 1.43.827z"/><path fill="#333" d="M273.393 196.495l1.048-2.26 56.683-32.78.91 1.13z"/><path fill="#1A1A1A" d="M273.01 193.408l1.43.827-1.047 2.26-1.43-.827z"/><path fill="#4D4D4D" d="M216.694 160.804l-1.43-.827 56.684-32.779 1.43.827z"/><path fill="#333" d="M215.646 163.064l1.048-2.26 56.684-32.78.909 1.129z"/><path fill="#1A1A1A" d="M215.264 159.977l1.43.827-1.048 2.26-1.43-.827z"/><path fill="#878787" d="M267.171 240.278l1.528-.883-6.777-3.92-1.528.885z"/><path fill="#3F3F3F" d="M267.171 245.579v-5.3l-6.777-3.92v5.3z"/><path fill="#616161" d="M268.699 239.395l-1.528.883v5.3l1.528-.883z"/><path fill="#007B3C" d="M293.547 140.328l15.818-9.148 63.967 36.99-24.152 13.967-14.545-18.049z"/><path fill="#D8AE00" opacity=".402" d="M189.122 267.637L59.373 345.194l92.603 25.054 51.928-85.909v-8.157z"/><path fill="#D8AE00" opacity=".402" d="M139.52 238.977L9.773 316.533l92.602 25.054 52.074-85.883v-8.157z"/><path d="M153.997 361.58c0 16.248-22.653 29.42-50.596 29.42-27.944 0-50.597-13.172-50.597-29.42s22.653-29.42 50.597-29.42c27.943 0 50.596 13.172 50.596 29.42" fill="#D8AE00"/><path d="M102.832 333.11c0 16.247-22.653 29.42-50.596 29.42-27.944 0-50.597-13.173-50.597-29.42 0-16.249 22.653-29.42 50.597-29.42 27.943 0 50.596 13.171 50.596 29.42" fill="#D8AE00"/><path fill="#231F20" opacity=".249" d="M69.717 187.601l-14.318 19.422-14.665.484-8.412 13.078-10.225.123L0 238.458l60.194-7.313.716-4.587 35.004-1.633 1.013-5.728 38.105-3.396 11.235-8.37-20.738-7.755 14.003-4.747-4.05-2.394-15.236 5.164-20.975-7.845z"/><path fill="#087C39" d="M139.532 194.93l.514-47.478 3.833-4.08-.467 49.297z"/><path fill="#006027" d="M140.046 147.452l-4.061-4.762-.504 49.845 4.05 2.394z"/><path fill="#037C34" d="M104.589 172l20.295-72.459 24.196-.498 14.977 75.77z"/><path fill="#006027" d="M84.257 138.214l20.332 33.785 20.295-72.458-14.695-9.524z"/><path fill="#009548" d="M164.057 174.814l35.455-24.48-31.407-60.317-19.024 9.026z"/><path fill="#00672A" d="M97.835 97.98l25.383-43.645 10.23 6.89-7.854 55.2z"/><path fill="#02893F" d="M179.891 89.3l-21.09-34.966-11.949 6.214 18.822 51.13z"/><path fill="#037C34" d="M125.594 116.425l40.08-4.747-18.822-51.13-13.405.678z"/><path fill="#006B2B" d="M110.128 49.655l9.479 17.089L143.303.152z"/><g transform="translate(143.262)"><mask id="b" fill="#fff"><use xlink:href="#a"/></mask><path fill="#009548" mask="url(#b)" d="M31.59 58.742L.042.152l7.041 72.56z"/></g><g transform="translate(119.385)"><mask id="d" fill="#fff"><use xlink:href="#c"/></mask><path fill="#008235" mask="url(#d)" d="M.222 66.744l30.737 5.967L23.918.152z"/></g><path fill="#000" opacity=".249" d="M119.607 66.744l11.888 7.543 22.202 3.965 17.038-4.31-5.946-9.46-14.445 8.23zM97.835 97.98l22.587 17.277 5.852 4.597 27.34 2.299 29.112-4.022-9.638-18.273-7.414 11.82-40.08 4.747z"/><path fill="#007B3C" d="M276.09 183.144l-41.063-23.803 16.186-9.246 40.989 23.756z"/></g></svg>